<svg xmlns="http://www.w3.org/2000/svg" width="200" height="40" viewBox="0,0,200,40"><path fill="#444" d="M82.09 14.72L82.01 14.64L80.45 14.75L80.45 14.75Q78.17 14.84 77.94 16.85L77.94 16.86L78.05 16.96Q77.94 17.65 77.97 18.64L77.93 18.59L77.93 18.59Q77.93 20.50 79.19 21.83L79.25 21.89L79.16 21.81Q80.53 23.25 82.44 23.10L82.43 23.09L82.30 22.96Q84.48 22.93 85.24 22.02L85.28 22.06L85.29 22.07Q86.25 21.05 86.52 18.81L86.50 18.79L86.49 18.78Q86.79 16.57 85.53 15.73L85.61 15.80L85.50 15.69Q84.71 14.98 82.05 14.68ZM88.08 23.91L88.04 23.87L86.83 26.23L86.70 26.11Q84.09 31.00 80.32 35.07L80.30 35.05L80.24 34.98Q78.63 35.17 75.92 35.97L76.00 36.04L76.00 36.04Q81.33 29.75 84.48 24.96L84.43 24.90L84.39 24.86Q83.41 25.55 81.77 25.63L81.68 25.55L81.84 25.70Q78.83 25.85 77.30 23.87L77.23 23.79L77.18 23.74Q75.93 22.11 74.83 17.55L74.83 17.55L74.84 17.56Q74.87 17.13 74.72 16.20L74.71 16.20L74.83 16.31Q74.55 15.25 74.55 14.79L74.56 14.80L74.62 14.87Q74.52 12.98 75.59 12.37L75.59 12.37L75.61 12.39Q76.86 11.66 78.72 11.66L78.71 11.64L78.82 11.75Q81.89 11.62 81.89 11.62L82.06 11.80L81.90 11.64Q84.09 11.70 85.35 11.89L85.43 11.97L85.48 12.02Q87.46 12.13 88.37 12.63L88.48 12.74L88.44 12.69Q89.87 13.52 90.06 15.27L89.97 15.18L90.02 15.23Q89.94 15.37 89.75 18.04L89.80 18.09L89.81 18.10Q89.50 20.30 89.27 21.14L89.14 21.01L89.23 21.10Q88.81 22.46 88.04 23.87ZM89.95 26.27L89.95 26.27L90.04 26.36Q90.98 24.10 91.51 19.80L91.57 19.86L91.58 19.87Q91.69 17.51 91.65 16.63L91.72 16.70L91.72 16.70Q91.69 14.84 90.51 13.93L90.42 13.83L90.13 13.74L90.26 13.87Q89.98 13.10 89.07 12.45L89.05 12.43L88.95 12.33Q86.68 11.35 81.88 11.20L81.99 11.31L81.88 11.20Q80.89 11.16 78.45 11.16L78.45 11.16L78.45 11.16Q76.84 11.29 75.35 11.98L75.30 11.93L75.25 11.88Q74.22 12.79 74.30 14.62L74.23 14.55L74.30 14.62Q74.44 15.48 74.63 17.50L74.53 17.40L74.56 17.43Q75.23 20.12 75.50 20.96L75.50 20.96L75.40 20.86Q76.03 22.79 76.99 24.08L77.07 24.17L77.00 24.10Q77.29 24.46 77.67 24.84L77.68 24.85L77.72 24.89Q77.95 25.31 78.59 26.22L78.53 26.16L78.51 26.14Q80.00 27.52 81.94 27.71L82.00 27.77L81.96 27.72Q80.07 30.40 78.51 32.31L78.61 32.41L74.91 36.70L74.94 36.73Q77.18 35.96 78.82 35.62L78.71 35.52L78.81 35.62Q78.02 36.46 76.46 38.17L76.50 38.21L76.45 38.16Q79.61 37.32 82.73 37.29L82.70 37.25L82.71 37.27Q84.94 34.59 89.28 27.36L89.32 27.39L89.35 27.50L89.40 27.55Q89.63 26.79 89.97 26.30ZM83.93 17.01L84.04 17.13L84.00 17.09Q84.46 16.82 84.92 16.94L85.04 17.06L85.07 17.09Q85.71 17.20 86.10 17.32L85.99 17.21L85.96 17.18Q86.16 17.65 86.24 18.07L86.18 18.02L86.13 17.96Q86.28 18.45 86.16 18.83L86.23 18.90L86.20 18.86Q86.13 20.55 84.95 21.65L84.88 21.59L84.89 21.59Q84.04 22.73 82.41 22.69L82.41 22.69L82.34 22.62Q82.02 22.72 80.50 22.42L80.42 22.34L80.48 22.39Q80.24 21.51 80.24 20.79L80.15 20.70L80.25 20.80Q80.11 20.47 80.11 20.24L80.15 20.28L80.08 20.21Q80.11 18.03 82.40 17.24L82.47 17.31L82.36 17.20Q83.12 17.04 83.96 17.04Z"/><path d="M2 24 C93 18,80 33,197 22" stroke="#666" fill="none"/><path fill="#111" d="M133.83 14.24L133.77 14.19L133.74 14.16Q134.94 18.70 135.09 21.90L135.01 21.82L135.09 21.90Q135.61 21.96 139.98 22.08L139.90 21.99L139.86 21.96Q142.52 22.10 142.90 18.64L142.83 18.56L142.90 18.63Q143.01 16.81 142.10 15.89L142.06 15.85L142.11 15.91Q140.76 14.93 138.78 14.78L138.85 14.86L138.95 14.96Q135.71 14.72 133.84 14.26ZM135.24 23.88L135.14 23.78L135.13 23.77Q135.39 29.85 133.60 35.79L133.56 35.75L133.48 35.67Q132.36 36.12 129.77 37.14L129.67 37.04L129.78 37.15Q132.45 30.49 132.10 23.03L132.27 23.19L132.18 23.10Q131.97 15.86 128.66 9.35L128.53 9.21L128.50 9.18Q133.45 12.07 140.41 12.07L140.39 12.05L140.45 12.11Q145.98 12.01 146.25 15.55L146.32 15.62L146.33 15.63Q146.33 16.16 146.25 16.77L146.28 16.80L146.26 18.00L146.28 18.02Q145.47 21.96 143.34 23.68L143.26 23.61L143.29 23.63Q142.53 24.36 141.50 24.36L141.35 24.20L138.90 24.34L138.84 24.28Q144.53 31.61 149.06 36.18L149.03 36.15L148.92 36.04Q146.71 35.28 143.78 34.94L143.84 34.99L143.83 34.99Q140.13 31.09 135.22 23.86ZM143.70 35.35L143.70 35.34L144.09 35.43L145.28 36.62L145.38 36.72Q145.89 37.20 146.54 37.81L146.46 37.72L146.54 37.81Q150.11 38.45 153.69 40.31L153.68 40.30L153.61 40.24Q146.77 33.58 141.36 26.65L141.26 26.56L143.13 26.67L142.97 26.51Q146.12 26.57 147.45 22.04L147.46 22.06L147.45 22.05Q148.08 19.78 148.08 17.08L148.05 17.05L148.17 17.16Q148.06 14.77 146.35 14.13L146.49 14.27L146.51 14.28Q146.32 13.83 145.75 13.15L145.77 13.17L145.74 13.14Q144.16 11.78 140.50 11.71L140.40 11.60L140.36 11.57Q132.54 11.47 127.85 8.46L127.81 8.42L127.92 8.53Q131.56 15.25 131.90 22.94L131.96 23.00L131.87 22.91Q132.20 30.86 129.08 37.71L129.09 37.71L129.18 37.81Q130.47 37.27 131.27 36.96L131.24 36.93L130.20 39.17L130.16 39.13Q132.96 38.16 135.62 37.66L135.60 37.64L135.63 37.68Q136.89 32.53 137.08 27.32L137.15 27.39L137.15 27.39Q140.63 32.32 143.79 35.44ZM142.47 17.44L142.42 17.40L142.40 17.37Q142.43 17.63 142.43 17.97L142.55 18.10L142.45 18.57L142.57 18.69Q142.55 19.77 141.87 20.72L141.86 20.72L141.91 20.77Q141.20 21.43 140.29 21.62L140.37 21.71L140.40 21.73Q140.03 21.63 138.43 21.67L138.48 21.71L138.42 21.65Q137.97 21.81 137.13 21.70L137.16 21.73L137.10 21.67Q136.96 20.12 136.61 17.07L136.64 17.10L136.55 17.00Q138.06 17.30 138.75 17.30L138.71 17.26L138.75 17.31Q140.63 17.36 142.58 17.55Z"/><path d="M4 6 C111 3,105 16,191 2" stroke="#777" fill="none"/><path fill="#111" d="M23.25 21.78L23.27 21.80L23.24 21.77Q25.18 22.07 27.01 22.07L26.90 21.96L26.88 21.94Q28.66 21.93 30.49 21.78L30.49 21.79L30.57 21.87Q30.43 22.48 30.43 23.21L30.43 23.21L30.50 24.61L30.43 24.54Q27.99 24.47 23.24 24.58L23.38 24.73L23.32 24.66Q23.25 30.54 22.11 35.53L22.11 35.52L22.16 35.57Q19.92 36.23 18.44 37.03L18.56 37.15L18.56 37.15Q20.86 30.32 20.60 23.20L20.45 23.06L20.49 23.10Q20.30 16.01 17.63 9.35L17.56 9.27L17.61 9.32Q21.20 11.78 25.96 12.00L25.98 12.03L26.13 12.17Q30.66 12.21 34.81 10.46L34.81 10.46L34.85 10.50Q34.57 11.32 34.34 12.12L34.29 12.07L33.89 13.76L33.87 13.75Q31.16 14.84 28.19 15.00L28.11 14.91L28.10 14.90Q25.29 15.18 22.44 14.45L22.47 14.48L22.32 14.34Q23.11 17.83 23.30 21.83ZM35.54 9.86L35.43 9.74L35.45 9.76Q30.86 11.91 25.99 11.61L25.96 11.58L26.05 11.68Q20.60 11.25 16.87 8.40L16.86 8.38L16.94 8.47Q19.90 15.50 20.21 23.11L20.11 23.02L20.16 23.07Q20.39 30.91 17.88 37.69L17.88 37.69L18.03 37.83Q18.54 37.28 19.91 36.63L19.94 36.67L19.90 36.63Q19.84 37.52 19.27 39.04L19.27 39.04L19.17 38.94Q21.58 37.96 24.47 37.46L24.42 37.41L24.44 37.44Q25.06 32.57 25.25 26.86L25.16 26.77L25.27 26.88Q26.94 26.73 28.77 26.73L28.76 26.72L28.87 26.83Q30.61 26.78 32.44 26.97L32.48 27.01L32.55 27.08Q32.44 26.14 32.44 25.22L32.45 25.23L32.43 23.31L32.41 23.28Q31.67 23.43 30.84 23.43L30.76 23.35L30.66 23.25Q30.68 22.39 30.75 21.36L30.84 21.45L30.79 21.40Q29.53 21.70 28.13 21.70L27.99 21.57L28.03 21.61Q26.72 21.71 25.35 21.67L25.31 21.63L25.23 19.42L25.24 19.43Q25.16 18.28 25.04 17.22L25.02 17.19L25.03 17.20Q26.11 17.37 27.10 17.37L27.05 17.31L26.96 17.23Q31.71 17.22 35.33 15.32L35.31 15.30L35.41 15.40Q35.85 13.51 36.76 10.89L36.88 11.00L36.81 10.94Q35.56 11.82 34.76 12.16L34.80 12.20L34.62 12.02Q34.99 11.36 35.49 9.80Z"/><path fill="#111" d="M164.08 35.30L164.23 35.45L164.25 35.47Q160.13 35.65 159.14 33.33L159.10 33.30L159.10 33.29Q159.80 32.28 161.36 30.49L161.51 30.64L161.50 30.63Q161.87 32.53 164.88 32.64L164.89 32.65L164.95 32.71Q168.22 32.67 169.85 31.33L170.03 31.51L169.87 31.35Q171.33 29.80 171.25 27.10L171.20 27.05L171.21 27.06Q171.10 22.04 166.31 22.27L166.36 22.32L166.32 22.28Q163.58 22.51 161.83 23.76L161.83 23.76L161.46 23.55L161.26 23.42L161.31 23.48Q161.65 20.31 161.53 17.57L161.40 17.43L161.35 17.39Q161.33 14.85 160.99 11.54L161.07 11.62L160.93 11.48Q164.68 12.53 168.49 12.42L168.46 12.38L168.54 12.47Q172.32 12.37 175.90 11.11L175.77 10.98L175.25 12.56L175.18 12.49Q174.93 13.30 174.74 14.14L174.70 14.10L174.71 14.10Q171.73 15.28 167.84 15.28L167.84 15.27L167.73 15.16Q166.23 15.11 164.74 14.95L164.86 15.07L164.79 15.00Q164.68 15.66 164.34 20.11L164.37 20.13L164.50 20.27Q165.33 19.80 167.39 19.65L167.31 19.58L167.34 19.61Q171.00 19.76 172.44 21.43L172.55 21.54L172.50 21.49Q173.81 22.96 174.08 26.80L174.09 26.81L174.06 26.79Q174.46 31.10 173.24 33.12L173.21 33.09L173.16 33.04Q171.11 34.91 167.80 35.14L167.89 35.23L167.89 35.23Q166.87 35.27 164.20 35.43ZM170.20 37.65L170.14 37.60L170.13 37.58Q173.72 37.82 175.62 36.72L175.50 36.60L175.61 36.71Q176.58 35.16 176.58 33.07L176.54 33.03L176.44 32.93Q176.46 29.87 175.51 25.76L175.51 25.76L175.54 25.79Q175.25 24.13 174.03 22.72L173.90 22.59L174.03 22.76L173.85 22.50L173.49 22.29L173.50 22.30Q173.13 21.51 172.48 20.82L172.44 20.78L172.53 20.91L172.46 20.84Q170.91 19.14 167.21 19.14L167.34 19.26L166.98 19.17L167.00 19.19Q167.01 18.55 167.20 17.45L167.33 17.58L167.21 17.46Q172.17 17.54 176.21 15.91L176.34 16.04L176.39 16.09Q176.64 14.51 177.59 11.69L177.62 11.73L175.59 12.74L175.67 12.82Q175.90 11.53 176.40 10.39L176.39 10.39L176.52 10.51Q172.58 11.87 168.47 11.94L168.40 11.87L168.55 12.02Q164.39 12.09 160.43 10.98L160.33 10.89L160.36 10.92Q161.11 15.39 161.11 19.81L161.14 19.84L161.04 19.73Q161.12 21.72 161.01 23.63L160.98 23.60L161.01 23.63Q161.30 23.85 161.87 24.15L161.87 24.15L161.83 24.10Q162.21 23.92 162.86 23.58L162.82 23.54L162.77 23.49Q162.86 24.38 162.64 25.90L162.51 25.78L162.55 25.82Q163.06 26.10 163.48 26.33L163.49 26.34L163.42 26.27Q166.25 24.57 168.12 24.57L168.00 24.45L168.10 24.56Q169.37 24.49 170.55 25.14L170.63 25.21L170.53 25.11Q170.88 26.15 170.91 27.10L170.99 27.18L170.94 27.12Q171.03 29.73 170.01 30.84L169.99 30.82L170.02 30.85Q168.53 31.95 166.28 32.18L166.32 32.21L166.31 32.21Q165.44 32.36 164.75 32.28L164.76 32.29L164.67 32.20Q163.88 32.13 163.12 31.79L163.08 31.76L163.11 31.60L163.04 31.75L163.07 31.78Q162.18 31.20 161.65 29.86L161.61 29.83L161.60 29.82Q160.33 31.29 158.66 33.42L158.57 33.33L158.57 33.33Q158.87 33.97 159.70 34.92L159.76 34.98L159.83 35.05Q160.92 36.90 163.74 37.40L163.65 37.31L163.63 37.29Q164.86 37.57 170.23 37.68Z"/><path fill="#222" d="M53.75 35.15L53.88 35.27L51.34 28.29L51.48 28.43Q47.07 15.79 41.13 9.39L40.98 9.24L41.11 9.38Q43.14 10.46 45.73 11.06L45.64 10.97L45.62 10.95Q50.80 17.27 55.14 30.03L55.09 29.97L55.11 30.00Q58.18 21.91 58.86 20.31L58.88 20.33L58.79 20.24Q61.37 14.82 64.18 11.51L64.01 11.34L64.18 11.51Q66.21 11.10 68.84 10.23L68.78 10.17L68.85 10.24Q64.20 14.76 61.15 21.99L61.21 22.05L61.24 22.08Q59.69 25.59 56.00 35.11L56.10 35.21L56.15 35.26Q55.60 35.29 55.03 35.25L54.99 35.21L54.91 35.13Q54.32 35.11 53.75 35.14ZM58.85 37.66L58.76 37.57L58.79 37.60Q61.53 27.55 63.10 23.52L63.10 23.52L63.10 23.52Q66.22 15.95 70.64 11.07L70.61 11.04L70.65 11.08Q69.57 11.41 67.47 12.13L67.50 12.16L68.51 10.69L68.65 10.83Q69.16 10.09 69.77 9.45L69.74 9.41L69.87 9.54Q66.98 10.47 63.98 11.04L63.95 11.01L63.95 11.01Q59.64 16.41 55.76 27.87L55.74 27.85L55.60 27.70Q51.94 17.58 48.75 13.20L48.81 13.27L48.76 13.22Q48.48 13.24 47.60 13.09L47.51 12.99L47.56 13.05Q47.37 12.71 45.77 10.65L45.67 10.55L45.81 10.69Q42.75 9.87 40.05 8.46L40.09 8.50L40.17 8.59Q46.65 15.53 51.03 28.32L51.12 28.41L51.13 28.41Q52.29 32.01 53.47 35.59L53.40 35.52L53.54 35.66Q53.95 35.76 54.78 35.65L54.76 35.63L54.76 35.62Q55.10 36.31 55.79 37.64L55.76 37.61L55.66 37.51Q56.48 37.42 57.21 37.50L57.33 37.62L57.26 37.56Q58.09 37.66 58.86 37.66Z"/><path fill="#111" d="M114.12 22.23L114.16 22.27L114.03 22.14Q114.81 22.12 116.21 21.97L116.27 22.02L116.21 21.96Q116.29 22.73 116.29 23.37L116.15 23.23L116.25 24.59L116.31 24.65Q115.32 24.50 114.49 24.58L114.59 24.68L114.55 24.64Q113.67 24.64 112.83 24.60L112.96 24.73L112.79 24.56Q109.99 30.78 106.57 35.39L106.64 35.46L106.66 35.49Q104.12 36.10 102.82 36.71L102.74 36.63L102.87 36.76Q106.95 31.02 110.00 24.74L109.85 24.59L107.30 24.66L107.34 24.70Q107.30 23.33 107.19 22.00L107.21 22.03L107.26 22.08Q109.08 22.14 111.13 22.14L111.11 22.11L113.09 18.50L113.01 18.42Q114.03 16.55 115.25 14.95L115.34 15.04L115.30 15.00Q113.78 15.20 112.18 15.20L112.11 15.12L112.11 15.12Q106.09 15.19 102.32 12.98L102.34 13.00L101.61 11.21L101.54 11.14Q101.30 10.41 100.92 9.53L100.92 9.53L100.79 9.40Q105.24 12.13 110.95 12.36L110.97 12.39L111.01 12.42Q116.14 12.64 121.28 10.66L121.27 10.66L121.12 10.50Q120.98 10.97 120.48 11.84L120.60 11.96L120.49 11.86Q116.99 16.73 114.13 22.25ZM122.13 13.26L122.07 13.21L123.04 11.17L123.20 11.33Q122.24 11.81 120.57 12.54L120.57 12.54L120.62 12.10L120.64 12.12Q120.89 12.10 121.01 11.99L120.83 11.81L120.82 11.80Q121.23 11.15 121.95 9.81L121.92 9.78L122.08 9.94Q116.64 12.12 110.89 11.89L111.00 12.00L110.90 11.89Q104.90 11.64 100.14 8.67L100.19 8.73L100.23 8.76Q101.24 10.61 102.07 13.27L102.11 13.31L101.96 13.16Q103.16 13.90 103.96 14.20L103.94 14.18L103.87 14.12Q104.17 14.61 104.63 16.47L104.49 16.34L104.49 16.34Q107.62 17.56 113.14 17.41L113.20 17.47L113.15 17.42Q112.98 18.12 111.00 21.89L110.88 21.78L111.00 21.89Q108.96 21.91 106.98 21.72L106.97 21.71L106.86 21.59Q106.94 22.44 106.94 23.31L106.99 23.37L106.90 24.99L108.57 24.99L108.56 26.39L108.68 26.50Q104.63 33.76 101.85 37.34L101.85 37.34L102.00 37.48Q103.46 36.58 105.09 36.09L105.10 36.09L105.15 36.15Q104.41 37.00 103.04 38.72L103.05 38.73L103.09 38.76Q106.22 37.64 108.66 37.41L108.67 37.41L108.79 37.53Q111.65 33.69 114.77 26.92L114.76 26.90L118.15 27.06L118.18 27.10Q118.07 26.15 118.07 25.23L118.06 25.22L118.09 23.46L118.05 23.42Q117.94 23.58 117.38 23.61L117.27 23.50L117.36 23.59Q116.73 23.55 116.47 23.55L116.58 23.66L116.49 23.57Q116.48 23.45 116.52 23.30L116.59 23.37L116.51 23.03L116.44 22.95Q119.05 17.91 122.13 13.27Z"/></svg>