<svg xmlns="http://www.w3.org/2000/svg" width="200" height="40" viewBox="0,0,200,40"><path fill="#333" d="M45.58 34.05L45.47 33.95L45.40 33.88Q47.33 31.54 52.09 24.27L52.11 24.30L52.17 24.35Q56.14 18.09 59.00 14.81L59.06 14.87L59.06 14.88Q56.95 15.16 54.86 15.16L54.74 15.05L54.83 15.14Q49.60 15.16 45.60 13.37L45.53 13.30L45.54 13.30Q44.96 11.47 44.27 9.91L44.27 9.91L44.29 9.93Q48.85 12.09 54.52 12.20L54.40 12.08L54.41 12.09Q59.48 12.10 64.66 10.19L64.84 10.38L64.75 10.29Q64.46 11.22 64.16 12.02L63.99 11.85L63.49 13.52L63.43 13.46Q60.49 17.22 56.50 23.05L56.44 22.99L53.11 27.81L53.05 27.75Q51.41 30.22 49.58 32.50L49.56 32.48L49.58 32.50Q52.91 31.91 56.22 31.98L56.27 32.04L56.24 32.00Q59.52 32.05 62.68 32.96L62.75 33.03L63.24 34.62L63.29 34.68Q63.53 35.48 63.87 36.32L63.71 36.16L63.83 36.29Q59.11 34.65 53.97 34.84L53.91 34.77L53.91 34.77Q48.88 35.08 44.39 37.09L44.30 37.00L44.30 37.00Q44.70 35.95 45.42 33.90ZM43.87 37.86L43.78 37.78L43.88 37.88Q45.02 37.19 45.82 36.93L45.78 36.89L45.79 36.90Q45.51 37.65 44.83 39.17L44.84 39.18L44.82 39.16Q50.64 37.13 56.61 37.36L56.46 37.21L56.55 37.30Q62.92 37.58 67.94 40.36L67.84 40.26L67.87 40.28Q66.45 37.87 65.65 35.70L65.61 35.66L65.64 35.69Q65.27 35.59 63.75 35.02L63.68 34.95L63.73 35.00Q63.44 34.14 63.02 32.66L63.01 32.65L63.07 32.70Q58.80 31.40 53.69 31.59L53.74 31.64L53.88 31.77Q55.92 28.94 59.46 23.39L59.48 23.40L59.46 23.39Q63.14 17.70 65.04 15.15L64.94 15.05L65.05 15.16Q65.58 13.78 66.61 11.08L66.46 10.93L66.59 11.06Q65.82 11.32 64.38 11.93L64.48 12.04L64.38 11.93Q64.82 11.23 65.54 9.70L65.43 9.60L65.56 9.73Q60.10 11.73 54.39 11.65L54.42 11.68L54.44 11.70Q48.44 11.56 43.49 9.05L43.61 9.17L43.42 8.98Q44.60 11.37 45.32 13.62L45.38 13.68L45.34 13.64Q46.53 14.26 47.33 14.49L47.24 14.40L47.22 14.38Q47.53 15.11 47.80 16.55L47.72 16.48L47.81 16.57Q51.52 17.61 56.39 17.42L56.39 17.42L56.39 17.42Q54.10 20.73 50.79 25.72L50.66 25.59L45.25 34.03L45.16 33.95Q44.80 35.22 43.77 37.77Z"/><path fill="#444" d="M130.41 34.03L130.25 33.87L130.27 33.89Q132.13 31.48 136.88 24.21L137.02 24.35L136.94 24.26Q140.96 18.04 143.81 14.77L143.91 14.87L143.92 14.88Q141.78 15.13 139.68 15.13L139.62 15.07L139.73 15.18Q134.49 15.19 130.49 13.40L130.43 13.34L130.40 13.31Q129.72 11.38 129.04 9.82L129.04 9.82L129.06 9.84Q133.53 11.91 139.20 12.03L139.20 12.02L139.21 12.03Q144.40 12.16 149.58 10.26L149.64 10.32L149.52 10.20Q149.22 11.11 148.91 11.91L148.90 11.90L148.45 13.62L148.39 13.57Q145.31 17.18 141.31 23.00L141.27 22.96L137.97 27.81L138.01 27.85Q136.28 30.23 134.45 32.52L134.38 32.45L134.51 32.57Q137.68 31.82 140.99 31.90L141.09 32.00L141.07 31.98Q144.41 32.08 147.57 33.00L147.60 33.02L148.18 34.71L148.02 34.55Q148.28 35.38 148.62 36.22L148.59 36.19L148.70 36.29Q143.88 34.56 138.74 34.75L138.75 34.75L138.74 34.75Q133.66 34.99 129.17 37.01L129.22 37.07L129.25 37.10Q129.55 35.95 130.27 33.89ZM128.65 37.79L128.57 37.71L128.71 37.85Q129.88 37.19 130.68 36.93L130.75 36.99L130.56 36.81Q130.31 37.58 129.62 39.11L129.80 39.28L129.66 39.15Q135.35 36.99 141.33 37.22L141.45 37.34L141.33 37.22Q147.73 37.54 152.76 40.31L152.83 40.39L152.82 40.37Q151.30 37.86 150.50 35.69L150.49 35.69L150.51 35.71Q150.03 35.50 148.51 34.93L148.60 35.01L148.41 34.82Q148.40 34.25 147.98 32.76L147.98 32.76L147.88 32.66Q143.76 31.51 138.66 31.70L138.66 31.70L138.68 31.71Q140.88 29.04 144.42 23.48L144.40 23.47L144.26 23.33Q147.99 17.69 149.89 15.14L149.78 15.03L149.88 15.13Q150.30 13.64 151.33 10.94L151.39 11.01L151.48 11.10Q150.78 11.42 149.33 12.03L149.23 11.93L149.36 12.06Q149.59 11.14 150.31 9.62L150.40 9.70L150.41 9.72Q145.03 11.80 139.32 11.73L139.31 11.71L139.30 11.71Q133.40 11.67 128.45 9.16L128.46 9.16L128.35 9.06Q129.53 11.45 130.25 13.70L130.20 13.65L130.25 13.70Q131.31 14.18 132.11 14.41L132.11 14.41L132.23 14.53Q132.41 15.13 132.68 16.58L132.74 16.64L132.67 16.57Q136.50 17.73 141.37 17.54L141.30 17.47L141.18 17.36Q138.90 20.67 135.59 25.66L135.48 25.54L130.00 33.92L129.97 33.90Q129.59 35.15 128.56 37.70Z"/><path fill="#222" d="M84.36 27.14L75.03 17.04L75.07 17.09Q76.02 20.89 76.02 24.62L76.02 24.62L76.05 24.65Q75.98 30.56 73.93 36.12L73.99 36.18L73.93 36.12Q72.87 36.39 70.62 37.15L70.57 37.10L70.62 37.15Q73.49 31.42 73.49 24.72L73.37 24.60L73.46 24.69Q73.46 16.04 68.96 8.62L68.88 8.53L68.98 8.64Q69.33 8.72 70.02 9.14L70.00 9.12L70.07 9.20Q82.12 20.36 89.96 29.61L90.04 29.69L89.95 29.61Q89.70 27.22 89.70 24.78L89.73 24.82L89.71 24.80Q89.61 17.46 92.12 11.26L92.10 11.24L92.24 11.37Q94.48 10.76 96.08 10.08L96.04 10.03L96.20 10.19Q92.81 16.28 92.50 23.44L92.53 23.47L92.58 23.51Q92.15 30.74 95.12 36.91L95.11 36.89L95.12 36.90Q94.65 36.93 94.23 36.74L94.15 36.66L94.15 36.66Q89.58 32.70 84.37 27.14L84.37 27.15ZM97.72 40.08L97.80 40.16L97.76 40.12Q98.28 40.33 98.70 40.52L98.73 40.56L99.50 40.83L99.59 40.92Q94.43 33.97 94.43 24.60L94.41 24.58L94.40 24.57Q94.40 17.35 97.72 11.10L97.67 11.06L97.62 11.00Q96.96 11.22 95.55 11.83L95.58 11.86L95.66 11.94Q96.04 11.11 96.88 9.55L96.89 9.55L96.75 9.41Q94.39 10.40 91.95 10.97L91.91 10.93L91.87 10.89Q89.21 17.33 89.21 24.76L89.25 24.80L89.37 24.91Q89.31 26.72 89.50 28.70L89.56 28.76L89.40 28.59Q84.77 22.94 80.01 18.34L80.16 18.48L70.01 8.71L70.02 8.72Q69.37 8.34 68.15 7.76L68.18 7.80L68.21 7.82Q73.06 15.53 73.06 24.63L73.11 24.68L73.04 24.61Q73.04 31.73 69.96 37.75L69.90 37.69L70.06 37.85Q70.36 37.72 71.99 37.11L71.95 37.07L71.91 37.03Q71.61 37.83 70.77 39.32L70.80 39.35L70.72 39.27Q72.03 38.71 75.49 37.91L75.63 38.05L75.51 37.93Q77.98 31.95 77.98 24.75L77.97 24.74L77.89 24.66Q77.97 22.65 77.74 20.52L77.61 20.39L77.61 20.39Q89.10 33.21 97.70 40.06Z"/><path d="M20 14 C103 29,113 23,189 24" stroke="#666" fill="none"/><path fill="#333" d="M27.04 35.17L26.93 35.05L24.99 35.40L24.89 35.30Q24.53 35.39 23.56 35.45L23.41 35.30L23.37 35.26Q22.51 35.43 22.02 35.43L22.02 35.43L21.99 35.40Q20.39 35.44 19.36 34.60L19.30 34.54L19.35 34.59Q20.20 33.54 21.84 31.41L21.69 31.26L21.70 31.27Q23.05 32.92 25.26 32.70L25.22 32.65L25.34 32.78Q26.08 32.49 26.73 31.84L26.82 31.93L26.85 31.96Q27.44 31.26 27.32 30.38L27.29 30.35L27.33 30.39Q27.22 25.79 27.30 21.22L27.28 21.20L27.36 21.29Q27.41 16.69 27.95 12.09L27.94 12.07L27.90 12.03Q29.81 11.81 31.94 10.79L31.92 10.77L31.95 10.79Q30.00 17.45 30.00 24.69L29.98 24.66L30.13 24.81Q29.99 28.22 30.45 31.72L30.58 31.85L30.48 31.75Q30.61 32.15 30.61 32.49L30.52 32.40L30.59 32.47Q30.70 33.15 30.47 33.68L30.36 33.57L30.45 33.67Q29.83 34.87 27.01 35.14ZM31.94 37.96L32.01 38.04L32.37 38.05L32.47 37.74L32.79 37.68L32.90 37.79Q33.20 37.51 33.27 37.40L33.21 37.33L33.12 37.25Q33.32 36.07 33.05 35.08L33.15 35.18L33.06 35.09Q31.75 29.32 32.01 22.97L32.05 23.00L32.00 22.95Q32.34 16.93 34.13 11.03L34.10 11.00L34.06 10.97Q33.14 11.57 31.89 12.30L31.98 12.39L31.84 12.25Q32.23 11.68 32.65 10.16L32.63 10.14L32.64 10.16Q30.10 11.46 27.44 11.76L27.27 11.60L27.35 11.68Q27.05 16.14 26.98 21.09L26.89 21.00L27.01 21.12Q26.89 26.98 26.97 30.41L26.97 30.41L26.97 30.40Q26.92 32.08 25.17 32.23L25.34 32.39L25.28 32.34Q23.53 32.41 21.85 30.77L21.80 30.72L21.82 30.75Q19.86 33.35 18.90 34.91L18.76 34.77L18.86 34.86Q19.43 35.44 20.46 35.67L20.42 35.63L20.58 35.79Q20.39 35.82 20.13 36.05L20.09 36.01L20.12 36.04Q21.65 37.08 23.63 37.35L23.52 37.24L23.67 37.39Q23.99 37.36 27.28 37.67L27.27 37.65L27.27 37.65Q30.50 37.89 31.87 37.89Z"/><path fill="#111" d="M166.78 24.17L166.73 24.12L166.79 24.18Q164.99 24.24 163.77 25.57L163.73 25.53L163.62 25.42Q162.57 26.92 162.42 28.83L162.27 28.68L162.42 28.83Q162.25 30.98 163.47 31.99L163.45 31.97L163.45 31.97Q164.58 32.89 166.71 32.81L166.82 32.92L166.66 32.76Q169.07 32.70 170.02 31.75L169.96 31.68L170.02 31.74Q170.96 30.21 170.84 28.38L170.94 28.48L170.84 28.38Q170.87 26.66 169.79 25.46L169.71 25.38L169.68 25.35Q168.71 24.27 166.88 24.27ZM166.80 14.78L166.85 14.84L166.78 14.76Q165.42 14.70 164.09 15.20L164.10 15.20L164.10 15.20Q162.69 15.89 162.92 17.75L162.98 17.82L163.03 17.86Q163.43 21.50 166.78 21.50L166.81 21.53L166.73 21.45Q168.45 21.80 169.44 20.66L169.37 20.59L169.32 20.54Q170.35 19.43 170.38 17.87L170.38 17.86L170.32 17.81Q170.47 16.13 169.74 15.52L169.79 15.56L169.78 15.56Q168.11 14.73 166.82 14.80ZM166.58 35.38L166.42 35.23L163.37 35.22L163.51 35.36Q161.88 35.25 160.54 34.38L160.68 34.52L160.51 34.34Q159.16 33.22 159.31 30.36L159.33 30.38L159.44 30.49Q159.86 23.60 163.47 22.61L163.48 22.61L163.36 22.50Q161.20 21.70 159.86 16.34L159.79 16.26L159.81 16.28Q159.40 14.81 159.48 14.01L159.58 14.11L159.61 14.14Q159.92 12.01 163.61 11.97L163.48 11.85L163.57 11.94Q167.84 11.90 169.29 12.09L169.15 11.95L169.18 11.99Q173.03 12.52 173.49 14.54L173.53 14.59L173.54 14.59Q173.64 15.19 173.64 15.57L173.71 15.64L173.68 15.61Q173.56 16.18 173.37 16.79L173.37 16.79L173.52 16.93Q172.79 21.04 169.86 22.56L169.98 22.68L169.83 22.54Q173.44 23.44 173.93 28.73L174.00 28.80L173.90 28.70Q174.00 28.95 174.04 30.25L173.99 30.20L174.02 30.23Q174.00 32.87 172.40 33.94L172.37 33.91L172.38 33.92Q171.00 34.78 166.43 35.23ZM168.77 37.62L168.69 37.54L172.04 37.61L172.09 37.66Q173.83 37.76 175.35 37.04L175.30 36.99L175.46 37.15Q176.45 36.27 176.53 34.41L176.56 34.44L176.69 34.57Q176.67 33.41 176.29 31.47L176.30 31.48L176.24 31.42Q175.31 26.76 173.22 24.90L173.34 25.01L172.96 24.44L172.83 24.24L172.72 24.02L172.70 23.99Q174.31 22.59 175.22 18.44L175.28 18.50L175.28 18.51Q175.20 18.05 175.28 17.21L175.36 17.29L175.37 17.30Q175.36 16.52 175.28 15.91L175.37 16.00L175.37 16.00Q175.11 14.45 173.93 13.96L173.93 13.96L174.08 14.07L173.75 13.81L173.87 13.93Q173.63 13.24 172.45 12.44L172.32 12.31L172.47 12.42L172.52 12.47Q170.48 11.73 166.41 11.54L166.41 11.54L166.35 11.48Q164.88 11.45 163.51 11.56L163.52 11.58L163.40 11.46Q162.60 11.50 161.31 11.65L161.32 11.66L161.38 11.72Q159.41 12.08 159.18 13.71L159.19 13.72L159.29 13.82Q159.05 14.12 159.09 14.91L159.19 15.02L159.16 14.98Q159.28 15.52 159.85 17.88L159.90 17.93L159.91 17.94Q160.71 21.18 162.46 22.51L162.51 22.57L162.40 22.45L162.41 22.46Q159.69 23.82 159.16 29.00L159.18 29.01L159.17 29.01Q159.08 31.31 159.08 32.22L159.01 32.16L159.08 32.23Q159.01 33.87 160.19 34.78L160.16 34.75L160.35 34.95Q160.33 34.88 160.59 35.07L160.62 35.10L160.60 35.08Q161.66 37.39 168.78 37.62ZM168.54 26.65L168.49 26.59L168.38 26.49Q169.31 26.43 170.19 26.89L170.25 26.95L170.20 26.90Q170.56 27.87 170.53 28.41L170.50 28.38L170.65 28.53Q170.54 28.69 170.54 28.99L170.71 29.16L170.55 29.00Q170.61 31.42 168.33 32.26L168.27 32.20L168.42 32.35Q167.51 32.54 166.71 32.43L166.73 32.45L166.70 32.42Q165.71 32.65 164.56 32.19L164.41 32.03L164.55 32.18Q164.21 31.45 164.28 30.46L164.30 30.48L164.33 30.51Q164.42 28.85 165.62 27.63L165.71 27.72L165.55 27.57Q166.87 26.46 168.47 26.57ZM168.59 16.99L168.63 17.03L168.72 17.12Q169.45 16.94 169.98 17.09L170.03 17.14L170.02 17.93L169.94 17.85Q170.09 19.40 169.17 20.41L169.05 20.29L169.18 20.42Q168.25 21.41 166.88 21.22L166.82 21.16L166.73 21.07Q165.74 21.07 165.32 20.84L165.40 20.92L165.43 20.95Q165.40 20.70 165.29 20.01L165.25 19.97L165.15 19.87Q164.93 18.51 166.15 17.67L166.12 17.64L166.19 17.72Q167.32 17.09 168.73 17.13Z"/><path d="M21 11 C120 36,98 20,184 27" stroke="#999" fill="none"/><path fill="#444" d="M107.51 14.39L107.49 14.36L107.45 14.33Q108.39 18.65 108.54 22.23L108.53 22.22L108.48 22.17Q109.57 22.23 110.63 22.23L110.59 22.18L112.82 22.21L112.84 22.23Q113.98 22.30 114.86 20.89L114.70 20.74L114.85 20.89Q115.58 19.71 115.69 18.53L115.60 18.44L115.69 18.53Q115.98 15.44 111.76 14.94L111.66 14.84L111.79 14.98Q110.18 15.00 107.56 14.43ZM108.58 25.01L108.44 24.88L108.55 24.98Q108.51 31.22 107.36 35.63L107.27 35.54L107.27 35.55Q105.87 36.00 103.54 37.07L103.56 37.09L103.46 36.98Q105.99 30.49 105.72 23.22L105.69 23.19L105.69 23.19Q105.24 15.66 102.46 9.22L102.60 9.36L102.56 9.32Q106.60 11.99 112.84 11.99L112.94 12.09L112.98 12.13Q118.98 12.07 119.13 15.54L119.15 15.56L119.04 15.45Q119.19 17.96 118.20 20.62L118.26 20.68L118.15 20.58Q117.84 21.79 116.89 23.01L116.86 22.97L116.81 22.93Q115.63 24.68 113.08 24.95L113.09 24.95L112.96 24.83Q110.83 24.98 108.58 25.02ZM114.60 27.15L114.59 27.14L114.72 27.27Q118.90 27.52 120.15 22.73L120.12 22.69L120.11 22.69Q121.04 19.01 120.89 16.99L120.77 16.87L120.92 17.02Q120.72 15.41 119.96 14.42L119.90 14.36L120.07 14.53Q119.70 14.17 119.21 13.94L119.16 13.89L119.15 13.88Q119.12 13.70 118.51 12.94L118.63 13.05L118.60 13.03Q116.91 11.56 112.95 11.56L112.92 11.54L112.93 11.54Q106.09 11.60 101.87 8.44L101.85 8.42L101.93 8.50Q105.15 15.64 105.42 23.10L105.22 22.91L105.37 23.05Q105.60 30.67 102.94 37.75L103.06 37.88L102.92 37.73Q103.93 37.03 104.92 36.65L105.05 36.79L104.66 37.92L104.58 37.83Q104.43 38.45 104.17 39.02L104.10 38.96L104.13 38.98Q106.52 37.92 109.42 37.38L109.55 37.52L109.43 37.40Q110.39 32.00 110.47 27.28L110.45 27.26L110.41 27.23Q111.48 27.11 112.47 27.11L112.55 27.19L112.45 27.09Q113.80 27.11 114.60 27.14ZM113.60 17.17L113.74 17.30L113.60 17.17Q114.22 17.29 115.21 17.51L115.13 17.44L115.14 17.45Q115.26 17.68 115.30 17.99L115.35 18.04L115.42 18.11Q115.43 18.35 115.35 18.61L115.38 18.64L115.35 18.61Q115.14 19.73 114.41 20.60L114.36 20.55L114.42 20.61Q113.95 21.78 112.92 21.97L112.77 21.82L112.77 21.82Q112.03 21.80 110.39 21.80L110.42 21.83L110.41 21.81Q110.49 19.65 110.26 17.29L110.25 17.28L111.86 17.22L112.01 17.37Q112.75 17.26 113.62 17.19Z"/></svg>