<svg xmlns="http://www.w3.org/2000/svg" width="200" height="40" viewBox="0,0,200,40"><path fill="#333" d="M51.00 24.56L51.10 24.65L51.02 24.58Q51.07 28.89 50.35 33.04L50.36 33.06L50.27 32.96Q52.56 32.43 55.64 32.32L55.73 32.40L55.77 32.45Q56.98 32.52 58.05 31.51L58.07 31.53L58.07 31.53Q59.25 30.63 59.25 29.30L59.21 29.26L59.07 29.12Q59.22 28.97 59.19 28.71L59.14 28.66L59.11 28.63Q58.95 25.69 56.70 24.85L56.71 24.86L56.68 24.83Q55.92 24.53 55.24 24.61L55.25 24.62L55.25 24.62Q54.19 24.55 53.16 24.58L53.27 24.69L53.12 24.55Q52.07 24.59 51.04 24.59ZM49.81 14.16L49.85 14.20L49.92 14.27Q50.75 17.53 51.01 21.90L51.03 21.92L51.08 21.97Q52.43 21.99 55.09 22.03L55.19 22.12L55.06 22.00Q58.02 22.06 58.36 18.52L58.40 18.55L58.42 18.57Q58.62 16.64 57.21 15.80L57.25 15.85L57.10 15.70Q56.18 15.15 51.76 14.50L51.93 14.68L51.83 14.57Q50.73 14.39 49.82 14.16ZM46.16 37.04L46.27 37.14L46.14 37.02Q48.60 30.34 48.34 22.96L48.39 23.01L48.35 22.97Q48.18 15.79 45.24 9.32L45.25 9.33L45.25 9.32Q48.98 11.80 55.20 12.05L55.19 12.03L55.13 11.97Q61.53 12.40 61.87 15.29L61.72 15.13L61.79 15.21Q62.09 17.94 60.68 20.61L60.74 20.67L60.78 20.70Q60.05 22.22 58.45 22.91L58.34 22.80L58.41 22.87Q61.96 23.44 62.19 28.81L62.31 28.93L62.19 28.81Q62.32 29.97 62.24 31.38L62.33 31.47L62.27 31.41Q62.21 32.72 61.27 33.65L61.19 33.56L61.20 33.58Q60.30 34.54 58.97 34.69L58.91 34.63L59.02 34.75Q57.57 34.86 56.51 34.86L56.41 34.76L56.47 34.82Q50.67 34.73 46.14 37.01ZM59.04 37.43L58.96 37.35L58.94 37.33Q59.92 37.43 61.78 37.55L61.90 37.67L61.78 37.55Q63.20 37.59 64.30 36.72L64.28 36.70L64.42 36.84Q65.21 35.91 65.09 34.35L64.98 34.23L64.93 34.18Q64.85 33.23 64.13 29.77L64.17 29.81L64.26 29.90Q63.62 26.71 61.76 25.23L61.63 25.10L61.30 24.34L61.28 24.33Q62.88 22.84 63.45 19.07L63.40 19.03L63.58 19.20Q63.61 17.94 63.54 16.53L63.66 16.65L63.50 16.50Q63.59 15.33 62.48 14.49L62.50 14.51L62.48 14.49Q62.05 14.18 61.94 14.14L62.03 14.23L61.89 14.08Q61.78 13.71 60.94 12.91L60.91 12.88L60.94 12.91Q59.39 11.81 55.16 11.62L55.15 11.61L55.06 11.53Q48.45 11.27 44.45 8.38L44.61 8.53L44.57 8.49Q47.74 15.40 48.05 22.93L48.20 23.09L48.15 23.04Q48.37 30.75 45.55 37.68L45.65 37.78L47.73 36.85L47.69 36.81Q47.25 37.90 46.76 39.04L46.92 39.20L46.87 39.16Q51.17 37.29 56.20 37.29L56.18 37.27L56.06 37.15Q57.65 37.33 59.09 37.48ZM56.85 26.83L56.81 26.79L56.86 26.84Q57.54 26.72 58.46 27.18L58.58 27.30L58.49 27.21Q58.71 27.66 58.86 28.73L58.87 28.73L58.69 28.55Q59.02 30.06 58.08 31.10L58.05 31.07L57.94 30.96Q57.05 32.05 55.64 31.94L55.61 31.90L54.15 32.05L54.24 32.13Q53.36 32.06 52.64 32.17L52.70 32.23L52.78 32.31Q52.99 30.39 53.06 26.92L53.10 26.96L53.16 27.02Q53.80 26.93 55.05 26.89L54.97 26.81L55.02 26.86Q56.21 26.76 56.82 26.80ZM55.79 17.20L55.88 17.29L56.24 17.27L56.25 17.28Q56.48 17.28 56.67 17.32L56.74 17.39L57.05 17.32L57.35 17.43L58.07 17.62L58.08 17.62Q58.01 17.70 58.01 18.01L57.97 17.97L58.00 18.54L58.14 18.68Q58.07 19.86 57.19 20.79L57.13 20.73L57.28 20.88Q56.23 21.64 55.01 21.64L55.05 21.68L55.13 21.76Q54.07 21.72 54.07 21.72L54.06 21.71L54.06 21.72Q52.81 21.76 53.15 21.76L53.14 21.75L53.13 21.74Q53.03 20.15 52.72 17.10L52.71 17.09L52.70 17.08Q54.25 17.18 55.77 17.18Z"/><path d="M20 12 C95 4,96 8,193 28" stroke="#111" fill="none"/><path fill="#111" d="M135.79 14.38L135.76 14.35L135.77 14.36Q136.64 18.62 136.79 22.20L136.70 22.11L136.72 22.13Q137.93 22.31 139.00 22.31L138.91 22.22L141.09 22.19L141.20 22.31Q142.20 22.24 143.08 20.83L143.10 20.85L143.11 20.86Q143.81 19.66 143.93 18.48L143.94 18.49L143.97 18.53Q144.22 15.38 139.99 14.89L139.96 14.86L140.06 14.95Q138.34 14.87 135.71 14.30ZM136.84 24.99L136.80 24.95L136.80 24.95Q136.76 31.19 135.62 35.60L135.68 35.67L135.61 35.60Q134.10 35.95 131.78 37.01L131.78 37.02L131.89 37.13Q134.16 30.37 133.89 23.10L133.85 23.06L133.83 23.04Q133.67 15.81 130.90 9.37L130.85 9.32L130.92 9.39Q134.91 12.02 141.16 12.02L141.26 12.13L141.23 12.10Q147.25 12.06 147.41 15.53L147.44 15.56L147.48 15.60Q147.45 17.93 146.46 20.60L146.49 20.63L146.46 20.60Q146.00 21.66 145.05 22.88L145.05 22.87L145.10 22.92Q143.82 24.58 141.27 24.85L141.30 24.87L141.25 24.83Q139.09 24.96 136.85 24.99ZM142.94 27.20L143.00 27.26L142.84 27.11Q147.13 27.47 148.39 22.68L148.26 22.55L148.36 22.64Q149.30 18.98 149.15 16.97L149.20 17.01L149.23 17.05Q148.97 15.38 148.21 14.39L148.32 14.50L148.18 14.36Q147.94 14.12 147.45 13.89L147.46 13.91L147.33 13.77Q147.36 13.65 146.75 12.89L146.75 12.90L146.90 13.04Q145.24 11.61 141.28 11.61L141.35 11.68L141.28 11.61Q134.34 11.56 130.11 8.40L130.25 8.53L130.26 8.55Q133.25 15.46 133.52 22.92L133.52 22.92L133.61 23.01Q133.81 30.60 131.15 37.68L131.17 37.71L131.21 37.75Q132.21 37.03 133.20 36.65L133.29 36.74L132.90 37.87L132.92 37.90Q132.66 38.40 132.40 38.97L132.47 39.04L132.38 38.95Q134.85 37.96 137.75 37.43L137.86 37.54L137.84 37.52Q138.59 31.92 138.67 27.19L138.66 27.18L138.61 27.14Q139.87 27.22 140.86 27.22L140.85 27.21L140.86 27.22Q142.08 27.11 142.88 27.14ZM142.07 17.35L141.94 17.21L142.02 17.30Q142.54 17.33 143.53 17.56L143.44 17.46L143.42 17.44Q143.67 17.81 143.71 18.11L143.62 18.03L143.54 17.94Q143.59 18.22 143.52 18.49L143.55 18.52L143.49 18.46Q143.39 19.70 142.67 20.58L142.66 20.56L142.65 20.55Q142.26 21.80 141.23 21.99L141.16 21.92L141.21 21.97Q140.32 21.80 138.68 21.80L138.67 21.79L138.80 21.93Q138.67 19.55 138.44 17.19L138.48 17.22L140.31 17.38L140.23 17.30Q141.01 17.24 141.88 17.16Z"/><path d="M20 2 C98 21,119 17,184 36" stroke="#111" fill="none"/><path fill="#333" d="M73.85 34.04L73.75 33.94L73.84 34.04Q75.60 31.53 80.36 24.26L80.30 24.20L80.40 24.30Q84.39 18.05 87.24 14.77L87.39 14.92L87.35 14.88Q85.26 15.19 83.17 15.19L83.07 15.09L83.11 15.13Q77.84 15.12 73.84 13.33L73.76 13.24L73.90 13.38Q73.10 11.32 72.41 9.76L72.50 9.85L72.53 9.88Q77.00 11.95 82.67 12.06L82.81 12.21L82.77 12.17Q87.85 12.18 93.03 10.28L93.10 10.35L93.11 10.36Q92.68 11.15 92.37 11.95L92.43 12.00L91.88 13.62L91.74 13.48Q88.72 17.17 84.73 22.99L84.68 22.94L81.40 27.81L81.43 27.84Q79.68 30.21 77.86 32.49L77.96 32.60L77.88 32.51Q81.24 31.95 84.55 32.03L84.50 31.97L84.42 31.90Q87.91 32.16 91.07 33.07L91.07 33.07L91.55 34.65L91.49 34.59Q91.83 35.50 92.18 36.34L92.07 36.24L92.04 36.20Q87.40 34.65 82.26 34.84L82.18 34.76L82.25 34.83Q77.09 35.00 72.60 37.02L72.64 37.06L72.60 37.02Q72.96 35.93 73.68 33.87ZM72.07 37.78L72.13 37.85L71.99 37.70Q73.21 37.09 74.01 36.83L74.06 36.88L74.06 36.88Q73.87 37.72 73.18 39.24L73.13 39.19L73.12 39.18Q78.88 37.10 84.86 37.32L84.86 37.32L84.91 37.37Q91.20 37.57 96.23 40.35L96.08 40.21L96.11 40.24Q94.82 37.96 94.02 35.79L93.99 35.76L93.98 35.75Q93.48 35.51 91.96 34.94L91.89 34.88L91.98 34.96Q91.71 34.13 91.29 32.64L91.29 32.64L91.28 32.63Q87.17 31.49 82.07 31.68L82.06 31.67L82.17 31.78Q84.26 29.00 87.80 23.44L87.80 23.44L87.68 23.31Q91.45 17.73 93.36 15.18L93.27 15.09L93.41 15.23Q93.71 13.63 94.74 10.93L94.83 11.02L94.89 11.07Q94.07 11.28 92.62 11.89L92.61 11.88L92.74 12.00Q92.96 11.08 93.68 9.56L93.82 9.70L93.78 9.66Q88.39 11.73 82.68 11.66L82.78 11.75L82.63 11.60Q76.76 11.60 71.81 9.09L71.86 9.13L71.80 9.08Q73.03 11.52 73.75 13.77L73.68 13.69L73.62 13.63Q74.81 14.26 75.61 14.49L75.62 14.50L75.62 14.49Q75.77 15.06 76.03 16.51L76.11 16.58L76.06 16.53Q79.74 17.55 84.61 17.35L84.76 17.50L84.64 17.38Q82.36 20.70 79.04 25.68L79.08 25.72L73.53 34.03L73.49 33.98Q73.19 35.32 72.16 37.87Z"/><path fill="#222" d="M166.95 14.61L167.07 14.73L167.07 14.73Q165.08 14.83 164.13 14.98L164.05 14.91L164.02 14.88Q162.47 15.19 161.25 15.73L161.18 15.65L161.23 15.70Q157.74 17.16 157.62 21.84L157.68 21.90L157.68 21.90Q157.59 24.55 158.24 27.48L158.21 27.46L158.27 27.51Q159.07 31.47 162.68 32.65L162.74 32.71L162.61 32.58Q164.67 33.31 166.12 33.15L166.02 33.06L166.40 32.98L166.35 32.93Q166.63 33.02 166.82 33.06L166.88 33.12L166.89 33.13Q166.91 33.00 167.07 32.96L167.05 32.95L167.10 33.00Q169.70 32.70 171.07 32.13L171.15 32.21L167.45 28.55L167.45 28.55Q167.86 28.31 168.47 27.70L168.42 27.65L169.36 26.76L169.38 26.79Q171.24 28.87 173.22 30.93L173.19 30.89L173.12 30.83Q175.51 29.07 175.78 23.71L175.74 23.66L175.74 23.66Q175.78 22.72 175.78 21.81L175.86 21.88L175.98 22.00Q175.96 16.31 170.90 15.21L170.90 15.21L170.82 15.13Q169.44 14.74 166.93 14.59ZM179.79 36.74L179.77 36.72L179.68 36.63Q179.21 37.18 178.03 38.06L178.05 38.08L173.62 34.38L173.66 34.41Q171.11 35.56 166.85 35.60L166.94 35.69L166.76 35.51Q160.31 35.73 157.50 33.48L157.56 33.54L157.55 33.53Q155.80 31.78 155.34 28.81L155.34 28.81L155.23 28.70Q154.97 26.84 154.59 23.27L154.69 23.36L154.60 23.28Q154.68 22.63 154.57 20.88L154.48 20.80L154.50 20.81Q154.49 19.40 154.53 18.52L154.47 18.46L154.37 18.36Q154.53 15.36 156.28 13.80L156.39 13.91L156.39 13.91Q157.90 12.56 161.09 12.07L161.01 11.98L160.97 11.94Q163.56 11.67 166.45 11.75L166.40 11.69L166.47 11.77Q173.97 11.88 177.09 14.24L177.05 14.20L177.04 14.19Q179.16 16.27 178.89 21.18L178.99 21.28L178.88 21.17Q178.66 24.80 178.47 26.13L178.48 26.14L178.53 26.19Q177.99 30.79 175.67 33.11L175.64 33.08L175.64 33.08Q176.98 34.20 179.72 36.67ZM174.88 12.42L175.02 12.55L174.94 12.48Q172.89 11.72 166.38 11.23L166.37 11.22L166.42 11.26Q164.96 11.21 162.18 11.33L162.25 11.39L162.28 11.42Q158.11 11.71 155.87 13.69L155.75 13.57L155.80 13.62Q154.20 15.15 154.20 18.31L154.06 18.16L154.16 18.27Q154.11 19.05 154.26 20.76L154.34 20.85L154.25 20.75Q154.42 22.49 154.42 23.36L154.37 23.31L154.34 23.28Q154.62 25.16 155.00 28.74L154.92 28.66L155.02 28.76Q155.24 31.49 156.84 33.55L156.92 33.63L156.89 33.60Q157.29 34.49 158.51 35.63L158.43 35.55L158.54 35.66Q161.20 37.61 166.38 37.87L166.36 37.85L166.42 37.91Q166.70 37.85 169.10 37.97L169.16 38.03L169.06 37.93Q173.96 38.18 176.25 37.12L176.14 37.01L176.27 37.14Q177.00 37.68 181.72 41.25L181.88 41.42L181.88 41.41Q182.30 40.69 183.59 39.70L183.62 39.73L183.59 39.70Q182.77 39.07 181.97 38.39L182.10 38.51L180.30 36.90L180.48 36.93L180.53 36.99Q179.79 36.35 178.57 35.33L178.58 35.33L178.66 35.41Q180.57 32.92 180.57 28.39L180.60 28.41L180.66 28.47Q180.55 27.94 180.59 27.11L180.54 27.06L180.67 27.19Q180.71 26.35 180.71 25.93L180.60 25.82L180.63 25.86Q180.60 20.31 179.88 17.95L179.82 17.89L179.91 17.97Q179.48 16.63 178.60 15.56L178.72 15.68L178.62 15.58Q177.87 13.50 174.94 12.47ZM168.95 17.06L169.00 17.12L169.00 17.11Q173.00 16.97 174.83 18.57L174.84 18.58L174.73 18.47Q175.43 19.82 175.55 21.15L175.55 21.16L175.42 21.03Q175.54 22.32 175.46 23.69L175.41 23.64L175.44 23.67Q175.14 28.67 173.20 30.38L173.17 30.35L173.24 30.41Q171.88 29.06 169.37 26.32L169.33 26.27L169.37 26.32Q168.61 27.08 167.05 28.64L167.03 28.63L166.98 28.58Q167.69 29.32 168.83 30.50L168.74 30.41L168.65 30.43L168.60 30.38Q169.23 30.98 170.26 32.04L170.29 32.07L170.28 32.06Q169.35 32.39 167.03 32.70L166.97 32.64L166.41 32.60L166.07 32.69L165.97 32.63L166.01 32.67Q162.63 32.75 160.65 31.11L160.66 31.12L160.67 31.13Q159.54 28.94 159.58 25.81L159.56 25.80L159.54 25.77Q159.72 17.08 168.89 17.01Z"/><path fill="#111" d="M32.02 23.72L32.08 23.78L26.00 23.67L26.11 23.78Q23.25 23.89 20.32 23.82L20.23 23.73L20.20 23.70Q20.27 30.35 18.21 35.87L18.22 35.88L18.24 35.90Q16.49 36.47 14.74 37.16L14.72 37.13L14.63 37.05Q17.53 31.46 17.53 24.80L17.43 24.70L17.51 24.77Q17.41 16.19 13.30 9.14L13.43 9.27L13.34 9.19Q14.80 9.93 17.28 10.73L17.44 10.89L17.33 10.78Q19.43 15.80 19.96 20.68L20.06 20.78L20.09 20.80Q23.27 21.20 26.12 21.17L26.12 21.16L26.02 21.07Q28.66 21.04 31.98 20.78L32.06 20.86L32.09 20.90Q32.58 16.51 34.33 11.41L34.34 11.41L34.34 11.42Q36.14 10.85 38.38 10.02L38.47 10.11L38.49 10.12Q34.77 16.76 34.77 24.71L34.88 24.82L34.79 24.74Q34.94 31.09 37.30 36.42L37.18 36.30L37.15 36.27Q35.54 35.65 33.49 35.35L33.56 35.42L33.55 35.41Q31.93 30.44 32.05 23.74ZM33.32 35.79L33.25 35.72L33.30 35.77Q34.39 35.98 35.49 36.25L35.45 36.21L35.37 36.12Q35.83 36.96 36.47 38.45L36.51 38.49L36.32 38.29Q39.69 39.26 41.47 40.17L41.52 40.22L41.61 40.31Q37.19 34.18 36.88 25.91L36.77 25.80L36.84 25.87Q36.43 17.73 40.08 10.91L40.15 10.98L39.03 11.39L39.05 11.40Q38.60 11.68 37.99 11.84L37.94 11.78L38.04 11.88Q38.38 11.00 39.22 9.44L39.21 9.44L39.25 9.48Q36.62 10.54 33.99 11.03L34.04 11.08L33.89 10.93Q32.18 15.73 31.72 20.41L31.79 20.48L31.80 20.48Q29.40 20.79 26.96 20.79L26.91 20.74L26.97 20.80Q24.41 20.64 21.90 20.49L22.03 20.62L22.07 20.66Q21.78 17.32 20.68 13.25L20.58 13.15L20.64 13.21Q19.95 13.09 18.51 12.71L18.59 12.79L18.45 12.65Q18.22 11.59 17.77 10.56L17.60 10.40L17.78 10.57Q15.02 9.80 12.74 8.55L12.68 8.48L12.57 8.38Q17.16 15.82 17.16 24.62L17.20 24.66L17.13 24.59Q17.32 31.74 14.20 37.87L14.13 37.80L14.08 37.75Q14.91 37.60 16.25 37.03L16.26 37.04L16.21 36.99Q15.84 37.80 15.04 39.33L15.08 39.36L14.97 39.26Q17.88 38.35 20.12 37.93L20.16 37.97L20.10 37.91Q22.02 32.41 22.21 26.24L22.13 26.16L22.08 26.11Q23.82 26.18 27.02 26.14L27.02 26.14L26.93 26.04Q29.79 26.01 31.69 26.09L31.70 26.09L31.67 26.07Q31.91 31.79 33.24 35.71Z"/><path fill="#444" d="M118.85 35.38L118.88 35.41L118.77 35.30Q115.84 31.45 113.21 22.81L113.20 22.79L113.35 22.94Q112.61 20.73 111.82 18.60L111.71 18.49L108.93 27.36L108.90 27.33Q107.10 32.27 104.70 35.50L104.62 35.42L104.62 35.42Q103.85 35.57 102.22 35.72L102.19 35.70L102.23 35.73Q102.28 34.49 102.28 33.24L102.27 33.23L102.27 33.23Q102.29 27.23 99.55 21.10L99.53 21.08L99.60 21.15Q96.56 14.34 90.70 9.36L90.57 9.23L90.68 9.34Q92.75 9.96 95.11 10.49L95.08 10.46L95.14 10.53Q103.86 19.02 105.15 29.98L105.00 29.83L105.05 29.87Q106.74 26.62 108.19 21.25L108.24 21.31L108.09 21.15Q110.23 13.81 110.72 12.40L110.64 12.32L112.83 12.26L112.86 12.29Q113.50 14.27 114.15 16.59L114.16 16.61L115.50 21.14L115.47 21.11Q116.94 26.46 118.35 29.70L118.43 29.78L118.49 29.84Q120.10 18.17 128.02 10.82L128.09 10.88L128.07 10.87Q129.54 10.48 132.51 9.83L132.57 9.88L132.62 9.94Q127.18 14.13 124.13 20.26L124.24 20.36L124.23 20.35Q121.07 26.52 121.07 33.29L121.02 33.25L121.05 33.28Q121.05 34.37 121.12 35.52L121.15 35.54L120.02 35.44L119.91 35.34Q119.37 35.32 118.80 35.32ZM125.03 38.20L125.02 38.20L125.03 38.21Q123.91 34.77 124.03 30.88L123.89 30.75L124.04 30.90Q124.32 19.30 133.69 11.04L133.76 11.11L133.65 11.01Q132.72 11.26 130.78 11.79L130.86 11.87L130.71 11.71Q131.80 11.02 133.70 9.23L133.57 9.10L133.59 9.12Q130.93 9.88 128.00 10.38L128.03 10.40L128.09 10.47Q120.44 17.44 118.54 26.92L118.63 27.01L118.62 27.00Q118.03 25.34 115.18 13.89L115.21 13.93L115.14 13.85Q114.87 14.07 113.92 14.07L113.86 14.02L113.52 12.92L113.43 12.83Q113.40 12.38 113.18 11.89L113.24 11.95L110.34 11.94L110.22 11.83Q109.46 14.34 108.18 19.46L108.27 19.54L108.23 19.50Q106.92 24.59 105.93 27.06L105.94 27.07L105.85 26.98Q104.43 19.24 98.87 12.92L98.73 12.79L98.76 12.81Q98.28 12.75 97.33 12.56L97.37 12.60L97.37 12.60Q96.69 11.81 95.13 10.17L95.09 10.13L95.14 10.19Q91.75 9.39 89.58 8.59L89.52 8.52L89.60 8.60Q95.23 13.24 98.50 19.44L98.38 19.32L98.54 19.49Q101.83 25.94 101.83 32.94L101.87 32.98L101.86 32.97Q101.98 34.65 101.79 36.25L101.82 36.27L101.64 36.10Q102.01 36.24 102.47 36.14L102.32 35.99L102.43 36.11Q102.79 35.91 103.01 35.91L103.15 36.05L103.09 37.02L103.07 36.99Q103.11 37.49 103.18 38.02L103.24 38.08L103.25 38.08Q104.34 37.96 106.62 37.81L106.62 37.80L106.54 37.72Q110.13 32.29 112.87 22.89L113.02 23.04L112.94 22.96Q115.82 31.85 118.79 35.81L118.79 35.81L118.75 35.77Q119.13 35.70 119.97 35.81L120.03 35.87L120.08 35.92Q120.86 36.90 121.93 37.96L121.94 37.97L121.92 37.96Q122.78 38.09 125.18 38.36Z"/></svg>