<svg xmlns="http://www.w3.org/2000/svg" width="200" height="40" viewBox="0,0,200,40"><path fill="#222" d="M138.71 35.25L138.74 35.28L136.18 28.26L136.24 28.33Q131.83 15.69 125.89 9.30L125.95 9.36L125.93 9.34Q127.87 10.32 130.46 10.93L130.51 10.98L130.47 10.94Q135.70 17.32 140.04 30.07L140.10 30.13L140.07 30.10Q143.16 22.04 143.85 20.44L143.76 20.35L143.83 20.42Q146.14 14.74 148.96 11.43L149.03 11.50L149.01 11.48Q151.01 11.04 153.64 10.17L153.65 10.17L153.69 10.22Q148.99 14.69 145.94 21.92L145.98 21.97L146.01 22.00Q144.69 25.73 141.00 35.25L141.00 35.25L140.91 35.16Q140.46 35.29 139.89 35.25L139.85 35.21L139.84 35.20Q139.19 35.12 138.61 35.15ZM143.67 37.62L143.63 37.58L143.74 37.69Q146.37 27.53 147.93 23.49L148.03 23.59L147.97 23.53Q150.98 15.85 155.40 10.98L155.44 11.02L155.53 11.10Q154.32 11.31 152.23 12.03L152.39 12.20L153.52 10.84L153.46 10.79Q153.95 10.03 154.56 9.38L154.58 9.40L154.55 9.37Q151.89 10.51 148.88 11.08L148.79 10.99L148.90 11.10Q144.38 16.29 140.50 27.75L140.62 27.87L140.64 27.89Q136.94 17.72 133.75 13.34L133.68 13.28L133.65 13.25Q133.27 13.18 132.40 13.02L132.43 13.06L132.51 13.14Q132.31 12.79 130.71 10.73L130.66 10.67L130.63 10.65Q127.72 9.98 125.01 8.57L124.95 8.51L125.02 8.58Q131.67 15.68 136.05 28.47L135.95 28.37L136.00 28.42Q137.11 31.97 138.29 35.55L138.26 35.53L138.32 35.58Q138.68 35.64 139.52 35.53L139.47 35.47L139.55 35.56Q139.96 36.31 140.64 37.64L140.67 37.66L140.64 37.64Q141.35 37.44 142.08 37.51L142.15 37.58L142.25 37.68Q142.94 37.66 143.71 37.66Z"/><path fill="#333" d="M45.49 9.24L45.51 9.26L45.55 9.30Q49.30 11.80 54.06 12.03L54.10 12.06L54.13 12.10Q58.74 12.25 63.00 10.50L62.95 10.44L62.93 10.42Q62.76 11.06 62.00 13.84L61.95 13.78L62.07 13.91Q59.17 14.78 56.21 14.93L56.30 15.03L56.22 14.95Q53.36 15.21 50.46 14.48L50.47 14.49L50.50 14.52Q51.09 18.04 51.28 21.70L51.35 21.76L51.38 21.80Q53.35 21.97 54.95 21.93L54.86 21.84L54.88 21.87Q56.19 21.96 58.58 21.84L58.53 21.78L58.52 21.78Q58.56 22.50 58.56 23.18L58.41 23.04L58.44 24.41L58.42 24.38Q56.12 24.48 51.33 24.56L51.32 24.55L51.33 24.56Q51.29 28.64 50.72 32.63L50.78 32.69L50.63 32.54Q53.42 32.06 56.16 32.17L56.04 32.05L56.00 32.01Q58.84 32.22 61.43 33.06L61.34 32.97L61.34 32.97Q61.38 33.74 61.65 34.50L61.72 34.57L62.20 36.12L62.14 36.05Q59.03 34.85 55.61 34.85L55.49 34.74L55.53 34.77Q50.73 34.85 46.47 37.10L46.39 37.02L46.45 37.08Q48.66 30.15 48.39 23.03L48.50 23.14L48.48 23.12Q48.15 15.90 45.49 9.24ZM45.93 37.78L45.89 37.74L45.89 37.74Q47.10 36.97 47.86 36.62L48.03 36.80L47.90 36.67Q47.69 37.40 47.12 38.93L47.29 39.10L47.17 38.98Q51.62 36.92 56.69 37.19L56.80 37.31L56.80 37.30Q61.98 37.61 65.98 40.32L65.94 40.27L65.86 40.20Q64.69 37.66 64.01 35.71L64.17 35.88L64.12 35.82Q63.12 35.20 62.13 34.86L62.07 34.81L62.13 34.86Q61.77 33.52 61.62 32.72L61.62 32.72L61.55 32.65Q58.46 31.65 55.30 31.65L55.40 31.76L55.27 31.63Q54.21 31.70 53.07 31.82L53.02 31.77L53.06 31.81Q53.15 30.54 53.19 29.32L53.29 29.42L53.22 26.76L53.26 26.80Q55.10 26.73 56.88 26.77L56.98 26.87L56.80 26.68Q58.71 26.80 60.50 26.95L60.46 26.91L60.49 26.94Q60.47 26.05 60.47 25.09L60.39 25.02L60.45 23.18L59.65 23.25L59.67 23.27Q59.30 23.39 58.84 23.39L58.71 23.26L58.84 23.40Q58.70 22.57 58.85 21.27L58.98 21.40L58.94 21.36Q57.31 21.56 56.13 21.59L56.12 21.58L56.10 21.56Q55.14 21.55 53.31 21.48L53.45 21.62L53.43 21.60Q53.19 20.03 53.00 17.21L53.03 17.24L53.06 17.27Q54.20 17.49 55.19 17.49L55.11 17.42L55.20 17.50Q59.89 17.47 63.58 15.57L63.45 15.44L63.58 15.57Q64.18 13.23 65.05 11.03L64.98 10.96L65.03 11.00Q63.61 11.75 62.77 12.10L62.74 12.06L62.89 12.21Q63.05 11.31 63.51 9.75L63.47 9.71L63.55 9.79Q58.84 11.86 53.97 11.56L53.99 11.58L53.96 11.55Q48.65 11.23 44.81 8.37L44.93 8.49L44.92 8.48Q47.78 15.42 48.09 23.03L48.08 23.02L48.15 23.10Q48.51 31.07 46.00 37.84Z"/><path d="M11 9 C99 2,113 24,191 19" stroke="#555" fill="none"/><path d="M20 25 C91 27,120 29,186 39" stroke="#444" fill="none"/><path fill="#333" d="M109.19 34.94L109.20 34.96L109.19 34.95Q104.91 34.29 103.09 32.84L103.13 32.88L103.18 32.94Q101.25 31.38 100.83 28.38L100.96 28.51L100.90 28.45Q100.90 28.10 100.55 23.34L100.57 23.36L100.49 23.28Q100.50 22.07 100.43 20.82L100.54 20.93L100.48 20.87Q100.40 15.92 102.61 14.17L102.52 14.08L102.55 14.11Q105.20 12.00 112.97 11.31L112.87 11.22L112.96 11.31Q114.27 11.13 115.91 11.17L115.91 11.18L115.90 11.17Q115.96 11.23 118.93 11.23L118.97 11.27L118.85 11.14Q119.65 11.11 121.36 11.26L121.52 11.41L121.53 11.43Q120.95 12.30 119.93 15.38L119.94 15.40L119.97 15.43Q117.92 14.25 114.91 14.25L114.76 14.10L114.76 14.10Q114.02 14.12 113.22 14.20L113.23 14.21L113.28 14.26Q108.24 14.77 105.72 16.75L105.70 16.73L105.75 16.77Q103.55 18.19 103.40 21.54L103.54 21.69L103.50 21.65Q103.40 22.19 103.44 23.45L103.46 23.47L103.47 23.48Q103.70 28.43 106.10 30.52L105.91 30.34L105.95 30.37Q108.08 32.28 113.07 32.58L113.08 32.59L113.16 32.68Q116.21 32.75 119.22 30.96L119.22 30.96L119.30 31.05Q119.84 33.72 120.44 35.09L120.56 35.20L120.55 35.19Q118.48 35.48 116.84 35.44L116.85 35.45L116.83 35.43Q112.37 35.39 109.25 35.01ZM124.38 38.75L124.34 38.72L124.19 38.57Q122.53 35.69 121.84 33.10L121.88 33.13L121.83 33.08Q121.31 33.25 120.32 33.63L120.48 33.79L120.44 33.75Q120.05 32.90 119.86 32.07L119.85 32.06L119.42 30.29L119.51 30.38Q116.23 32.44 113.11 32.32L113.06 32.27L113.09 32.31Q108.90 32.18 106.58 30.43L106.44 30.30L106.51 30.36Q105.34 28.51 105.41 25.58L105.51 25.67L105.36 25.52Q105.59 21.11 108.06 18.97L108.05 18.96L107.98 18.89Q110.19 17.06 114.87 16.45L114.93 16.51L114.83 16.42Q115.75 16.42 116.47 16.42L116.45 16.40L116.50 16.44Q119.09 16.26 121.18 17.78L121.18 17.77L121.29 17.88Q121.74 15.71 122.96 12.48L122.89 12.40L123.00 12.52Q122.75 12.54 122.20 12.48L122.07 12.35L122.24 12.52Q121.68 12.46 121.42 12.46L121.35 12.39L121.32 12.36Q121.57 11.89 122.03 10.90L121.95 10.82L122.07 10.94Q121.73 10.83 119.24 10.75L119.20 10.71L119.29 10.81Q116.70 10.63 116.05 10.67L116.06 10.68L116.12 10.74Q105.60 11.07 102.13 13.65L102.13 13.65L102.10 13.62Q100.23 15.60 100.23 19.52L100.07 19.35L100.19 19.47Q100.13 20.52 100.25 23.23L100.34 23.32L100.17 23.14Q100.36 26.77 100.59 28.48L100.66 28.55L100.52 28.41Q101.03 31.66 102.63 33.19L102.57 33.13L102.55 33.11Q103.08 33.82 104.33 34.96L104.39 35.02L104.30 34.93Q107.59 36.73 112.84 37.49L112.79 37.45L112.78 37.43Q119.33 38.50 124.32 38.70Z"/><path fill="#222" d="M28.25 34.79L28.37 34.91L28.37 34.91Q26.44 34.89 24.43 35.08L24.40 35.05L24.37 35.03Q24.92 29.67 24.92 24.84L25.08 24.99L24.91 24.83Q25.11 20.12 24.46 14.90L24.29 14.73L24.41 14.84Q19.80 14.43 16.60 12.75L16.58 12.72L15.80 10.92L15.89 11.02Q15.69 10.51 15.08 9.29L14.97 9.18L14.96 9.17Q20.17 11.97 26.18 12.17L26.18 12.16L26.11 12.10Q32.07 12.35 37.52 10.29L37.47 10.24L37.38 10.16Q36.73 11.64 36.08 13.47L36.11 13.49L36.06 13.44Q32.56 14.86 28.30 15.05L28.33 15.07L28.27 15.02Q27.91 19.87 27.91 24.82L27.96 24.87L28.06 24.97Q28.05 29.91 28.35 34.89ZM38.22 9.62L38.11 9.52L38.14 9.54Q32.26 11.77 26.05 11.58L26.06 11.59L26.09 11.62Q19.40 11.40 14.30 8.43L14.40 8.53L14.29 8.42Q15.07 9.74 16.37 13.01L16.48 13.13L16.29 12.93Q17.12 13.42 18.38 13.99L18.23 13.85L18.26 13.88Q18.65 14.72 18.99 16.25L18.82 16.07L18.88 16.13Q21.11 16.92 24.16 17.15L24.24 17.23L24.31 17.30Q24.70 21.00 24.70 24.77L24.67 24.74L24.57 24.64Q24.62 30.05 23.82 35.42L23.79 35.40L23.81 35.41Q25.52 35.34 26.06 35.34L25.94 35.22L26.00 35.29Q25.99 35.58 25.93 36.24L25.87 36.18L26.04 36.36Q25.91 36.94 25.91 37.29L25.95 37.33L25.87 37.25Q27.03 37.15 28.55 37.22L28.59 37.27L28.60 37.27Q29.49 37.29 31.32 37.44L31.36 37.48L31.45 37.57Q30.17 32.60 30.06 27.42L30.00 27.37L30.09 27.46Q29.78 21.97 30.31 17.06L30.39 17.13L30.37 17.12Q34.36 16.61 37.52 15.39L37.45 15.32L37.57 15.45Q38.22 13.01 39.25 10.96L39.16 10.87L39.14 10.85Q38.00 11.72 37.20 12.03L37.08 11.91L37.17 12.00Q37.51 10.62 38.08 9.48Z"/><path fill="#333" d="M164.03 25.66L163.93 25.56L163.90 25.54Q164.04 25.67 167.43 25.63L167.36 25.56L167.49 25.70Q169.64 25.56 170.71 25.60L170.77 25.67L170.62 25.51Q169.69 22.75 167.25 17.12L167.18 17.05L167.17 17.04Q166.57 18.42 165.53 21.27L165.61 21.35L165.63 21.38Q164.50 24.15 163.93 25.56ZM171.84 28.10L171.79 28.05L171.85 28.12Q169.50 28.01 167.29 28.04L167.36 28.11L167.30 28.06Q165.07 28.11 162.78 28.30L162.76 28.28L162.83 28.35Q161.24 31.70 158.00 35.89L157.98 35.87L158.02 35.91Q155.48 36.56 154.11 37.06L154.15 37.10L154.05 37.00Q159.29 31.47 163.97 18.10L164.01 18.14L163.94 18.07Q165.23 14.68 166.60 11.44L166.46 11.31L166.59 11.43Q166.95 11.49 167.29 11.49L167.26 11.45L167.99 11.46L167.96 11.43Q168.65 12.74 173.49 24.38L173.54 24.43L173.49 24.39Q176.79 32.26 180.79 36.41L180.69 36.31L180.81 36.43Q180.30 36.30 176.42 35.42L176.43 35.44L176.33 35.33Q173.90 32.33 171.92 28.18ZM176.25 35.68L176.34 35.76L176.88 35.81L176.83 35.76Q177.18 35.88 177.49 36.00L177.44 35.95L177.49 36.00Q177.85 36.40 179.68 38.41L179.55 38.29L179.52 38.26Q183.21 39.21 185.61 40.23L185.54 40.17L185.63 40.26Q180.11 35.69 176.11 27.69L176.17 27.75L176.09 27.67Q174.61 24.51 173.16 20.55L172.99 20.38L170.33 12.97L170.36 12.99Q170.13 13.11 169.90 13.11L169.73 12.94L169.20 12.93L169.39 13.13Q168.87 12.30 168.15 10.93L168.12 10.90L168.23 11.01Q167.70 11.02 167.24 10.98L167.18 10.91L167.29 11.02Q166.85 11.00 166.31 11.00L166.32 11.01L166.15 10.84Q164.93 14.95 161.05 25.11L160.88 24.94L160.96 25.03Q157.77 32.92 153.13 37.71L153.11 37.70L153.28 37.86Q154.18 37.32 156.20 36.71L156.23 36.74L156.15 36.66Q155.57 37.72 154.01 39.51L153.90 39.40L153.95 39.45Q155.58 38.72 159.50 37.96L159.57 38.03L159.63 38.09Q162.96 33.65 164.52 30.41L164.53 30.42L164.56 30.45Q166.26 30.29 168.58 30.32L168.65 30.40L168.63 30.37Q171.25 30.29 172.62 30.37L172.62 30.36L172.77 30.52Q173.98 32.83 176.34 35.76ZM168.58 21.04L168.55 21.00L168.65 21.11Q169.51 23.18 170.27 25.27L170.21 25.22L166.88 25.20L166.90 25.22Q167.57 23.87 168.64 21.09Z"/><path fill="#111" d="M82.87 25.44L82.79 25.36L82.90 25.46Q79.33 31.71 75.90 35.67L76.03 35.80L75.99 35.76Q74.06 36.12 71.63 37.00L71.55 36.92L71.67 37.04Q76.61 31.47 81.36 23.06L81.41 23.11L81.27 22.96Q76.76 16.09 70.79 9.70L70.72 9.63L70.68 9.59Q73.63 10.82 75.91 11.32L76.02 11.43L75.98 11.39Q80.68 16.66 83.11 20.62L83.03 20.53L82.94 20.44Q85.63 16.20 89.55 11.78L89.49 11.73L89.53 11.77Q90.99 11.32 94.19 10.56L94.19 10.56L94.31 10.69Q88.21 17.11 84.74 23.05L84.65 22.95L84.62 22.92Q89.83 31.64 94.21 36.20L94.27 36.26L94.34 36.33Q91.67 35.45 89.57 35.22L89.67 35.32L89.67 35.32Q86.88 32.34 82.96 25.52ZM89.60 35.67L89.45 35.52L89.59 35.66Q89.73 35.53 90.19 35.65L90.31 35.77L90.33 35.79Q91.03 36.45 92.55 38.05L92.50 37.99L92.55 38.04Q96.00 38.94 99.04 40.31L99.08 40.35L99.08 40.35Q91.88 33.69 86.78 24.93L86.65 24.80L86.64 24.79Q90.47 18.23 96.38 11.38L96.33 11.33L96.35 11.36Q95.00 12.10 92.83 12.63L92.81 12.61L92.73 12.53Q93.55 11.56 95.30 9.77L95.32 9.79L95.39 9.86Q93.03 10.78 89.34 11.35L89.28 11.28L89.37 11.38Q85.79 15.04 83.21 19.34L83.24 19.37L83.38 19.51Q82.29 17.73 81.11 16.25L81.13 16.28L78.85 13.35L78.63 13.51L78.44 13.32Q78.46 13.49 78.24 13.42L78.12 13.30L78.08 13.26Q77.47 12.50 75.99 10.94L75.91 10.87L75.89 10.84Q72.10 9.99 69.51 8.62L69.59 8.69L69.65 8.75Q76.38 16.02 80.95 23.06L80.86 22.97L80.81 22.92Q76.48 31.26 70.73 37.85L70.61 37.74L70.74 37.86Q72.04 37.18 74.17 36.61L74.22 36.66L72.85 38.03L72.85 38.03Q72.74 37.92 71.41 39.26L71.53 39.37L71.50 39.34Q74.53 38.30 77.69 37.81L77.57 37.69L77.60 37.72Q81.59 33.18 84.18 28.42L84.23 28.47L84.22 28.46Q86.76 32.67 89.46 35.53Z"/></svg>