<svg xmlns="http://www.w3.org/2000/svg" width="200" height="40" viewBox="0,0,200,40"><path fill="#333" d="M51.54 21.79L51.64 21.88L51.68 21.92Q53.28 21.89 55.11 21.89L55.11 21.89L55.20 21.98Q56.91 21.90 58.74 21.75L58.89 21.90L58.72 21.73Q58.64 22.41 58.64 23.14L58.78 23.28L58.80 24.63L58.67 24.49Q56.32 24.51 51.56 24.62L51.54 24.60L51.62 24.68Q51.59 30.59 50.45 35.58L50.36 35.49L50.47 35.60Q48.28 36.30 46.80 37.10L46.70 37.00L46.75 37.05Q49.02 30.19 48.76 23.07L48.71 23.02L48.78 23.09Q48.64 16.06 45.97 9.40L45.95 9.38L45.88 9.31Q49.47 11.75 54.23 11.98L54.41 12.17L54.40 12.16Q59.06 12.33 63.21 10.58L63.15 10.52L63.18 10.55Q62.76 11.22 62.53 12.02L62.54 12.04L62.08 13.67L62.05 13.64Q59.51 14.91 56.55 15.06L56.50 15.02L56.50 15.02Q53.53 15.13 50.68 14.41L50.76 14.49L50.62 14.35Q51.35 17.79 51.54 21.78ZM63.82 9.85L63.75 9.78L63.78 9.81Q59.20 11.97 54.33 11.67L54.34 11.68L54.29 11.62Q49.02 11.38 45.29 8.52L45.31 8.55L45.13 8.37Q48.07 15.38 48.37 23.00L48.41 23.03L48.39 23.01Q48.72 30.95 46.20 37.73L46.19 37.72L46.35 37.87Q46.92 37.38 48.29 36.73L48.24 36.68L48.26 36.70Q48.12 37.51 47.55 39.04L47.44 38.93L47.51 38.99Q49.74 37.84 52.64 37.35L52.70 37.41L52.75 37.46Q53.30 32.53 53.49 26.82L53.59 26.91L53.58 26.91Q55.26 26.75 57.08 26.75L57.11 26.78L57.22 26.89Q59.00 26.89 60.83 27.08L60.85 27.10L60.66 26.91Q60.70 26.11 60.70 25.19L60.69 25.18L60.62 23.21L60.55 23.14Q59.98 23.45 59.14 23.45L59.03 23.33L59.08 23.38Q59.04 22.47 59.12 21.44L59.15 21.48L59.18 21.50Q57.66 21.55 56.26 21.55L56.39 21.68L56.38 21.67Q54.86 21.57 53.49 21.53L53.60 21.64L53.59 19.49L53.56 19.47Q53.46 18.30 53.35 17.23L53.27 17.16L53.38 17.26Q54.27 17.24 55.26 17.24L55.25 17.23L55.33 17.31Q60.11 17.33 63.72 15.42L63.65 15.35L63.78 15.49Q64.10 13.48 65.01 10.85L65.00 10.84L65.11 10.95Q63.82 11.79 63.02 12.13L62.98 12.09L62.96 12.07Q63.37 11.45 63.86 9.89Z"/><path fill="#111" d="M102.16 9.34L102.15 9.33L102.14 9.33Q105.90 11.83 110.66 12.06L110.69 12.08L110.77 12.16Q115.20 12.14 119.47 10.39L119.52 10.45L119.46 10.39Q119.38 11.11 118.62 13.88L118.49 13.75L118.64 13.91Q115.89 14.92 112.92 15.08L112.93 15.08L112.89 15.04Q109.99 15.26 107.09 14.54L107.08 14.53L107.09 14.54Q107.67 18.05 107.86 21.70L107.92 21.76L107.80 21.64Q109.90 21.95 111.50 21.91L111.53 21.94L111.54 21.96Q112.63 21.83 115.03 21.72L115.18 21.86L115.10 21.79Q115.04 22.41 115.04 23.10L115.04 23.10L115.05 24.44L115.10 24.48Q112.71 24.50 107.92 24.58L107.77 24.43L107.86 24.52Q107.79 28.56 107.22 32.56L107.20 32.54L107.33 32.67Q109.96 32.02 112.70 32.14L112.72 32.16L112.61 32.04Q115.36 32.18 117.95 33.01L118.01 33.07L117.90 32.96Q118.04 33.82 118.31 34.59L118.34 34.62L118.69 36.03L118.69 36.04Q115.47 34.72 112.05 34.72L112.16 34.83L112.05 34.73Q107.26 34.81 103.00 37.05L103.06 37.11L103.02 37.08Q105.32 30.24 105.05 23.12L105.14 23.21L105.05 23.12Q104.82 15.99 102.15 9.33ZM102.49 37.77L102.52 37.80L102.41 37.69Q103.77 37.07 104.53 36.73L104.46 36.66L104.51 36.70Q104.40 37.55 103.83 39.07L103.75 38.99L103.69 38.93Q108.29 37.01 113.35 37.28L113.42 37.35L113.37 37.31Q118.44 37.50 122.44 40.20L122.50 40.26L122.47 40.23Q121.43 37.83 120.75 35.88L120.60 35.74L120.70 35.84Q119.65 35.17 118.66 34.83L118.75 34.92L118.74 34.91Q118.20 33.38 118.05 32.58L118.09 32.61L118.13 32.66Q115.04 31.66 111.88 31.66L112.00 31.79L111.83 31.62Q110.68 31.60 109.53 31.71L109.69 31.87L109.66 31.84Q109.72 30.53 109.76 29.31L109.85 29.41L109.81 26.78L109.79 26.75Q111.67 26.73 113.46 26.77L113.40 26.71L113.54 26.85Q115.24 26.76 117.03 26.91L117.18 27.06L117.15 27.03Q117.00 26.01 117.00 25.06L117.03 25.09L117.01 23.16L116.30 23.33L116.15 23.18Q115.78 23.31 115.33 23.31L115.43 23.41L115.32 23.30Q115.36 22.66 115.51 21.36L115.41 21.26L115.41 21.26Q113.86 21.53 112.68 21.57L112.66 21.55L112.71 21.60Q111.70 21.54 109.87 21.47L110.03 21.62L110.02 21.62Q109.90 20.16 109.71 17.35L109.63 17.27L109.72 17.35Q110.63 17.36 111.62 17.36L111.63 17.36L111.61 17.34Q116.46 17.48 120.15 15.57L120.14 15.56L120.11 15.53Q120.69 13.18 121.57 10.97L121.62 11.03L121.47 10.87Q120.22 11.79 119.38 12.14L119.41 12.16L119.33 12.09Q119.60 11.29 120.06 9.73L120.15 9.82L120.10 9.77Q115.57 12.02 110.70 11.72L110.51 11.53L110.62 11.63Q105.24 11.24 101.40 8.39L101.51 8.50L101.46 8.45Q104.31 15.37 104.62 22.99L104.64 23.01L104.70 23.08Q104.95 30.93 102.43 37.71Z"/><path fill="#333" d="M164.00 25.63L164.04 25.67L163.99 25.62Q164.00 25.63 167.39 25.59L167.48 25.68L167.37 25.58Q169.73 25.65 170.79 25.69L170.62 25.51L170.72 25.61Q169.69 22.76 167.26 17.12L167.33 17.19L167.28 17.14Q166.67 18.51 165.62 21.37L165.58 21.33L165.71 21.46Q164.48 24.13 163.91 25.54ZM171.83 28.09L171.77 28.03L171.91 28.17Q169.53 28.04 167.32 28.08L167.30 28.06L167.32 28.07Q165.07 28.11 162.78 28.30L162.73 28.24L162.77 28.29Q161.35 31.82 158.12 36.00L158.14 36.02L158.09 35.97Q155.56 36.64 154.19 37.14L154.07 37.02L154.20 37.15Q159.18 31.35 163.86 17.99L163.91 18.04L163.84 17.97Q165.11 14.56 166.48 11.32L166.46 11.30L166.58 11.42Q166.93 11.46 167.27 11.46L167.29 11.48L167.85 11.32L167.88 11.35Q168.61 12.69 173.44 24.34L173.54 24.44L173.38 24.28Q176.77 32.23 180.77 36.38L180.83 36.44L180.80 36.42Q180.25 36.25 176.37 35.37L176.33 35.34L176.32 35.32Q173.91 32.35 171.93 28.20ZM176.29 35.72L176.34 35.76L176.78 35.71L176.84 35.76Q177.21 35.91 177.51 36.02L177.38 35.89L177.38 35.89Q177.69 36.24 179.52 38.26L179.52 38.26L179.59 38.32Q183.23 39.23 185.63 40.25L185.68 40.31L185.72 40.35Q180.11 35.69 176.12 27.70L176.09 27.67L176.08 27.66Q174.58 24.48 173.13 20.52L173.07 20.46L170.25 12.89L170.35 12.98Q170.13 13.10 169.90 13.10L169.84 13.04L169.28 13.01L169.32 13.06Q168.92 12.36 168.20 10.98L168.23 11.02L168.16 10.95Q167.60 10.92 167.15 10.89L167.33 11.07L167.24 10.98Q166.88 11.04 166.35 11.04L166.26 10.95L166.25 10.94Q164.90 14.92 161.02 25.09L161.02 25.09L160.95 25.02Q157.88 33.02 153.24 37.82L153.25 37.83L153.12 37.70Q154.28 37.42 156.30 36.81L156.20 36.71L156.20 36.72Q155.41 37.56 153.85 39.35L153.83 39.33L153.83 39.33Q155.63 38.77 159.55 38.00L159.46 37.92L159.53 37.99Q162.91 33.60 164.47 30.37L164.44 30.34L164.63 30.52Q166.35 30.38 168.67 30.41L168.68 30.42L168.67 30.41Q171.25 30.29 172.62 30.37L172.58 30.33L172.67 30.42Q173.94 32.79 176.30 35.72ZM168.58 21.03L168.61 21.07L168.62 21.07Q169.41 23.08 170.17 25.18L170.19 25.20L166.96 25.28L166.82 25.13Q167.48 23.78 168.54 21.00Z"/><path fill="#444" d="M33.31 32.92L33.37 32.98L33.23 32.84Q33.55 33.85 34.08 35.87L34.03 35.82L34.20 35.98Q29.92 34.60 25.32 34.87L25.22 34.77L25.30 34.85Q20.70 35.09 16.70 37.07L16.70 37.06L16.76 37.12Q16.91 36.36 16.95 36.44L16.94 36.43L17.00 36.48Q20.80 32.59 24.72 28.18L24.63 28.09L24.60 28.06Q29.00 23.05 30.18 18.37L30.29 18.49L30.29 18.48Q30.74 16.73 29.47 15.55L29.40 15.48L29.38 15.46Q28.06 14.24 26.28 14.39L26.31 14.42L26.38 14.49Q25.93 14.35 25.58 14.35L25.64 14.40L25.65 14.41Q24.23 14.52 22.98 15.43L22.96 15.42L22.98 15.44Q21.67 16.79 21.90 19.46L21.83 19.38L21.84 19.40Q20.00 19.00 18.78 18.55L18.88 18.64L18.77 18.54Q18.61 17.16 18.53 15.71L18.62 15.80L18.57 15.75Q18.41 14.03 19.02 12.88L19.13 13.00L19.02 12.88Q20.81 11.51 24.16 11.51L24.27 11.62L25.92 11.52L26.08 11.68Q28.34 11.70 29.29 11.81L29.14 11.66L29.13 11.65Q33.60 12.20 33.87 14.64L33.73 14.50L33.76 14.53Q33.91 15.17 33.83 15.97L33.85 15.99L33.85 15.99Q33.87 16.69 33.71 17.38L33.73 17.40L33.73 17.39Q31.91 25.32 24.33 32.17L24.41 32.25L24.37 32.20Q25.84 32.11 27.21 32.11L27.11 32.02L27.15 32.05Q30.50 32.17 33.36 32.97ZM32.78 12.14L32.74 12.10L32.71 12.07Q31.21 11.53 29.50 11.45L29.45 11.40L25.92 11.10L25.99 11.18Q21.59 10.97 19.38 12.07L19.22 11.91L19.40 12.08Q18.32 13.45 18.32 15.50L18.22 15.39L18.31 15.49Q18.30 16.16 18.60 18.98L18.60 18.98L18.65 19.02Q19.20 19.27 20.38 19.57L20.40 19.59L20.34 20.56L20.29 20.52Q20.21 20.92 20.28 21.46L20.29 21.47L20.34 21.52Q21.59 21.63 24.07 21.86L24.15 21.94L24.08 21.87Q24.00 21.44 24.00 21.10L23.99 21.09L24.07 21.17Q24.04 19.31 25.26 17.96L25.30 18.00L25.30 18.01Q26.50 16.64 28.29 16.75L28.32 16.78L28.29 16.75Q29.02 16.76 29.78 16.91L29.80 16.93L29.77 16.90Q30.00 17.39 30.07 17.81L29.99 17.72L30.06 17.80Q30.00 18.12 29.93 18.46L30.02 18.55L30.03 18.57Q28.72 23.27 24.30 28.10L24.28 28.08L24.34 28.14Q22.15 30.33 16.70 36.38L16.78 36.46L16.69 36.37Q16.58 37.28 16.24 37.85L16.19 37.80L16.21 37.83Q17.74 36.88 19.26 36.35L19.21 36.30L19.31 36.40Q18.46 36.85 17.51 38.33L17.58 38.40L17.65 38.47Q17.50 38.77 17.38 39.12L17.42 39.15L17.41 39.14Q22.26 37.07 27.75 37.26L27.80 37.32L27.79 37.30Q33.39 37.39 37.96 39.75L37.96 39.74L37.01 37.65L37.03 37.67Q36.32 36.28 36.05 35.48L35.97 35.40L35.99 35.41Q35.39 35.12 34.17 34.70L34.22 34.75L34.11 34.64Q34.05 34.00 33.67 32.63L33.52 32.49L33.66 32.63Q31.42 32.03 29.14 31.84L29.03 31.73L29.13 31.82Q33.84 27.28 35.36 19.02L35.39 19.06L35.55 16.13L35.51 16.09Q35.46 14.32 34.24 13.64L34.24 13.64L34.25 13.68L34.20 13.64Q34.20 13.60 34.13 13.60L34.00 13.47L34.14 13.62Q33.77 12.64 32.67 12.03Z"/><path d="M13 6 C83 5,107 32,187 32" stroke="#555" fill="none"/><path d="M20 22 C84 32,90 33,186 16" stroke="#333" fill="none"/><path fill="#222" d="M138.80 14.74L138.76 14.70L138.67 14.62Q136.84 14.88 135.89 15.03L135.79 14.94L135.81 14.95Q134.10 15.10 132.88 15.64L133.00 15.76L132.94 15.70Q129.51 17.22 129.40 21.90L129.40 21.90L129.25 21.76Q129.31 24.55 129.96 27.49L129.91 27.44L129.87 27.40Q130.83 31.52 134.45 32.70L134.34 32.60L134.44 32.69Q136.27 33.19 137.71 33.04L137.64 32.96L138.24 33.10L138.14 33.00Q138.31 32.98 138.50 33.02L138.56 33.08L138.50 33.02Q138.70 33.07 138.86 33.04L138.86 33.04L138.83 33.01Q141.51 32.80 142.88 32.23L142.83 32.17L139.31 28.69L139.28 28.66Q139.52 28.25 140.13 27.65L140.11 27.63L141.17 26.86L141.08 26.77Q142.96 28.88 144.94 30.94L144.98 30.98L145.03 31.02Q147.33 29.17 147.59 23.80L147.61 23.82L147.55 23.76Q147.58 22.80 147.58 21.88L147.51 21.82L147.56 21.87Q147.67 16.30 142.60 15.20L142.48 15.07L142.58 15.17Q141.25 14.83 138.74 14.68ZM151.48 36.72L151.51 36.74L151.50 36.73Q150.95 37.22 149.77 38.09L149.81 38.13L145.26 34.30L145.34 34.38Q142.79 35.53 138.53 35.56L138.48 35.51L138.67 35.70Q132.07 35.77 129.25 33.52L129.24 33.51L129.20 33.47Q127.36 31.63 126.90 28.66L126.94 28.69L127.03 28.78Q126.70 26.85 126.31 23.27L126.39 23.35L126.36 23.32Q126.38 22.62 126.27 20.86L126.26 20.86L126.31 20.91Q126.10 19.29 126.14 18.42L126.10 18.38L126.09 18.37Q126.35 15.46 128.10 13.90L128.05 13.85L128.04 13.84Q129.54 12.49 132.74 12.00L132.84 12.10L132.78 12.04Q135.30 11.70 138.20 11.78L138.20 11.78L138.16 11.75Q145.53 11.73 148.65 14.09L148.81 14.25L148.76 14.20Q150.99 16.39 150.73 21.30L150.55 21.13L150.64 21.22Q150.49 24.91 150.30 26.24L150.27 26.22L150.32 26.27Q149.53 30.62 147.21 32.94L147.30 33.03L147.26 32.99Q148.80 34.30 151.54 36.77ZM146.69 12.51L146.56 12.38L146.66 12.48Q144.66 11.77 138.15 11.28L138.18 11.31L138.19 11.31Q136.83 11.37 134.05 11.48L134.05 11.47L133.99 11.41Q129.65 11.53 127.40 13.51L127.55 13.66L127.45 13.56Q125.73 14.96 125.73 18.12L125.76 18.15L125.76 18.15Q125.87 19.09 126.02 20.81L125.96 20.74L126.00 20.79Q126.20 22.55 126.20 23.42L126.10 23.32L126.13 23.35Q126.25 25.07 126.63 28.65L126.58 28.60L126.74 28.76Q127.00 31.54 128.60 33.59L128.55 33.54L128.67 33.66Q129.02 34.51 130.24 35.65L130.12 35.53L130.15 35.56Q132.92 37.61 138.10 37.87L138.03 37.80L138.03 37.81Q138.48 37.92 140.88 38.03L140.83 37.98L140.90 38.05Q145.58 38.08 147.86 37.01L147.81 36.96L147.86 37.01Q148.87 37.83 153.59 41.41L153.59 41.41L153.49 41.31Q154.08 40.76 155.38 39.77L155.40 39.80L155.38 39.77Q154.52 39.11 153.72 38.42L153.81 38.51L152.14 37.03L152.24 36.98L152.09 36.83Q151.69 36.54 150.47 35.52L150.46 35.50L150.30 35.35Q152.25 32.88 152.25 28.35L152.19 28.29L152.21 28.31Q152.29 27.96 152.32 27.13L152.23 27.03L152.36 27.16Q152.41 26.34 152.41 25.92L152.28 25.79L152.35 25.85Q152.43 20.42 151.71 18.06L151.58 17.94L151.64 17.99Q151.24 16.68 150.37 15.61L150.33 15.58L150.40 15.65Q149.65 13.56 146.72 12.53ZM140.58 16.98L140.69 17.09L140.67 17.07Q144.76 17.01 146.59 18.61L146.48 18.50L146.51 18.54Q147.16 19.83 147.28 21.17L147.17 21.06L147.25 21.14Q147.25 22.32 147.18 23.69L147.28 23.79L147.18 23.70Q146.93 28.74 144.99 30.45L145.02 30.48L144.95 30.42Q143.66 29.12 141.15 26.38L141.18 26.42L141.14 26.37Q140.23 26.99 138.67 28.55L138.80 28.68L138.76 28.64Q139.39 29.31 140.53 30.49L140.52 30.48L140.32 30.38L140.37 30.43Q141.05 31.08 142.07 32.14L141.95 32.01L141.96 32.03Q140.94 32.27 138.62 32.57L138.66 32.61L138.18 32.66L137.84 32.74L137.65 32.59L137.74 32.68Q134.24 32.65 132.26 31.01L132.23 30.98L132.28 31.03Q131.27 28.95 131.31 25.83L131.33 25.85L131.32 25.85Q131.46 17.11 140.63 17.03Z"/><path fill="#333" d="M81.99 35.11L81.98 35.10L79.68 28.34L79.64 28.30Q75.38 15.81 69.44 9.42L69.34 9.32L69.43 9.41Q71.40 10.43 73.99 11.04L74.06 11.10L74.05 11.10Q79.05 17.23 83.39 29.99L83.52 30.12L83.53 30.14Q86.40 21.85 87.09 20.25L87.26 20.43L87.27 20.43Q89.57 14.74 92.39 11.43L92.43 11.47L92.34 11.38Q94.49 11.09 97.11 10.21L97.00 10.10L97.01 10.11Q92.61 14.88 89.56 22.12L89.40 21.96L89.38 21.93Q88.08 25.70 84.39 35.22L84.40 35.23L84.43 35.26Q83.73 35.13 83.16 35.09L83.16 35.10L83.13 35.06Q82.57 35.07 82.00 35.11ZM87.18 37.71L87.20 37.72L87.05 37.57Q89.89 27.62 91.45 23.58L91.35 23.49L91.34 23.48Q94.37 15.81 98.79 10.94L98.93 11.08L98.93 11.08Q97.76 11.31 95.66 12.04L95.71 12.08L96.91 10.81L96.95 10.85Q97.54 10.18 98.14 9.53L98.00 9.39L98.06 9.45Q95.34 10.53 92.33 11.10L92.31 11.08L92.20 10.97Q87.80 16.28 83.92 27.74L84.03 27.85L84.06 27.88Q80.38 17.73 77.18 13.35L77.16 13.33L77.07 13.24Q76.79 13.27 75.92 13.12L75.89 13.09L75.88 13.08Q75.60 12.65 74.00 10.59L74.13 10.72L74.04 10.63Q71.14 9.98 68.44 8.57L68.44 8.57L68.38 8.51Q74.93 15.52 79.31 28.31L79.41 28.41L79.39 28.39Q80.64 32.08 81.82 35.66L81.71 35.54L81.67 35.51Q82.25 35.78 83.09 35.67L82.99 35.57L82.93 35.51Q83.27 36.19 83.95 37.52L84.06 37.63L83.93 37.50Q84.80 37.45 85.52 37.53L85.59 37.60L85.63 37.64Q86.27 37.56 87.04 37.56Z"/></svg>