<svg xmlns="http://www.w3.org/2000/svg" width="200" height="40" viewBox="0,0,200,40"><path fill="#333" d="M136.49 21.87L136.40 21.78L136.38 21.76Q138.29 22.04 140.12 22.04L139.98 21.90L140.11 22.03Q141.92 22.05 143.75 21.90L143.70 21.85L143.76 21.92Q143.53 22.45 143.53 23.17L143.64 23.28L143.62 24.59L143.48 24.45Q141.18 24.51 136.42 24.62L136.38 24.59L136.36 24.57Q136.40 30.54 135.26 35.53L135.34 35.61L135.20 35.48Q133.15 36.32 131.67 37.12L131.59 37.04L131.54 36.99Q133.93 30.24 133.66 23.12L133.74 23.20L133.61 23.07Q133.38 15.95 130.71 9.29L130.64 9.21L130.72 9.29Q134.39 11.82 139.15 12.05L139.23 12.13L139.14 12.04Q143.81 12.21 147.96 10.46L147.99 10.49L147.97 10.48Q147.79 11.40 147.56 12.20L147.39 12.03L146.89 13.63L146.94 13.67Q144.36 14.90 141.39 15.05L141.30 14.96L141.35 15.01Q138.42 15.16 135.56 14.44L135.58 14.45L135.48 14.36Q136.32 17.90 136.51 21.90ZM148.71 9.89L148.64 9.81L148.67 9.84Q144.07 11.98 139.20 11.68L139.16 11.64L139.18 11.66Q133.90 11.40 130.17 8.55L130.07 8.45L130.12 8.50Q132.88 15.34 133.19 22.95L133.26 23.02L133.33 23.09Q133.56 30.94 131.05 37.72L131.04 37.71L131.04 37.71Q131.78 37.38 133.15 36.73L133.10 36.68L133.21 36.79Q132.96 37.49 132.38 39.01L132.29 38.92L132.44 39.07Q134.64 37.88 137.53 37.39L137.56 37.41L137.55 37.40Q138.15 32.52 138.34 26.81L138.35 26.82L138.45 26.92Q140.21 26.86 142.04 26.86L141.95 26.76L141.95 26.76Q143.80 26.82 145.63 27.01L145.57 26.95L145.55 26.94Q145.44 25.99 145.44 25.08L145.46 25.10L145.57 23.30L145.59 23.32Q144.77 23.38 143.93 23.38L143.87 23.32L143.88 23.32Q143.90 22.48 143.98 21.45L144.01 21.48L144.07 21.54Q142.71 21.74 141.30 21.74L141.13 21.57L141.15 21.59Q139.84 21.69 138.47 21.65L138.36 21.54L138.27 19.32L138.30 19.34Q138.25 18.23 138.14 17.17L138.26 17.28L138.12 17.15Q139.12 17.23 140.11 17.23L140.21 17.34L140.20 17.32Q144.85 17.22 148.47 15.31L148.59 15.44L148.46 15.31Q149.10 13.62 150.01 10.99L150.04 11.03L149.99 10.98Q148.76 11.87 147.96 12.21L147.87 12.12L147.89 12.15Q148.10 11.32 148.59 9.76Z"/><path fill="#222" d="M50.94 14.39L50.86 14.31L50.82 14.27Q51.69 18.52 51.84 22.10L51.88 22.14L51.85 22.11Q53.05 22.29 54.12 22.29L54.15 22.32L56.27 22.23L56.25 22.21Q57.27 22.17 58.15 20.76L58.26 20.87L58.12 20.73Q58.93 19.64 59.05 18.46L59.12 18.53L59.09 18.51Q59.35 15.38 55.13 14.88L55.23 14.98L55.10 14.85Q53.63 15.02 51.00 14.45ZM51.91 24.92L51.92 24.92L51.94 24.95Q51.78 31.06 50.63 35.48L50.82 35.66L50.72 35.56Q49.32 36.02 46.99 37.09L47.04 37.13L46.98 37.08Q49.33 30.41 49.07 23.14L49.06 23.13L49.02 23.08Q48.71 15.70 45.93 9.27L45.98 9.32L45.90 9.24Q50.08 12.05 56.33 12.05L56.33 12.05L56.32 12.04Q62.48 12.15 62.64 15.62L62.62 15.60L62.59 15.56Q62.59 17.93 61.60 20.59L61.58 20.57L61.64 20.63Q61.18 21.70 60.23 22.91L60.19 22.87L60.31 23.00Q59.04 24.65 56.49 24.92L56.42 24.85L56.47 24.90Q54.14 24.85 51.89 24.89ZM58.10 27.22L58.14 27.26L58.04 27.16Q62.23 27.43 63.49 22.64L63.51 22.66L63.40 22.55Q64.41 18.95 64.26 16.93L64.22 16.90L64.31 16.98Q64.22 15.49 63.46 14.50L63.37 14.41L63.47 14.51Q63.12 14.16 62.63 13.93L62.53 13.83L62.53 13.83Q62.55 13.70 61.94 12.94L61.90 12.90L61.90 12.90Q60.46 11.69 56.50 11.69L56.40 11.58L56.50 11.69Q49.64 11.72 45.41 8.56L45.32 8.46L45.35 8.50Q48.54 15.60 48.81 23.07L48.78 23.04L48.73 22.99Q49.03 30.67 46.37 37.76L46.46 37.85L46.44 37.83Q47.39 37.06 48.38 36.68L48.48 36.79L48.02 37.85L48.07 37.90Q47.93 38.52 47.66 39.09L47.62 39.05L47.70 39.13Q49.98 37.95 52.87 37.41L52.94 37.48L53.02 37.56Q53.86 32.04 53.94 27.32L53.89 27.28L53.93 27.31Q54.94 27.15 55.93 27.15L55.92 27.14L55.99 27.20Q57.30 27.18 58.10 27.22ZM57.05 17.19L57.05 17.19L57.16 17.29Q57.72 17.36 58.71 17.59L58.56 17.44L58.65 17.53Q58.81 17.81 58.85 18.11L58.66 17.92L58.70 17.96Q58.87 18.36 58.79 18.62L58.73 18.56L58.67 18.50Q58.61 19.78 57.89 20.65L57.79 20.55L57.85 20.62Q57.37 21.77 56.35 21.96L56.27 21.88L56.35 21.96Q55.49 21.83 53.86 21.83L53.93 21.91L53.87 21.85Q53.83 19.56 53.60 17.20L53.55 17.15L55.32 17.25L55.44 17.36Q56.18 17.26 57.05 17.19Z"/><path fill="#333" d="M78.71 35.40L78.73 35.42L78.60 35.29Q77.27 35.44 75.71 35.02L75.75 35.07L75.77 35.09Q74.41 34.03 74.26 32.40L74.36 32.50L74.39 32.53Q74.24 32.23 74.43 29.60L74.42 29.59L74.51 29.67Q75.43 29.38 77.45 29.00L77.54 29.10L77.38 29.89L77.32 29.82Q77.01 31.53 78.42 32.10L78.53 32.22L78.50 32.18Q79.28 32.51 81.37 32.51L81.26 32.39L81.35 32.48Q83.03 32.41 83.22 32.34L83.14 32.25L83.10 32.22Q84.01 32.06 84.73 31.56L84.70 31.53L84.68 31.51Q86.23 30.70 86.04 28.60L85.94 28.50L86.04 28.60Q85.78 26.10 84.05 24.54L84.10 24.60L84.09 24.59Q82.33 22.99 79.86 22.99L79.94 23.08L79.88 22.79L79.85 22.76Q80.22 22.71 81.10 22.64L81.12 22.66L81.06 22.60Q82.95 22.47 84.32 21.23L84.39 21.31L84.38 21.29Q85.87 20.17 86.02 18.31L85.93 18.22L85.87 18.15Q86.03 17.90 86.03 17.56L86.00 17.53L85.94 17.47Q85.93 15.94 84.56 15.02L84.55 15.01L84.69 15.15Q83.41 14.28 81.81 14.40L81.79 14.38L81.73 14.32Q80.59 14.32 79.37 14.74L79.35 14.72L79.35 14.73Q77.86 15.21 77.55 16.35L77.50 16.30L77.61 16.41Q77.31 17.06 77.38 17.82L77.42 17.85L77.36 17.80Q76.37 17.61 74.32 16.88L74.42 16.98L74.26 16.82Q74.17 15.29 74.20 14.45L74.20 14.44L74.14 14.38Q74.32 12.93 75.39 12.24L75.42 12.28L75.43 12.28Q76.67 11.51 78.27 11.51L78.36 11.60L78.35 11.59Q81.58 11.62 84.74 11.88L84.72 11.87L84.66 11.81Q89.64 12.14 89.34 15.91L89.52 16.10L89.47 16.05Q89.34 17.48 88.84 19.04L88.91 19.10L88.94 19.13Q87.91 22.10 85.55 23.01L85.64 23.10L85.59 23.06Q88.19 23.56 88.80 26.91L88.90 27.01L88.81 26.93Q89.05 28.08 89.13 30.10L89.17 30.14L89.13 30.10Q89.36 34.63 84.75 35.09L84.65 34.99L84.71 35.04Q83.85 34.99 78.56 35.25ZM83.88 37.60L83.90 37.62L83.90 37.63Q84.53 37.68 87.38 37.75L87.37 37.74L87.31 37.68Q89.09 37.78 90.72 37.13L90.74 37.15L90.71 37.12Q91.87 36.15 91.68 34.40L91.71 34.43L91.66 34.38Q91.57 33.07 91.27 31.32L91.31 31.37L91.29 31.34Q90.57 26.86 88.63 25.22L88.71 25.30L88.48 24.88L88.44 24.80L88.48 24.84Q90.11 23.27 90.87 18.89L90.85 18.87L90.90 18.92Q91.00 18.53 91.11 17.58L91.02 17.48L91.01 17.47Q91.06 16.68 90.98 16.00L91.13 16.15L91.02 16.03Q90.85 14.34 89.55 13.66L89.56 13.67L89.51 13.68L89.55 13.73Q89.23 12.72 88.08 12.19L88.06 12.16L88.17 12.28Q86.57 11.51 81.43 11.20L81.46 11.24L81.37 11.14Q79.83 11.21 78.24 11.21L78.08 11.06L78.17 11.15Q76.60 11.17 75.07 11.82L74.99 11.74L75.04 11.78Q73.78 12.50 73.78 14.26L73.78 14.26L73.87 14.34Q73.91 13.96 74.18 17.31L74.06 17.20L74.06 17.20Q74.43 17.34 76.07 17.95L76.05 17.93L76.04 17.92Q76.11 18.52 76.07 19.02L75.92 18.87L75.91 18.86Q75.93 19.37 75.97 19.91L75.95 19.88L76.05 19.98Q77.89 20.42 79.91 20.53L79.76 20.39L79.89 20.52Q79.71 18.40 80.82 17.56L80.77 17.51L80.77 17.51Q81.61 16.87 83.63 16.64L83.68 16.69L83.78 16.79Q84.76 16.63 85.33 16.82L85.36 16.85L85.53 17.01Q85.47 17.03 85.51 17.15L85.47 17.11L85.50 17.33L85.69 17.98L85.61 17.90Q85.68 18.15 85.64 18.31L85.54 18.21L85.63 18.30Q85.52 19.97 83.99 21.15L84.03 21.19L84.02 21.18Q83.05 22.03 81.03 22.22L81.00 22.20L81.10 22.29Q80.31 22.38 79.44 22.38L79.43 22.38L79.40 22.35Q79.47 22.72 79.62 23.40L79.57 23.35L79.54 23.33Q81.43 23.46 82.87 24.18L82.93 24.24L82.69 24.11L81.15 24.32L81.22 24.40Q81.12 24.60 81.23 25.21L81.42 25.39L81.25 25.23Q83.48 25.24 85.19 26.58L85.26 26.65L85.23 26.62Q85.34 26.87 85.64 28.51L85.76 28.63L85.66 28.53Q85.83 31.44 82.90 31.86L83.01 31.97L82.94 31.91Q80.85 32.17 80.28 32.13L80.25 32.10L80.24 32.09Q79.88 32.08 79.35 32.00L79.21 31.87L79.39 31.59L79.39 31.01L79.44 30.65L79.48 30.34L79.42 30.28Q78.54 30.44 77.74 30.63L77.72 30.60L77.73 30.62Q77.62 30.32 77.62 30.13L77.74 30.24L77.74 30.24Q77.81 30.09 77.81 29.86L77.74 29.79L77.83 29.88Q77.77 29.35 77.92 28.63L77.89 28.60L77.89 28.61Q76.05 28.85 74.18 29.20L74.19 29.20L74.26 29.28Q74.16 29.67 74.05 30.80L74.13 30.88L74.01 30.76Q73.91 31.89 73.91 32.50L73.92 32.52L73.95 32.54Q74.07 34.64 75.44 35.41L75.48 35.44L75.36 35.32Q76.93 37.70 81.65 37.51L81.57 37.42L81.63 37.48Q82.39 37.49 83.92 37.64Z"/><path fill="#222" d="M33.90 35.29L34.02 35.41L33.94 35.32Q30.99 31.46 28.36 22.82L28.37 22.82L28.43 22.89Q27.70 20.67 26.90 18.54L26.87 18.51L23.99 27.27L24.15 27.43Q22.19 32.21 19.79 35.45L19.91 35.57L19.85 35.51Q18.91 35.48 17.27 35.64L17.37 35.73L17.46 35.82Q17.41 34.48 17.41 33.22L17.54 33.35L17.42 33.23Q17.48 27.28 14.74 21.15L14.67 21.08L14.74 21.14Q11.65 14.29 5.79 9.30L5.78 9.29L5.76 9.27Q7.93 9.99 10.29 10.53L10.15 10.40L10.16 10.40Q18.82 18.83 20.12 29.80L20.29 29.97L20.21 29.90Q21.83 26.57 23.28 21.20L23.22 21.14L23.27 21.19Q25.20 13.64 25.69 12.23L25.86 12.39L28.07 12.36L27.99 12.28Q28.74 14.37 29.39 16.69L29.35 16.65L30.69 21.19L30.55 21.05Q32.16 26.54 33.57 29.77L33.56 29.77L33.56 29.77Q35.23 18.15 43.15 10.80L43.13 10.78L43.26 10.92Q44.76 10.55 47.73 9.91L47.65 9.82L47.57 9.74Q42.41 14.22 39.37 20.34L39.21 20.19L39.22 20.20Q36.12 26.42 36.12 33.20L36.16 33.24L36.14 33.22Q36.16 34.34 36.23 35.49L36.31 35.57L35.12 35.40L35.10 35.38Q34.56 35.37 33.99 35.37ZM40.22 38.26L40.27 38.31L40.30 38.33Q38.98 34.69 39.09 30.80L39.15 30.86L39.17 30.89Q39.50 19.33 48.86 11.07L48.75 10.96L48.80 11.01Q47.86 11.25 45.91 11.78L45.94 11.81L45.93 11.79Q46.84 10.91 48.74 9.13L48.81 9.19L48.73 9.11Q46.03 9.84 43.10 10.34L43.18 10.42L43.11 10.34Q35.69 17.55 33.79 27.03L33.74 26.98L33.70 26.93Q33.12 25.29 30.26 13.83L30.39 13.96L30.30 13.87Q30.01 14.07 29.06 14.07L29.05 14.07L28.69 12.94L28.64 12.90Q28.49 12.32 28.26 11.82L28.24 11.81L25.34 11.80L25.51 11.97Q24.52 14.25 23.24 19.37L23.27 19.40L23.35 19.48Q22.10 24.63 21.11 27.10L21.13 27.12L21.11 27.10Q19.46 19.13 13.90 12.81L13.86 12.77L13.84 12.75Q13.45 12.78 12.50 12.59L12.57 12.66L12.56 12.65Q11.77 11.75 10.21 10.11L10.30 10.20L10.30 10.20Q6.83 9.32 4.66 8.52L4.66 8.52L4.70 8.56Q10.37 13.24 13.65 19.45L13.52 19.32L13.69 19.49Q17.00 25.96 17.00 32.97L17.12 33.08L17.09 33.05Q17.10 34.63 16.91 36.23L16.91 36.22L16.81 36.13Q17.08 36.17 17.54 36.07L17.52 36.05L17.48 36.02Q18.01 35.99 18.24 35.99L18.16 35.91L18.21 36.99L18.30 37.08Q18.28 37.52 18.35 38.05L18.30 38.00L18.26 37.96Q19.39 37.87 21.67 37.71L21.70 37.74L21.79 37.83Q25.32 32.33 28.06 22.93L28.07 22.94L28.20 23.07Q30.94 31.83 33.91 35.79L33.87 35.75L33.84 35.72Q34.24 35.66 35.08 35.78L35.24 35.94L35.24 35.93Q36.08 36.97 37.15 38.04L37.12 38.00L37.07 37.96Q37.94 38.11 40.34 38.37Z"/><path fill="#111" d="M158.61 33.95L158.56 33.90L158.56 33.90Q160.55 31.63 165.31 24.35L165.18 24.22L165.15 24.19Q169.31 18.11 172.17 14.84L172.17 14.84L172.10 14.77Q170.00 15.07 167.90 15.07L167.93 15.09L168.00 15.16Q162.76 15.18 158.76 13.39L158.75 13.38L158.79 13.41Q158.12 11.49 157.44 9.93L157.35 9.84L157.25 9.74Q161.87 11.97 167.55 12.08L167.64 12.18L167.67 12.21Q172.67 12.15 177.85 10.25L177.88 10.27L177.89 10.28Q177.57 11.18 177.26 11.98L177.22 11.93L176.61 13.50L176.62 13.50Q173.54 17.12 169.54 22.95L169.58 22.98L166.21 27.76L166.18 27.73Q164.65 30.32 162.83 32.60L162.79 32.56L162.67 32.45Q166.11 31.97 169.42 32.04L169.38 32.00L169.39 32.01Q172.78 32.16 175.94 33.08L175.89 33.03L176.43 34.67L176.42 34.66Q176.65 35.46 176.99 36.30L176.97 36.28L177.00 36.31Q172.23 34.62 167.09 34.81L167.14 34.86L167.11 34.83Q162.02 35.07 157.52 37.08L157.45 37.02L157.50 37.06Q157.99 36.10 158.71 34.04ZM156.90 37.76L156.95 37.80L157.02 37.88Q158.20 37.23 159.00 36.96L159.00 36.96L158.84 36.81Q158.59 37.58 157.91 39.11L157.93 39.13L157.94 39.14Q163.72 37.07 169.69 37.30L169.59 37.20L169.70 37.31Q176.09 37.61 181.12 40.39L181.02 40.29L181.08 40.35Q179.66 37.94 178.86 35.77L178.79 35.70L178.80 35.71Q178.35 35.53 176.83 34.96L176.77 34.90L176.71 34.84Q176.57 34.12 176.15 32.64L176.23 32.72L176.18 32.67Q172.02 31.48 166.92 31.67L167.03 31.78L166.95 31.71Q169.03 28.91 172.57 23.35L172.60 23.38L172.59 23.37Q176.36 17.77 178.26 15.22L178.18 15.14L178.10 15.06Q178.71 13.77 179.74 11.07L179.73 11.05L179.74 11.07Q178.99 11.34 177.54 11.95L177.57 11.98L177.47 11.88Q177.90 11.17 178.62 9.64L178.71 9.73L178.61 9.63Q173.27 11.76 167.56 11.68L167.63 11.74L167.61 11.73Q161.66 11.64 156.71 9.13L156.68 9.10L156.66 9.08Q157.89 11.53 158.62 13.78L158.50 13.66L158.48 13.64Q159.70 14.29 160.50 14.52L160.45 14.47L160.37 14.38Q160.66 15.09 160.92 16.54L161.01 16.63L161.03 16.64Q164.75 17.70 169.62 17.51L169.53 17.42L169.60 17.49Q167.11 20.59 163.79 25.58L163.84 25.62L158.28 33.92L158.39 34.03Q158.04 35.31 157.01 37.87Z"/><path d="M17 29 C80 4,102 33,190 37" stroke="#666" fill="none"/><path d="M6 7 C94 12,120 12,194 10" stroke="#666" fill="none"/><path fill="#222" d="M110.13 24.08L110.08 24.04L110.13 24.09Q108.36 24.03 107.12 25.45L107.18 25.51L107.03 25.37Q105.86 26.86 105.67 28.76L105.71 28.81L105.76 28.85Q105.41 30.79 106.50 31.76L106.53 31.79L106.54 31.80Q107.55 32.70 109.65 32.59L109.67 32.61L109.67 32.61Q111.83 32.53 112.93 31.84L112.91 31.81L112.93 31.84Q114.10 30.76 114.10 29.19L113.97 29.07L114.01 29.11Q114.05 28.77 113.97 28.39L113.96 28.37L113.94 28.35Q114.13 26.80 113.03 25.44L112.97 25.39L113.00 25.41Q111.87 24.03 110.19 24.15ZM109.79 35.28L109.80 35.29L109.71 35.20Q105.43 35.30 104.02 34.54L103.95 34.47L103.89 34.40Q102.95 33.73 102.76 32.02L102.80 32.06L102.63 31.89Q102.71 31.33 102.75 30.61L102.63 30.49L102.71 30.56Q102.93 29.68 102.93 29.22L102.78 29.07L102.92 29.21Q103.21 26.19 103.37 25.51L103.51 25.65L103.51 25.65Q103.96 23.70 104.79 22.29L104.66 22.16L104.70 22.20Q107.33 17.78 113.27 11.43L113.27 11.43L113.27 11.43Q115.99 11.18 118.20 10.38L118.24 10.42L118.28 10.46Q111.42 17.92 108.23 22.15L108.10 22.02L108.21 22.13Q109.12 21.56 110.42 21.56L110.42 21.56L110.39 21.53Q113.85 21.68 115.38 23.62L115.20 23.45L115.37 23.61Q116.64 25.19 116.98 28.73L117.06 28.81L117.06 28.81Q117.05 29.44 117.05 30.05L117.01 30.02L116.97 29.97Q117.06 33.18 114.85 34.25L114.75 34.15L114.76 34.16Q113.62 34.85 109.73 35.23ZM111.97 37.57L111.92 37.53L112.06 37.67Q113.23 37.50 115.21 37.58L115.33 37.70L115.37 37.74Q117.03 37.84 118.59 37.11L118.48 37.00L118.58 37.10Q119.69 36.31 119.69 34.52L119.59 34.42L119.63 34.46Q119.52 33.86 119.35 32.87L119.44 32.96L119.36 32.88Q119.21 31.91 119.21 31.46L119.31 31.55L119.22 31.46Q118.30 26.70 116.70 24.80L116.75 24.85L116.78 24.87Q116.72 24.77 116.56 24.55L116.50 24.48L116.24 24.29L116.19 24.29L116.17 24.26Q115.77 23.71 115.16 22.76L115.30 22.90L115.30 22.90Q114.26 21.82 112.28 21.36L112.24 21.32L112.36 21.44Q113.50 19.77 116.47 16.08L116.43 16.03L120.73 10.82L120.75 10.84Q119.11 11.63 116.71 12.39L116.88 12.56L116.74 12.42Q117.63 11.41 119.42 9.43L119.51 9.52L119.40 9.41Q117.05 10.53 113.17 11.10L113.10 11.03L113.29 11.22Q107.50 17.04 104.53 21.99L104.49 21.95L104.48 21.94Q103.08 24.58 102.51 30.82L102.44 30.74L102.49 30.80Q102.34 31.30 102.42 32.25L102.44 32.27L102.43 32.26Q102.51 34.01 103.61 34.93L103.64 34.96L103.52 34.84Q103.95 35.04 103.91 35.08L103.93 35.09L103.96 35.13Q104.30 36.00 105.10 36.42L105.08 36.39L105.03 36.35Q106.50 37.06 108.44 37.25L108.57 37.37L108.45 37.26Q108.43 37.23 111.93 37.53ZM111.88 26.48L111.73 26.34L111.78 26.38Q112.29 26.21 113.24 26.71L113.23 26.69L113.28 26.75Q113.75 27.82 113.75 28.47L113.73 28.45L113.63 28.35Q113.94 30.33 112.99 31.32L112.83 31.17L112.83 31.17Q111.77 31.89 109.67 32.20L109.78 32.30L109.72 32.24Q108.29 32.26 107.76 32.00L107.77 32.00L107.85 32.08Q107.63 31.60 107.63 31.30L107.49 31.15L107.63 31.30Q107.42 28.04 110.35 26.74L110.25 26.65L110.20 26.59Q111.05 26.34 111.82 26.42Z"/></svg>