<svg xmlns="http://www.w3.org/2000/svg" width="200" height="40" viewBox="0,0,200,40"><path fill="#444" d="M53.78 35.18L53.82 35.22L51.48 28.42L51.45 28.39Q46.98 15.70 41.04 9.30L41.01 9.27L41.15 9.42Q43.18 10.50 45.77 11.10L45.60 10.93L45.77 11.10Q50.88 17.35 55.22 30.10L55.07 29.96L55.16 30.05Q58.21 21.94 58.90 20.34L58.87 20.32L58.90 20.35Q61.32 14.78 64.14 11.47L64.07 11.40L64.20 11.52Q66.26 11.15 68.89 10.27L68.72 10.11L68.83 10.21Q64.21 14.77 61.16 22.00L61.26 22.10L61.21 22.05Q59.72 25.63 56.03 35.14L56.09 35.20L56.14 35.25Q55.55 35.24 54.98 35.20L54.98 35.19L54.92 35.14Q54.30 35.09 53.73 35.13ZM58.81 37.62L58.81 37.61L58.83 37.64Q61.57 27.59 63.13 23.56L63.12 23.54L63.16 23.58Q66.14 15.86 70.55 10.99L70.63 11.06L70.65 11.09Q69.59 11.44 67.50 12.16L67.37 12.03L68.53 10.71L68.54 10.73Q69.24 10.17 69.85 9.52L69.83 9.51L69.86 9.53Q66.96 10.44 63.95 11.01L63.90 10.96L64.04 11.09Q59.66 16.43 55.78 27.89L55.61 27.72L55.63 27.74Q52.12 17.76 48.92 13.38L48.94 13.40L48.74 13.20Q48.38 13.14 47.50 12.98L47.68 13.16L47.51 12.99Q47.43 12.76 45.83 10.70L45.74 10.62L45.75 10.63Q42.85 9.97 40.14 8.56L40.00 8.42L40.12 8.53Q46.65 15.52 51.02 28.31L51.17 28.45L51.02 28.31Q52.37 32.10 53.55 35.67L53.41 35.53L53.42 35.54Q53.81 35.63 54.65 35.51L54.65 35.52L54.76 35.63Q55.01 36.22 55.70 37.55L55.75 37.60L55.66 37.51Q56.48 37.42 57.21 37.50L57.38 37.67L57.32 37.62Q58.08 37.65 58.84 37.65Z"/><path fill="#222" d="M22.81 24.65L22.74 24.58L22.84 24.68Q22.82 28.93 22.10 33.08L22.03 33.01L21.98 32.96Q24.36 32.52 27.44 32.41L27.45 32.42L27.33 32.30Q28.82 32.64 29.88 31.63L29.84 31.59L29.85 31.59Q30.84 30.51 30.84 29.18L30.78 29.12L30.93 29.27Q30.93 28.97 30.90 28.70L30.77 28.58L30.80 28.60Q30.76 25.79 28.52 24.95L28.44 24.87L28.35 24.78Q27.74 24.63 27.05 24.71L27.02 24.68L26.93 24.58Q25.85 24.49 24.82 24.53L24.95 24.66L24.95 24.66Q23.75 24.57 22.73 24.57ZM21.61 14.24L21.53 14.16L21.51 14.14Q22.51 17.58 22.78 21.95L22.63 21.81L22.64 21.82Q24.13 21.97 26.80 22.01L26.88 22.09L26.76 21.97Q29.74 22.06 30.08 18.52L30.20 18.64L30.07 18.51Q30.21 16.52 28.80 15.68L28.90 15.78L28.96 15.84Q27.95 15.21 23.53 14.56L23.57 14.60L23.56 14.59Q22.50 14.44 21.58 14.21ZM18.00 37.16L17.99 37.15L17.99 37.16Q20.45 30.48 20.19 23.09L20.22 23.13L20.08 22.98Q19.88 15.78 16.94 9.31L16.92 9.28L16.87 9.24Q20.72 11.83 26.95 12.07L26.99 12.12L26.84 11.96Q33.20 12.35 33.54 15.24L33.54 15.24L33.46 15.16Q33.80 17.94 32.40 20.61L32.49 20.70L32.48 20.69Q31.76 22.22 30.17 22.91L30.16 22.90L30.00 22.74Q33.83 23.60 34.05 28.97L33.87 28.79L33.90 28.81Q33.94 29.88 33.86 31.29L33.86 31.28L34.04 31.46Q33.90 32.69 32.97 33.63L32.92 33.58L33.03 33.69Q32.07 34.59 30.73 34.74L30.66 34.67L30.75 34.76Q29.18 34.75 28.11 34.75L28.16 34.80L28.27 34.91Q22.46 34.81 17.93 37.10ZM30.63 37.31L30.77 37.44L30.64 37.32Q31.60 37.40 33.47 37.51L33.53 37.58L33.54 37.58Q34.90 37.58 36.00 36.70L36.15 36.84L36.06 36.76Q36.88 35.86 36.76 34.30L36.70 34.24L36.70 34.24Q36.64 33.31 35.92 29.84L35.94 29.86L35.99 29.91Q35.18 26.55 33.31 25.06L33.44 25.20L32.96 24.29L32.90 24.23Q34.62 22.87 35.20 19.11L35.24 19.15L35.12 19.03Q35.36 17.97 35.28 16.57L35.23 16.51L35.27 16.55Q35.26 15.29 34.15 14.45L34.16 14.45L34.09 14.38Q33.74 14.15 33.63 14.11L33.67 14.16L33.68 14.16Q33.39 13.61 32.55 12.81L32.63 12.89L32.69 12.94Q31.01 11.72 26.78 11.53L26.79 11.54L26.94 11.69Q20.25 11.35 16.25 8.46L16.34 8.55L16.16 8.37Q19.63 15.57 19.93 23.11L19.86 23.03L19.89 23.07Q20.24 30.92 17.43 37.84L17.29 37.70L19.51 36.92L19.36 36.78Q18.97 37.90 18.47 39.04L18.47 39.04L18.46 39.03Q22.84 37.25 27.87 37.25L27.90 37.27L27.85 37.22Q29.27 37.24 30.71 37.39ZM28.67 26.93L28.49 26.75L28.51 26.77Q29.27 26.73 30.18 27.19L30.25 27.25L30.27 27.27Q30.37 27.61 30.53 28.67L30.55 28.69L30.54 28.69Q30.72 30.05 29.78 31.09L29.65 30.96L29.72 31.03Q28.85 32.14 27.45 32.03L27.37 31.95L26.02 32.20L25.87 32.05Q25.13 32.11 24.41 32.23L24.43 32.25L24.42 32.24Q24.78 30.47 24.86 27.01L24.84 26.99L24.72 26.87Q25.45 26.87 26.71 26.84L26.66 26.79L26.77 26.90Q27.92 26.76 28.53 26.79ZM27.53 17.23L27.61 17.31L28.03 17.34L27.90 17.22Q28.08 17.17 28.27 17.21L28.31 17.25L28.84 17.39L29.18 17.55L29.71 17.54L29.77 17.60Q29.80 17.78 29.80 18.09L29.81 18.10L29.77 18.59L29.76 18.58Q29.72 19.80 28.84 20.73L28.98 20.87L28.80 20.68Q27.97 21.67 26.75 21.67L26.78 21.69L26.86 21.78Q25.78 21.72 25.78 21.72L25.86 21.80L25.74 21.68Q24.38 21.61 24.72 21.61L24.72 21.61L24.69 21.58Q24.74 20.14 24.43 17.10L24.49 17.15L24.36 17.02Q25.95 17.17 27.48 17.17Z"/><path fill="#222" d="M133.74 14.15L133.76 14.17L133.75 14.17Q134.81 18.58 134.97 21.78L135.11 21.92L135.05 21.86Q135.46 21.82 139.84 21.94L139.86 21.95L139.92 22.01Q142.55 22.13 142.93 18.67L142.81 18.54L142.96 18.69Q143.05 16.84 142.13 15.93L142.11 15.90L142.17 15.96Q140.86 15.04 138.88 14.89L138.83 14.83L138.93 14.93Q135.53 14.54 133.66 14.08ZM135.24 23.88L135.16 23.81L135.10 23.74Q135.35 29.81 133.56 35.75L133.64 35.83L133.49 35.68Q132.40 36.16 129.82 37.19L129.81 37.18L129.66 37.03Q132.48 30.53 132.14 23.06L132.16 23.09L132.14 23.06Q131.86 15.74 128.55 9.23L128.66 9.34L128.65 9.33Q133.43 12.05 140.39 12.05L140.46 12.12L140.42 12.09Q146.12 12.15 146.39 15.69L146.34 15.64L146.27 15.57Q146.42 16.26 146.35 16.87L146.28 16.80L146.23 17.97L146.18 17.92Q145.32 21.82 143.19 23.53L143.37 23.71L143.31 23.66Q142.44 24.26 141.41 24.26L141.42 24.28L138.80 24.24L138.78 24.23Q144.54 31.62 149.07 36.19L149.03 36.15L149.08 36.19Q146.81 35.38 143.88 35.04L143.79 34.94L143.77 34.92Q140.10 31.06 135.19 23.83ZM143.71 35.36L143.75 35.40L144.13 35.47L145.25 36.60L145.30 36.65Q145.93 37.24 146.58 37.84L146.50 37.77L146.49 37.76Q150.07 38.41 153.65 40.28L153.63 40.25L153.61 40.23Q146.79 33.61 141.39 26.68L141.21 26.51L143.03 26.57L143.12 26.66Q146.09 26.55 147.43 22.02L147.37 21.96L147.53 22.12Q148.11 19.81 148.11 17.11L148.06 17.06L148.10 17.10Q148.11 14.82 146.39 14.17L146.44 14.22L146.42 14.20Q146.39 13.90 145.82 13.22L145.81 13.21L145.71 13.11Q144.10 11.73 140.45 11.65L140.52 11.72L140.41 11.61Q132.47 11.40 127.79 8.40L127.95 8.56L127.86 8.46Q131.60 15.29 131.94 22.98L131.88 22.92L131.94 22.97Q132.20 30.85 129.07 37.70L129.16 37.78L129.08 37.71Q130.33 37.13 131.13 36.82L131.24 36.93L130.17 39.14L130.17 39.14Q132.94 38.15 135.61 37.65L135.52 37.56L135.56 37.60Q136.84 32.49 137.03 27.27L137.03 27.27L137.10 27.34Q140.48 32.17 143.64 35.29ZM142.54 17.51L142.52 17.49L142.47 17.45Q142.57 17.77 142.57 18.12L142.43 17.97L142.45 18.57L142.47 18.58Q142.43 19.65 141.74 20.60L141.89 20.74L141.84 20.70Q141.15 21.38 140.24 21.57L140.38 21.72L140.27 21.60Q140.08 21.68 138.48 21.71L138.50 21.74L138.46 21.69Q137.87 21.72 137.03 21.60L137.16 21.73L137.11 21.68Q137.03 20.19 136.69 17.14L136.71 17.17L136.55 17.01Q138.11 17.35 138.80 17.35L138.61 17.17L138.69 17.24Q140.53 17.26 142.48 17.45Z"/><path d="M19 7 C88 23,113 33,190 35" stroke="#777" fill="none"/><path d="M13 26 C89 39,87 26,194 18" stroke="#333" fill="none"/><path fill="#222" d="M110.45 35.28L110.42 35.25L107.99 28.36L107.94 28.31Q103.62 15.77 97.68 9.37L97.73 9.42L97.73 9.42Q99.59 10.33 102.18 10.94L102.16 10.93L102.18 10.94Q107.36 17.26 111.70 30.01L111.64 29.95L111.68 30.00Q114.84 22.00 115.52 20.40L115.50 20.38L115.37 20.25Q117.84 14.73 120.66 11.41L120.65 11.40L120.63 11.38Q122.69 11.01 125.32 10.13L125.32 10.14L125.40 10.22Q120.72 14.70 117.67 21.94L117.65 21.92L117.73 21.99Q116.38 25.71 112.69 35.23L112.64 35.18L112.60 35.14Q112.02 35.13 111.45 35.09L111.59 35.24L111.53 35.18Q110.85 35.07 110.28 35.11ZM115.44 37.68L115.31 37.55L115.45 37.69Q118.23 27.68 119.79 23.64L119.82 23.67L119.65 23.50Q122.74 15.89 127.15 11.02L127.17 11.03L127.14 11.01Q126.13 11.40 124.03 12.12L123.97 12.06L125.24 10.86L125.19 10.81Q125.84 10.20 126.45 9.55L126.40 9.50L126.36 9.46Q123.46 10.37 120.46 10.94L120.53 11.02L120.47 10.96Q116.14 16.33 112.26 27.79L112.29 27.82L112.23 27.77Q108.53 17.59 105.33 13.21L105.47 13.36L105.44 13.32Q105.00 13.18 104.12 13.03L104.12 13.04L104.17 13.08Q103.97 12.73 102.37 10.68L102.35 10.65L102.36 10.66Q99.40 9.95 96.70 8.54L96.66 8.50L96.72 8.56Q103.22 15.52 107.60 28.31L107.67 28.39L107.68 28.40Q108.85 32.00 110.03 35.58L110.02 35.57L110.04 35.59Q110.47 35.72 111.31 35.60L111.20 35.49L111.22 35.51Q111.58 36.21 112.26 37.54L112.25 37.54L112.23 37.51Q113.05 37.42 113.78 37.50L113.90 37.62L113.81 37.54Q114.56 37.56 115.32 37.56Z"/><path fill="#333" d="M81.98 24.22L82.04 24.28L82.02 24.27Q80.08 24.19 78.86 25.52L78.93 25.59L78.88 25.54Q77.56 26.77 77.41 28.68L77.47 28.74L77.48 28.74Q77.33 30.92 78.55 31.93L78.50 31.87L78.44 31.81Q79.83 33.00 81.96 32.92L81.85 32.81L81.78 32.74Q84.16 32.65 85.11 31.69L85.10 31.68L85.15 31.73Q86.18 30.29 86.06 28.46L86.08 28.48L86.12 28.51Q85.99 26.64 84.91 25.44L84.86 25.39L84.86 25.39Q83.70 24.12 81.87 24.12ZM82.00 14.84L81.87 14.71L81.97 14.80Q80.53 14.67 79.20 15.16L79.25 15.21L79.12 15.08Q77.78 15.83 78.01 17.70L78.12 17.82L78.07 17.76Q78.58 21.51 81.93 21.51L81.95 21.53L81.99 21.57Q83.44 21.65 84.43 20.50L84.56 20.64L84.57 20.64Q85.55 19.50 85.59 17.94L85.47 17.82L85.51 17.86Q85.64 16.16 84.92 15.55L84.88 15.51L84.96 15.59Q83.11 14.58 81.82 14.66ZM81.69 35.36L81.54 35.21L78.57 35.28L78.61 35.32Q77.02 35.26 75.69 34.38L75.67 34.35L75.82 34.51Q74.36 33.28 74.52 30.43L74.62 30.52L74.55 30.46Q75.06 23.66 78.67 22.67L78.62 22.61L78.60 22.60Q76.34 21.71 75.01 16.34L74.98 16.31L75.04 16.37Q74.64 14.91 74.72 14.11L74.79 14.18L74.78 14.17Q74.96 11.91 78.65 11.87L78.67 11.89L78.69 11.91Q82.91 11.83 84.36 12.02L84.44 12.10L84.32 11.98Q88.23 12.58 88.68 14.59L88.73 14.64L88.78 14.69Q88.78 15.19 88.78 15.57L88.87 15.65L88.73 15.51Q88.88 16.35 88.69 16.96L88.69 16.96L88.62 16.89Q87.96 21.06 85.02 22.58L85.11 22.67L84.97 22.53Q88.57 23.43 89.07 28.72L89.01 28.66L88.98 28.64Q89.01 28.82 89.05 30.11L89.01 30.07L89.18 30.24Q89.25 32.97 87.65 34.04L87.67 34.06L87.66 34.06Q86.18 34.82 81.62 35.28ZM83.96 37.66L84.02 37.72L87.28 37.71L87.27 37.70Q89.04 37.83 90.56 37.11L90.57 37.12L90.50 37.04Q91.75 36.43 91.83 34.56L91.67 34.41L91.73 34.47Q91.78 33.37 91.39 31.43L91.37 31.41L91.34 31.38Q90.45 26.75 88.35 24.88L88.29 24.82L88.28 24.62L88.00 24.27L87.93 24.09L87.86 24.01Q89.58 22.72 90.49 18.57L90.33 18.41L90.46 18.54Q90.32 18.02 90.39 17.18L90.54 17.33L90.43 17.22Q90.52 16.55 90.45 15.94L90.49 15.98L90.57 16.06Q90.28 14.48 89.10 13.98L89.17 14.06L89.13 13.98L88.92 13.84L88.99 13.91Q88.70 13.16 87.52 12.36L87.47 12.31L87.53 12.34L87.63 12.43Q85.64 11.74 81.56 11.55L81.47 11.46L81.49 11.48Q79.99 11.42 78.62 11.54L78.67 11.59L78.61 11.53Q77.75 11.51 76.46 11.66L76.49 11.69L76.47 11.67Q74.54 12.06 74.31 13.69L74.40 13.79L74.25 13.64Q74.25 14.17 74.29 14.97L74.41 15.09L74.41 15.09Q74.49 15.60 75.07 17.96L75.03 17.92L75.04 17.93Q75.75 21.08 77.50 22.41L77.62 22.53L77.59 22.49L77.62 22.53Q74.84 23.82 74.31 29.00L74.36 29.05L74.30 28.99Q74.18 31.27 74.18 32.18L74.12 32.12L74.09 32.09Q74.28 33.99 75.46 34.91L75.34 34.79L75.30 34.75Q75.50 34.92 75.77 35.11L75.78 35.11L75.74 35.07Q76.76 37.36 83.88 37.58ZM83.55 26.51L83.54 26.51L83.57 26.53Q84.49 26.47 85.37 26.92L85.39 26.95L85.44 26.99Q85.69 27.86 85.65 28.39L85.77 28.51L85.62 28.35Q85.82 28.83 85.82 29.13L85.83 29.14L85.73 29.04Q85.66 31.33 83.38 32.17L83.51 32.30L83.39 32.18Q82.77 32.66 81.97 32.55L81.85 32.43L81.78 32.36Q80.76 32.56 79.62 32.10L79.58 32.06L79.54 32.02Q79.35 31.45 79.43 30.46L79.50 30.54L79.40 30.44Q79.49 28.77 80.69 27.56L80.71 27.58L80.71 27.58Q81.89 26.34 83.49 26.46ZM83.74 17.00L83.80 17.06L83.76 17.02Q84.70 17.04 85.23 17.19L85.18 17.14L85.09 17.85L85.16 17.93Q85.15 19.33 84.24 20.33L84.23 20.33L84.22 20.31Q83.27 21.29 81.90 21.10L82.04 21.23L82.01 21.21Q80.93 21.12 80.51 20.89L80.52 20.90L80.57 20.95Q80.56 20.71 80.44 20.02L80.29 19.87L80.45 20.03Q80.03 18.47 81.25 17.63L81.35 17.73L81.37 17.75Q82.41 17.04 83.82 17.08Z"/><path fill="#333" d="M175.57 18.19L175.77 18.39L175.75 18.36Q173.94 14.20 167.74 14.39L167.75 14.40L167.66 14.31Q163.32 14.50 161.34 15.94L161.30 15.90L161.42 16.03Q158.86 17.62 158.86 21.73L159.00 21.87L158.91 23.65L159.02 23.75Q158.99 32.55 168.01 32.55L167.94 32.48L168.03 32.57Q170.08 32.56 171.56 31.76L171.48 31.68L171.59 31.79Q173.38 30.73 173.23 28.86L173.24 28.87L173.23 28.86Q172.92 26.66 169.23 25.74L169.23 25.74L167.42 25.88L167.35 25.80Q166.46 25.86 165.50 25.90L165.45 25.85L165.40 25.80Q165.54 24.98 165.50 23.07L165.34 22.92L165.48 23.06Q173.05 22.97 177.23 22.63L177.26 22.66L177.22 22.62Q177.16 23.43 177.16 24.23L177.14 24.21L177.16 24.23Q177.17 25.04 177.21 25.84L177.30 25.93L177.32 25.95Q176.17 25.91 176.17 25.91L176.21 25.94L176.16 25.90Q174.73 25.83 175.11 25.83L175.11 25.83L175.20 25.92Q176.32 27.58 176.70 29.55L176.67 29.53L176.59 29.45Q176.81 30.27 176.81 30.73L176.72 30.64L176.65 30.58Q176.69 35.25 167.89 35.25L167.96 35.32L167.94 35.30Q160.87 35.35 158.28 33.25L158.22 33.20L158.30 33.28Q156.22 30.81 156.22 25.75L156.22 25.74L156.25 25.77Q156.26 24.73 156.11 22.02L156.17 22.08L156.02 21.93Q155.98 19.68 156.01 18.31L156.04 18.33L156.05 18.35Q156.14 15.47 157.51 13.87L157.49 13.85L157.44 13.79Q160.10 11.85 164.97 11.66L164.85 11.53L167.60 11.54L167.59 11.53Q170.64 11.39 174.07 11.81L174.16 11.90L174.15 11.89Q177.92 12.39 178.88 15.63L178.77 15.52L178.81 15.57Q177.86 16.56 175.77 18.38ZM177.07 20.48L177.25 20.55L177.23 20.53Q178.45 19.46 180.31 17.48L180.22 17.39L180.29 17.46Q179.85 16.38 178.86 14.66L178.97 14.77L178.87 14.67Q177.75 12.07 173.94 11.42L173.88 11.36L174.02 11.50Q171.77 11.26 167.46 10.95L167.64 11.13L164.79 11.09L164.80 11.10Q159.78 11.45 157.19 13.43L157.04 13.28L157.08 13.32Q155.80 15.05 155.68 18.13L155.60 18.05L155.70 18.15Q155.71 17.70 155.94 23.19L155.93 23.18L155.83 23.07Q155.91 24.49 155.99 27.23L155.86 27.10L155.98 27.22Q156.17 31.68 157.92 33.62L157.94 33.63L157.92 33.61Q158.37 34.52 159.24 35.40L159.10 35.26L159.09 35.25Q162.12 37.24 167.64 37.59L167.56 37.51L170.42 37.66L170.49 37.74Q172.11 37.87 174.13 37.76L174.15 37.78L174.16 37.79Q175.62 37.72 177.71 37.19L177.68 37.16L177.69 37.17Q179.53 36.57 179.49 34.25L179.57 34.33L179.59 34.35Q179.54 33.05 178.48 30.27L178.49 30.28L178.46 30.25Q178.23 29.41 177.69 28.61L177.63 28.55L177.67 28.58Q178.32 28.66 179.50 28.85L179.41 28.76L179.45 28.80Q179.13 25.17 179.17 24.48L179.18 24.50L179.08 24.40Q178.72 24.42 178.30 24.38L178.27 24.35L178.27 24.35Q178.04 24.46 177.66 24.54L177.56 24.44L177.48 24.36Q177.62 23.39 177.69 22.33L177.66 22.29L177.61 22.24Q171.29 22.70 165.01 22.58L165.12 22.70L165.08 22.66Q165.11 23.56 165.11 24.48L165.19 24.55L165.05 26.17L165.13 26.25Q165.53 26.27 165.95 26.23L165.95 26.23L165.99 26.27Q166.40 26.26 166.85 26.26L166.81 26.22L166.71 26.11Q166.90 26.76 166.93 27.25L166.81 27.13L166.89 27.21Q166.79 27.56 166.75 28.06L166.83 28.14L166.85 28.16Q167.80 28.04 168.82 28.00L168.81 27.98L168.88 28.06Q169.86 28.01 170.89 28.05L170.98 28.14L170.99 28.14Q172.07 28.42 172.94 28.80L172.81 28.67L172.76 28.67L172.84 28.74Q173.03 30.30 171.35 31.21L171.37 31.23L171.36 31.22Q169.61 32.06 167.90 32.06L168.05 32.22L167.98 32.15Q164.04 32.05 161.61 30.30L161.68 30.37L161.70 30.40Q160.85 28.47 161.00 25.92L161.00 25.92L160.90 25.82Q161.26 21.08 163.10 19.08L163.04 19.01L162.96 18.94Q164.82 16.96 169.51 16.65L169.63 16.78L169.55 16.70Q173.24 16.50 175.18 18.29L175.14 18.25L175.25 18.36Q175.26 18.41 175.38 18.60L175.42 18.64L175.56 18.67L175.53 18.64Q176.21 19.43 176.78 20.54L176.61 20.37L176.95 20.37Z"/></svg>