<svg xmlns="http://www.w3.org/2000/svg" width="200" height="40" viewBox="0,0,200,40"><path fill="#333" d="M138.17 35.15L138.31 35.29L138.18 35.16Q134.80 35.36 133.16 34.82L133.12 34.78L133.06 34.72Q131.21 34.20 130.91 30.82L130.92 30.83L132.33 29.73L132.30 29.69Q133.00 29.14 133.76 28.65L133.87 28.76L133.81 28.70Q133.60 30.65 135.19 31.87L135.19 31.86L135.15 31.83Q136.38 32.79 138.51 32.60L138.50 32.58L138.60 32.69Q142.90 32.19 142.71 28.65L142.79 28.73L142.82 28.76Q142.53 26.37 139.90 25.16L140.00 25.25L140.06 25.31Q137.14 24.18 134.78 22.97L134.71 22.90L134.79 22.98Q132.26 21.66 131.27 16.98L131.19 16.89L131.30 17.01Q131.17 16.53 131.05 15.77L131.03 15.75L131.07 15.79Q130.98 15.01 131.05 14.44L131.04 14.42L131.00 14.39Q131.12 12.75 132.37 12.30L132.35 12.28L132.35 12.27Q134.83 11.47 138.82 11.66L138.75 11.59L138.75 11.59Q140.59 11.72 141.39 11.79L141.34 11.75L141.39 11.80Q142.93 12.04 143.99 12.50L144.01 12.51L143.95 12.45Q146.10 12.97 146.33 15.44L146.37 15.48L146.36 15.47Q145.26 16.12 143.05 17.46L142.96 17.36L143.00 17.40Q142.65 14.46 138.27 14.46L138.19 14.38L138.19 14.38Q136.33 14.42 135.34 15.11L135.40 15.17L135.34 15.11Q134.14 15.59 134.37 17.38L134.32 17.33L134.37 17.38Q134.76 19.71 137.73 21.23L137.68 21.18L137.72 21.22Q138.23 21.42 142.72 23.06L142.62 22.96L142.57 22.91Q145.20 24.40 145.62 28.78L145.79 28.95L145.76 28.92Q145.69 29.00 145.76 30.25L145.86 30.35L145.70 30.19Q145.87 33.06 144.31 34.17L144.38 34.24L144.27 34.13Q142.44 35.12 138.26 35.24ZM140.67 37.72L140.51 37.56L140.52 37.57Q142.08 37.76 144.06 37.76L144.07 37.78L143.98 37.68Q146.17 37.78 147.42 37.36L147.34 37.27L147.45 37.38Q148.59 36.47 148.51 34.68L148.48 34.64L148.48 34.65Q148.49 33.70 148.11 31.65L148.15 31.69L147.98 31.52Q147.24 27.01 145.14 25.14L145.09 25.09L145.13 25.13Q144.22 23.42 142.89 22.70L142.91 22.72L137.62 20.66L137.61 20.65Q137.24 20.44 136.79 20.21L136.91 20.34L136.80 19.96L136.64 19.46L136.75 19.56Q136.55 18.11 137.69 17.50L137.71 17.52L137.64 17.45Q138.57 17.04 140.28 16.85L140.28 16.85L140.24 16.81Q141.30 16.62 142.45 17.08L142.43 17.06L142.56 17.19Q142.46 17.13 142.65 17.96L142.75 18.06L142.84 18.15Q142.88 17.85 143.37 17.62L143.34 17.59L143.52 17.77Q144.09 18.53 144.20 19.67L144.22 19.69L144.20 19.67Q144.29 19.65 147.95 17.06L148.05 17.16L148.07 17.18Q147.75 14.50 146.30 13.82L146.31 13.83L146.37 13.88Q145.63 12.46 144.19 11.93L144.32 12.06L144.23 11.97Q141.97 11.19 138.77 11.19L138.86 11.29L138.80 11.22Q133.81 11.15 131.95 11.83L132.09 11.98L132.02 11.90Q130.73 12.40 130.61 14.08L130.55 14.01L130.61 14.08Q130.51 14.55 130.93 16.76L130.92 16.75L130.96 16.78Q131.59 20.50 133.76 22.75L133.77 22.75L133.70 22.69Q134.66 24.55 136.16 25.24L136.03 25.11L136.08 25.16Q137.52 25.78 141.44 27.34L141.52 27.41L141.54 27.48L142.13 27.77L142.30 27.97L142.24 27.91Q142.39 28.33 142.43 28.67L142.40 28.64L142.49 28.74Q142.44 32.07 138.51 32.22L138.59 32.30L138.52 32.22Q137.36 32.24 136.06 31.86L136.02 31.82L136.14 31.94Q135.69 31.00 135.69 30.27L135.82 30.40L135.76 30.34Q135.68 29.99 135.71 29.72L135.72 29.73L135.87 29.88Q135.45 30.11 134.65 30.60L134.52 30.47L134.52 30.47Q134.07 29.41 134.22 28.04L134.18 28.00L134.24 28.06Q132.24 29.33 130.64 30.74L130.57 30.66L130.56 30.66Q130.54 31.40 130.62 32.43L130.60 32.42L130.59 32.40Q131.10 34.32 132.39 35.08L132.39 35.08L132.29 34.98Q133.56 36.86 136.11 37.24L136.02 37.15L136.08 37.21Q137.71 37.51 140.64 37.70Z"/><path fill="#222" d="M57.55 22.24L57.52 22.21L57.49 22.17Q58.21 22.10 59.62 21.94L59.61 21.93L59.64 21.97Q59.69 22.70 59.69 23.35L59.58 23.23L59.72 24.63L59.57 24.48Q58.77 24.53 57.94 24.60L57.91 24.57L58.03 24.70Q57.06 24.60 56.22 24.56L56.36 24.70L56.35 24.69Q53.55 30.91 50.12 35.52L50.08 35.48L49.95 35.34Q47.45 36.00 46.15 36.61L46.30 36.76L46.23 36.69Q50.25 30.89 53.30 24.61L53.28 24.59L50.81 24.74L50.79 24.72Q50.80 23.40 50.68 22.07L50.68 22.06L50.70 22.08Q52.61 22.24 54.67 22.24L54.54 22.12L56.46 18.44L56.43 18.42Q57.42 16.51 58.64 14.91L58.69 14.97L58.70 14.97Q57.17 15.16 55.57 15.16L55.48 15.06L55.47 15.05Q49.47 15.14 45.70 12.93L45.60 12.83L45.05 11.22L45.12 11.29Q44.79 10.46 44.41 9.59L44.30 9.48L44.29 9.47Q48.58 12.05 54.29 12.28L54.40 12.38L54.42 12.40Q59.44 12.52 64.58 10.54L64.61 10.56L64.61 10.57Q64.37 10.93 63.88 11.81L64.04 11.97L63.98 11.91Q60.31 16.62 57.45 22.14ZM65.63 13.33L65.54 13.25L66.51 11.21L66.64 11.34Q65.65 11.79 63.97 12.52L63.90 12.44L64.21 12.26L64.14 12.19Q64.24 12.02 64.35 11.91L64.39 11.95L64.35 11.91Q64.78 11.27 65.50 9.94L65.45 9.88L65.42 9.85Q60.20 12.24 54.45 12.01L54.36 11.92L54.36 11.92Q48.32 11.63 43.56 8.66L43.67 8.77L43.52 8.62Q44.71 10.66 45.55 13.32L45.51 13.28L45.51 13.28Q46.64 13.95 47.44 14.26L47.37 14.19L47.34 14.16Q47.48 14.49 47.94 16.36L47.93 16.35L48.01 16.43Q51.13 17.65 56.65 17.49L56.62 17.46L56.71 17.55Q56.39 18.11 54.41 21.87L54.40 21.86L54.40 21.86Q52.28 21.80 50.30 21.61L50.28 21.59L50.37 21.68Q50.45 22.52 50.45 23.40L50.47 23.41L50.33 24.99L51.99 24.98L52.05 26.44L52.08 26.47Q48.16 33.85 45.38 37.43L45.31 37.37L45.28 37.34Q47.05 36.74 48.68 36.25L48.68 36.25L48.61 36.17Q47.86 37.03 46.49 38.74L46.59 38.83L46.51 38.76Q49.69 37.67 52.13 37.44L52.06 37.38L52.15 37.47Q55.04 33.66 58.16 26.88L58.27 26.99L61.72 27.20L61.69 27.18Q61.60 26.25 61.60 25.33L61.63 25.36L61.64 23.58L61.58 23.52Q61.32 23.53 60.77 23.57L60.77 23.57L60.80 23.60Q60.15 23.54 59.88 23.54L59.96 23.62L60.02 23.67Q59.96 23.50 60.00 23.35L59.90 23.25L59.90 22.98L59.91 22.99Q62.51 17.94 65.59 13.30Z"/><path fill="#333" d="M25.13 35.25L25.15 35.28L25.18 35.30Q21.61 35.31 19.98 34.78L19.98 34.78L20.08 34.89Q18.00 34.13 17.69 30.75L17.75 30.81L19.21 29.75L19.24 29.77Q19.89 29.17 20.65 28.68L20.64 28.67L20.60 28.62Q20.45 30.64 22.05 31.86L21.98 31.79L21.94 31.76Q23.25 32.80 25.39 32.61L25.41 32.64L25.32 32.55Q29.84 32.27 29.65 28.73L29.65 28.73L29.57 28.65Q29.35 26.34 26.72 25.12L26.75 25.14L26.76 25.15Q24.04 24.22 21.68 23.01L21.61 22.93L21.66 22.98Q19.00 21.54 18.01 16.86L18.15 17.00L18.05 16.90Q17.88 16.39 17.76 15.63L17.78 15.64L17.83 15.69Q17.76 14.93 17.83 14.36L17.89 14.42L17.89 14.42Q17.94 12.72 19.20 12.26L19.27 12.34L19.32 12.39Q21.71 11.50 25.70 11.69L25.63 11.62L25.69 11.67Q27.49 11.76 28.29 11.84L28.30 11.85L28.35 11.90Q29.85 12.10 30.92 12.56L30.86 12.50L30.80 12.45Q32.95 12.96 33.18 15.43L33.18 15.43L33.21 15.47Q32.17 16.18 29.96 17.51L29.89 17.44L29.97 17.51Q29.55 14.51 25.17 14.51L25.06 14.39L25.10 14.44Q23.19 14.43 22.20 15.11L22.14 15.05L22.24 15.15Q20.99 15.57 21.21 17.36L21.21 17.36L21.36 17.51Q21.49 19.58 24.46 21.11L24.41 21.06L24.52 21.17Q25.13 21.47 29.62 23.10L29.45 22.93L29.54 23.02Q32.06 24.40 32.48 28.78L32.60 28.90L32.48 28.78Q32.63 29.08 32.71 30.34L32.68 30.31L32.67 30.31Q32.75 33.09 31.19 34.19L31.07 34.07L31.25 34.25Q29.35 35.17 25.17 35.29ZM27.33 37.53L27.34 37.54L27.49 37.69Q28.96 37.78 30.94 37.78L30.83 37.68L30.92 37.76Q32.95 37.71 34.21 37.29L34.22 37.30L34.28 37.36Q35.46 36.48 35.38 34.69L35.39 34.70L35.39 34.70Q35.37 33.73 34.99 31.67L34.85 31.54L34.91 31.59Q34.03 26.95 31.94 25.08L31.98 25.12L31.96 25.10Q31.25 23.59 29.92 22.87L29.86 22.81L24.43 20.62L24.50 20.69Q24.22 20.56 23.76 20.33L23.72 20.29L23.69 20.00L23.58 19.54L23.49 19.45Q23.51 18.22 24.65 17.61L24.52 17.48L24.61 17.56Q25.41 17.03 27.13 16.84L27.12 16.83L27.01 16.73Q28.22 16.68 29.36 17.14L29.41 17.19L29.38 17.15Q29.44 17.26 29.63 18.09L29.63 18.09L29.67 18.13Q29.72 17.84 30.21 17.61L30.25 17.64L30.24 17.63Q30.94 18.52 31.05 19.66L31.19 19.80L31.15 19.76Q31.12 19.61 34.77 17.02L34.86 17.11L34.91 17.16Q34.55 14.44 33.10 13.76L33.10 13.75L33.08 13.73Q32.56 12.53 31.12 12.00L31.05 11.93L31.22 12.10Q28.82 11.19 25.62 11.19L25.69 11.26L25.67 11.23Q20.74 11.22 18.87 11.90L18.83 11.86L18.89 11.92Q17.60 12.42 17.48 14.09L17.51 14.12L17.42 14.02Q17.29 14.47 17.71 16.68L17.75 16.72L17.89 16.85Q18.41 20.46 20.58 22.71L20.63 22.76L20.73 22.86Q21.36 24.40 22.87 25.09L23.04 25.27L22.96 25.19Q24.53 25.93 28.45 27.49L28.42 27.46L28.38 27.46L29.00 27.77L29.09 27.90L29.16 27.97Q29.29 28.37 29.33 28.71L29.25 28.64L29.17 28.55Q29.26 32.03 25.34 32.19L25.40 32.24L25.42 32.27Q24.26 32.29 22.97 31.91L22.97 31.92L23.01 31.95Q22.64 31.09 22.64 30.37L22.68 30.40L22.64 30.36Q22.61 30.07 22.65 29.80L22.64 29.79L22.67 29.82Q22.30 30.10 21.50 30.59L21.55 30.64L21.51 30.60Q20.89 29.38 21.05 28.01L21.05 28.01L21.15 28.11Q19.01 29.25 17.41 30.65L17.43 30.67L17.32 30.56Q17.48 31.48 17.55 32.51L17.44 32.39L17.63 32.59Q17.88 34.25 19.18 35.01L19.17 35.00L19.24 35.07Q20.31 36.75 22.86 37.13L23.02 37.29L22.93 37.20Q24.42 37.36 27.35 37.55Z"/><path d="M9 16 C119 39,99 29,195 37" stroke="#333" fill="none"/><path fill="#333" d="M81.68 35.23L81.71 35.26L81.76 35.31Q78.15 35.28 76.52 34.75L76.59 34.82L76.52 34.76Q74.60 34.17 74.30 30.78L74.23 30.72L75.76 29.73L75.65 29.62Q76.40 29.11 77.16 28.62L77.32 28.77L77.29 28.75Q76.95 30.57 78.54 31.79L78.57 31.81L78.49 31.73Q79.94 32.92 82.07 32.73L81.95 32.61L81.90 32.56Q86.38 32.24 86.19 28.70L86.08 28.59L86.10 28.61Q86.09 26.51 83.47 25.29L83.38 25.20L83.33 25.15Q80.52 24.14 78.16 22.92L78.26 23.01L78.17 22.92Q75.53 21.51 74.54 16.82L74.69 16.97L74.56 16.84Q74.48 16.42 74.37 15.66L74.34 15.63L74.47 15.76Q74.27 14.87 74.34 14.30L74.47 14.43L74.44 14.40Q74.57 12.78 75.83 12.32L75.83 12.33L75.83 12.32Q78.30 11.52 82.30 11.71L82.18 11.60L82.27 11.69Q84.02 11.72 84.82 11.79L84.89 11.86L84.83 11.81Q86.39 12.07 87.45 12.53L87.46 12.53L87.47 12.55Q89.56 12.99 89.79 15.47L89.78 15.46L89.74 15.42Q88.66 16.09 86.45 17.43L86.51 17.48L86.57 17.55Q86.11 14.49 81.73 14.49L81.66 14.43L81.66 14.42Q79.86 14.52 78.87 15.21L78.81 15.16L78.76 15.11Q77.65 15.66 77.87 17.45L77.88 17.45L77.86 17.43Q78.11 19.63 81.08 21.15L80.98 21.06L81.12 21.19Q81.52 21.29 86.01 22.93L86.15 23.06L86.09 23.01Q88.66 24.44 89.08 28.81L89.17 28.90L89.11 28.84Q89.14 29.02 89.22 30.28L89.31 30.37L89.31 30.37Q89.23 33.00 87.67 34.10L87.77 34.20L87.72 34.15Q85.93 35.18 81.74 35.29ZM84.06 37.68L83.92 37.55L83.99 37.62Q85.52 37.77 87.50 37.77L87.33 37.60L87.37 37.65Q89.44 37.62 90.69 37.20L90.75 37.25L90.77 37.27Q91.96 36.41 91.88 34.62L91.91 34.65L91.92 34.66Q91.96 33.75 91.58 31.69L91.42 31.53L91.53 31.64Q90.61 26.95 88.52 25.09L88.39 24.97L88.46 25.03Q87.66 23.43 86.33 22.71L86.32 22.70L80.99 20.60L81.06 20.68Q80.73 20.50 80.27 20.27L80.36 20.36L80.12 19.85L80.23 19.62L80.07 19.46Q80.05 18.18 81.19 17.57L81.20 17.58L81.20 17.58Q81.96 17.01 83.68 16.82L83.57 16.72L83.68 16.82Q84.83 16.71 85.97 17.17L85.94 17.14L85.84 17.04Q85.94 17.18 86.13 18.02L86.08 17.97L86.19 18.08Q86.35 17.89 86.84 17.66L86.81 17.64L86.83 17.65Q87.50 18.52 87.62 19.66L87.66 19.70L87.63 19.67Q87.82 19.75 91.48 17.16L91.34 17.02L91.42 17.11Q91.15 14.47 89.70 13.79L89.80 13.88L89.73 13.81Q89.19 12.59 87.74 12.06L87.63 11.94L87.68 11.99Q85.39 11.19 82.20 11.19L82.28 11.28L82.13 11.12Q77.38 11.28 75.51 11.97L75.39 11.85L75.45 11.91Q74.16 12.41 74.05 14.09L73.94 13.98L74.03 14.07Q74.03 14.63 74.45 16.84L74.41 16.81L74.32 16.71Q75.13 20.61 77.30 22.86L77.21 22.77L77.29 22.84Q78.07 24.54 79.57 25.22L79.57 25.22L79.58 25.23Q81.05 25.88 84.97 27.44L84.87 27.35L84.90 27.41L85.63 27.83L85.55 27.79L85.55 27.79Q85.78 28.29 85.82 28.63L85.90 28.71L85.89 28.70Q85.99 32.19 82.07 32.35L81.95 32.22L82.07 32.35Q80.85 32.30 79.55 31.92L79.44 31.81L79.41 31.78Q79.17 31.04 79.17 30.32L79.22 30.37L79.28 30.43Q79.26 30.14 79.30 29.88L79.31 29.89L79.21 29.79Q78.77 30.00 77.97 30.50L77.96 30.48L78.04 30.56Q77.56 29.47 77.71 28.10L77.64 28.02L77.60 27.99Q75.61 29.27 74.01 30.68L73.95 30.62L73.99 30.66Q73.99 31.42 74.06 32.45L74.06 32.45L74.01 32.40Q74.55 34.34 75.84 35.10L75.70 34.96L75.78 35.04Q77.06 36.93 79.61 37.31L79.51 37.21L79.50 37.20Q81.05 37.41 83.98 37.60Z"/><path fill="#333" d="M110.29 14.63L110.36 14.70L108.64 14.66L108.63 14.65Q106.52 14.90 106.29 16.92L106.22 16.85L106.19 16.82Q106.14 17.57 106.18 18.56L106.20 18.58L106.17 18.55Q106.22 20.50 107.47 21.83L107.53 21.88L107.43 21.79Q108.81 23.24 110.71 23.09L110.72 23.10L110.66 23.04Q112.82 22.99 113.58 22.07L113.45 21.94L113.43 21.93Q114.52 21.04 114.79 18.79L114.73 18.73L114.88 18.88Q115.04 16.53 113.78 15.69L113.91 15.82L113.77 15.68Q113.04 15.02 110.37 14.71ZM116.40 23.94L116.32 23.86L115.10 26.22L114.99 26.11Q112.42 31.04 108.65 35.11L108.62 35.09L108.59 35.05Q106.97 35.22 104.27 36.02L104.22 35.97L104.23 35.98Q109.60 29.74 112.76 24.95L112.75 24.94L112.75 24.94Q111.78 25.64 110.14 25.72L109.97 25.55L110.03 25.60Q107.04 25.77 105.51 23.79L105.44 23.72L105.49 23.76Q104.28 22.17 103.17 17.61L103.27 17.70L103.16 17.59Q103.27 17.24 103.12 16.31L102.96 16.15L103.02 16.21Q102.91 15.32 102.91 14.87L102.82 14.77L102.93 14.89Q102.82 12.99 103.89 12.38L104.03 12.53L104.05 12.54Q105.15 11.67 107.02 11.67L107.14 11.79L106.99 11.64Q110.29 11.74 110.29 11.74L110.21 11.66L110.33 11.78Q112.45 11.77 113.70 11.96L113.67 11.92L113.71 11.96Q115.86 12.25 116.77 12.74L116.68 12.64L116.72 12.69Q118.06 13.42 118.25 15.17L118.32 15.25L118.25 15.17Q118.28 15.43 118.09 18.09L118.14 18.15L118.02 18.02Q117.76 20.28 117.54 21.12L117.54 21.13L117.46 21.05Q117.16 22.53 116.39 23.94ZM118.17 26.20L118.16 26.19L118.25 26.29Q119.29 24.13 119.83 19.83L119.86 19.87L119.72 19.73Q119.99 17.52 119.96 16.65L119.95 16.64L120.04 16.73Q119.92 14.78 118.74 13.87L118.77 13.90L118.45 13.77L118.37 13.70Q118.14 12.96 117.22 12.32L117.25 12.34L117.34 12.44Q115.07 11.46 110.27 11.31L110.25 11.29L110.25 11.28Q109.23 11.21 106.79 11.21L106.81 11.23L106.79 11.21Q104.98 11.15 103.49 11.83L103.68 12.02L103.55 11.89Q102.36 12.65 102.44 14.48L102.52 14.55L102.43 14.46Q102.72 15.48 102.91 17.49L102.84 17.42L102.81 17.39Q103.56 20.17 103.83 21.00L103.83 21.00L103.86 21.04Q104.34 22.80 105.29 24.10L105.40 24.21L105.22 24.03Q105.50 24.38 105.88 24.76L105.91 24.79L105.99 24.88Q106.16 25.24 106.81 26.15L106.80 26.14L106.84 26.18Q108.42 27.65 110.36 27.84L110.29 27.77L110.32 27.80Q108.33 30.38 106.77 32.28L106.84 32.35L103.25 36.76L103.25 36.76Q105.49 35.99 107.13 35.65L107.08 35.60L107.13 35.65Q106.38 36.54 104.82 38.25L104.81 38.24L104.83 38.26Q107.84 37.27 110.96 37.23L110.95 37.22L110.89 37.16Q113.24 34.61 117.58 27.37L117.62 27.41L117.57 27.44L117.59 27.45Q117.83 26.70 118.17 26.21ZM112.19 16.99L112.27 17.07L112.21 17.02Q112.74 16.82 113.20 16.93L113.27 17.01L113.38 17.12Q114.01 17.21 114.39 17.32L114.24 17.17L114.35 17.28Q114.50 17.70 114.58 18.12L114.56 18.10L114.50 18.05Q114.66 18.55 114.55 18.93L114.38 18.76L114.57 18.96Q114.34 20.48 113.16 21.58L113.23 21.65L113.16 21.58Q112.32 22.72 110.69 22.68L110.73 22.73L110.59 22.59Q110.25 22.67 108.73 22.36L108.72 22.35L108.79 22.42Q108.54 21.52 108.54 20.80L108.46 20.73L108.47 20.73Q108.33 20.40 108.33 20.17L108.49 20.33L108.50 20.34Q108.52 18.15 110.80 17.35L110.62 17.17L110.66 17.21Q111.47 17.11 112.30 17.11Z"/><path d="M7 31 C89 10,99 27,198 23" stroke="#111" fill="none"/><path fill="#222" d="M162.04 14.17L162.13 14.26L162.07 14.21Q163.11 18.59 163.26 21.79L163.32 21.85L163.37 21.90Q163.84 21.92 168.22 22.03L168.18 21.99L168.21 22.02Q170.69 21.99 171.07 18.52L171.08 18.53L171.08 18.53Q171.41 16.91 170.49 16.00L170.38 15.88L170.32 15.83Q169.22 15.10 167.24 14.95L167.18 14.90L167.11 14.83Q163.86 14.58 161.99 14.13ZM163.40 23.75L163.52 23.87L163.48 23.83Q163.73 29.91 161.94 35.84L161.90 35.81L161.86 35.77Q160.63 36.10 158.04 37.13L158.11 37.19L157.93 37.01Q160.83 30.59 160.49 23.12L160.46 23.10L160.47 23.11Q160.24 15.83 156.93 9.32L156.95 9.34L156.81 9.21Q161.68 12.02 168.65 12.02L168.78 12.16L168.62 12.00Q174.24 11.98 174.51 15.52L174.65 15.67L174.64 15.65Q174.59 16.14 174.51 16.75L174.57 16.81L174.43 17.88L174.62 18.07Q173.67 21.88 171.54 23.59L171.49 23.55L171.53 23.58Q170.66 24.20 169.63 24.20L169.76 24.33L167.14 24.30L167.17 24.33Q172.81 31.60 177.34 36.17L177.21 36.04L177.20 36.03Q175.05 35.33 172.12 34.98L172.18 35.04L172.20 35.07Q168.38 31.05 163.47 23.82ZM172.03 35.39L172.03 35.39L172.31 35.36L173.63 36.68L173.65 36.71Q174.11 37.13 174.76 37.74L174.87 37.85L174.88 37.86Q178.38 38.43 181.96 40.29L181.92 40.25L181.84 40.18Q175.01 33.54 169.60 26.61L169.60 26.61L171.32 26.57L171.27 26.52Q174.51 26.68 175.84 22.15L175.75 22.06L175.84 22.15Q176.43 19.84 176.43 17.14L176.51 17.22L176.43 17.14Q176.44 14.87 174.73 14.22L174.66 14.15L174.69 14.18Q174.53 13.76 173.96 13.08L173.99 13.10L174.10 13.21Q172.28 11.62 168.62 11.54L168.77 11.69L168.68 11.60Q160.92 11.57 156.24 8.56L156.12 8.44L156.19 8.51Q159.92 15.33 160.27 23.02L160.28 23.03L160.16 22.91Q160.63 30.99 157.50 37.85L157.48 37.82L157.35 37.69Q158.75 37.26 159.55 36.96L159.40 36.81L158.53 39.22L158.49 39.18Q161.28 38.20 163.95 37.70L163.97 37.72L163.97 37.72Q165.07 32.43 165.26 27.21L165.29 27.25L165.26 27.22Q168.82 32.22 171.98 35.34ZM170.69 17.38L170.72 17.41L170.70 17.39Q170.74 17.65 170.74 17.99L170.84 18.10L170.78 18.61L170.79 18.62Q170.80 19.74 170.12 20.69L170.17 20.74L170.14 20.71Q169.47 21.41 168.56 21.60L168.55 21.60L168.68 21.72Q168.42 21.74 166.83 21.78L166.81 21.76L166.67 21.62Q166.11 21.67 165.27 21.55L165.40 21.68L165.32 21.60Q165.23 20.10 164.89 17.06L164.98 17.15L164.91 17.08Q166.23 17.18 166.91 17.18L167.06 17.33L167.08 17.35Q168.82 17.26 170.76 17.45Z"/></svg>