<svg xmlns="http://www.w3.org/2000/svg" width="200" height="40" viewBox="0,0,200,40"><path fill="#333" d="M81.59 35.14L81.70 35.25L81.64 35.19Q78.14 35.27 76.50 34.73L76.57 34.81L76.66 34.89Q74.60 34.16 74.29 30.77L74.30 30.78L75.83 29.80L75.74 29.70Q76.44 29.15 77.20 28.66L77.28 28.74L77.23 28.69Q76.96 30.58 78.56 31.80L78.60 31.84L78.64 31.89Q79.90 32.88 82.04 32.69L82.05 32.70L82.05 32.71Q86.36 32.22 86.17 28.68L86.18 28.69L86.13 28.63Q85.94 26.36 83.31 25.14L83.39 25.21L83.36 25.19Q80.50 24.11 78.14 22.89L78.19 22.94L78.22 22.97Q75.57 21.54 74.58 16.86L74.64 16.92L74.64 16.92Q74.49 16.43 74.38 15.67L74.46 15.75L74.36 15.65Q74.40 15.00 74.47 14.43L74.41 14.37L74.47 14.43Q74.50 12.71 75.76 12.25L75.83 12.33L75.89 12.38Q78.25 11.47 82.24 11.66L82.29 11.70L82.29 11.70Q84.06 11.76 84.86 11.84L84.78 11.76L84.81 11.79Q86.30 11.98 87.37 12.44L87.44 12.52L87.49 12.56Q89.49 12.93 89.72 15.40L89.80 15.48L89.72 15.40Q88.67 16.10 86.46 17.43L86.50 17.48L86.41 17.38Q86.07 14.46 81.69 14.46L81.67 14.43L81.58 14.34Q79.76 14.43 78.77 15.11L78.77 15.11L78.82 15.16Q77.68 15.70 77.91 17.49L77.82 17.40L77.81 17.39Q78.08 19.60 81.05 21.12L81.03 21.10L81.13 21.21Q81.51 21.28 86.01 22.92L86.01 22.92L86.03 22.94Q88.69 24.46 89.10 28.83L89.23 28.96L89.24 28.97Q89.09 28.97 89.17 30.23L89.17 30.23L89.12 30.18Q89.23 33.00 87.67 34.10L87.79 34.22L87.69 34.12Q85.85 35.09 81.66 35.21ZM84.09 37.72L84.08 37.70L83.91 37.53Q85.38 37.63 87.36 37.63L87.50 37.78L87.35 37.63Q89.48 37.66 90.73 37.24L90.80 37.30L90.77 37.28Q92.00 36.45 91.92 34.66L91.87 34.61L91.93 34.67Q91.82 33.61 91.44 31.55L91.58 31.69L91.49 31.60Q90.63 26.97 88.53 25.10L88.41 24.98L88.51 25.08Q87.69 23.46 86.36 22.74L86.34 22.72L80.98 20.60L80.99 20.60Q80.73 20.50 80.27 20.27L80.30 20.30L80.27 20.00L80.22 19.61L80.25 19.64Q80.01 18.14 81.16 17.54L81.13 17.51L81.22 17.60Q81.93 16.98 83.64 16.79L83.61 16.75L83.55 16.69Q84.82 16.71 85.97 17.17L85.90 17.11L85.90 17.10Q85.90 17.14 86.09 17.97L86.25 18.14L86.10 17.98Q86.35 17.90 86.85 17.67L86.95 17.78L86.77 17.59Q87.51 18.52 87.62 19.66L87.68 19.72L87.63 19.67Q87.78 19.71 91.44 17.12L91.50 17.18L91.33 17.02Q91.10 14.42 89.66 13.74L89.65 13.73L89.63 13.71Q89.13 12.53 87.68 12.00L87.75 12.06L87.62 11.93Q85.41 11.21 82.21 11.21L82.30 11.30L82.25 11.25Q77.38 11.29 75.52 11.97L75.37 11.83L75.51 11.97Q74.15 12.40 74.04 14.08L74.01 14.05L73.95 13.99Q73.87 14.48 74.29 16.69L74.38 16.78L74.44 16.84Q75.13 20.61 77.30 22.86L77.20 22.75L77.30 22.85Q78.11 24.58 79.61 25.26L79.51 25.16L79.57 25.22Q81.08 25.91 85.00 27.47L84.95 27.42L84.91 27.42L85.57 27.77L85.69 27.93L85.61 27.85Q85.78 28.29 85.82 28.63L85.92 28.73L85.73 28.54Q85.81 32.01 81.88 32.16L82.01 32.29L82.02 32.29Q80.83 32.29 79.54 31.91L79.58 31.95L79.56 31.93Q79.25 31.12 79.25 30.40L79.16 30.31L79.11 30.26Q79.29 30.17 79.33 29.90L79.28 29.86L79.31 29.89Q78.88 30.11 78.08 30.60L77.98 30.50L78.12 30.64Q77.61 29.53 77.77 28.16L77.72 28.11L77.60 27.99Q75.68 29.34 74.08 30.75L73.96 30.63L73.95 30.62Q74.04 31.48 74.12 32.50L74.20 32.58L74.18 32.56Q74.40 34.20 75.70 34.96L75.68 34.94L75.64 34.90Q76.99 36.86 79.54 37.24L79.46 37.16L79.50 37.19Q81.05 37.42 83.99 37.61Z"/><path fill="#222" d="M25.39 24.20L25.35 24.17L25.44 24.25Q23.58 24.26 22.36 25.59L22.24 25.47L22.37 25.60Q21.16 26.95 21.01 28.85L20.92 28.76L20.86 28.70Q20.79 30.94 22.00 31.95L21.86 31.81L21.93 31.88Q23.15 32.89 25.29 32.82L25.36 32.89L25.31 32.84Q27.63 32.68 28.58 31.73L28.52 31.68L28.51 31.67Q29.63 30.31 29.51 28.48L29.43 28.40L29.46 28.42Q29.37 26.58 28.28 25.38L28.36 25.47L28.37 25.47Q27.25 24.24 25.42 24.24ZM25.35 14.76L25.27 14.68L25.37 14.78Q23.90 14.61 22.57 15.10L22.54 15.07L22.50 15.04Q21.24 15.87 21.47 17.73L21.45 17.72L21.50 17.77Q21.93 21.43 25.28 21.43L25.41 21.56L25.32 21.47Q26.96 21.74 27.95 20.60L27.84 20.48L27.85 20.50Q28.98 19.49 29.01 17.93L28.92 17.84L29.05 17.97Q28.94 16.02 28.21 15.42L28.25 15.46L28.31 15.51Q26.64 14.68 25.35 14.76ZM25.03 35.27L24.98 35.21L21.95 35.23L21.96 35.25Q20.41 35.21 19.08 34.34L19.11 34.37L19.15 34.41Q17.81 33.30 17.96 30.44L17.99 30.47L17.98 30.46Q18.40 23.57 22.01 22.58L22.04 22.61L22.12 22.69Q19.70 21.64 18.37 16.27L18.46 16.36L18.32 16.22Q17.98 14.81 18.06 14.02L18.16 14.11L18.07 14.03Q18.45 11.97 22.14 11.93L22.05 11.84L22.16 11.95Q26.34 11.83 27.79 12.02L27.89 12.12L27.86 12.09Q31.69 12.61 32.14 14.63L32.21 14.69L32.11 14.59Q32.17 15.15 32.17 15.53L32.30 15.66L32.17 15.53Q32.27 16.31 32.08 16.92L31.96 16.80L32.06 16.91Q31.43 21.11 28.50 22.63L28.44 22.57L28.51 22.64Q32.01 23.43 32.50 28.73L32.47 28.69L32.54 28.77Q32.41 28.79 32.45 30.08L32.54 30.18L32.63 30.26Q32.54 32.84 30.94 33.91L31.10 34.06L30.92 33.89Q29.65 34.86 25.08 35.32ZM27.41 37.68L27.35 37.63L30.75 37.75L30.63 37.63Q32.34 37.70 33.86 36.98L33.86 36.97L33.86 36.98Q35.07 36.33 35.15 34.46L35.19 34.50L35.06 34.37Q35.29 33.46 34.91 31.52L34.88 31.49L34.91 31.52Q33.93 26.80 31.84 24.94L31.76 24.87L31.68 24.59L31.39 24.23L31.33 24.06L31.28 24.00Q32.95 22.66 33.86 18.51L33.87 18.52L33.88 18.54Q33.78 18.05 33.86 17.21L33.88 17.23L33.98 17.34Q34.02 16.62 33.94 16.01L33.99 16.05L33.97 16.03Q33.66 14.42 32.48 13.93L32.63 14.09L32.69 14.11L32.33 13.82L32.50 13.99Q32.12 13.15 30.94 12.35L31.04 12.45L30.98 12.36L30.97 12.35Q29.08 11.75 25.01 11.56L24.94 11.49L24.96 11.51Q23.39 11.39 22.02 11.51L22.03 11.52L21.97 11.46Q21.31 11.63 20.01 11.78L20.00 11.77L20.00 11.77Q17.98 12.07 17.75 13.71L17.71 13.67L17.70 13.66Q17.80 14.29 17.84 15.09L17.78 15.03L17.82 15.07Q17.88 15.55 18.45 17.91L18.37 17.84L18.53 17.99Q19.33 21.23 21.08 22.56L20.94 22.42L21.02 22.50L21.10 22.58Q18.31 23.86 17.77 29.04L17.79 29.05L17.67 28.93Q17.58 31.24 17.58 32.16L17.55 32.13L17.57 32.15Q17.63 33.92 18.81 34.83L18.83 34.85L18.85 34.87Q18.84 34.82 19.11 35.01L19.22 35.13L19.29 35.19Q20.18 37.34 27.30 37.57ZM26.98 26.51L27.05 26.59L26.92 26.46Q27.94 26.49 28.82 26.94L28.76 26.89L28.83 26.96Q29.23 27.97 29.20 28.50L29.23 28.54L29.06 28.37Q29.17 28.74 29.17 29.05L29.27 29.15L29.17 29.05Q29.20 31.44 26.92 32.28L26.96 32.32L26.91 32.27Q26.17 32.64 25.37 32.52L25.35 32.50L25.39 32.54Q24.13 32.50 22.98 32.04L23.08 32.13L23.10 32.15Q22.73 31.40 22.81 30.41L22.93 30.53L22.94 30.55Q22.92 28.78 24.12 27.56L24.25 27.69L24.15 27.59Q25.46 26.48 27.06 26.60ZM27.17 17.00L27.30 17.13L27.25 17.08Q28.08 16.99 28.61 17.14L28.57 17.11L28.50 17.84L28.56 17.90Q28.61 19.35 27.69 20.36L27.63 20.29L27.61 20.28Q26.72 21.31 25.35 21.12L25.46 21.23L25.29 21.05Q24.47 21.23 24.05 21.00L23.96 20.91L23.90 20.85Q23.90 20.62 23.79 19.94L23.72 19.86L23.81 19.96Q23.53 18.54 24.75 17.70L24.82 17.77L24.79 17.74Q25.77 16.97 27.18 17.01Z"/><path d="M8 26 C83 35,82 28,183 15" stroke="#555" fill="none"/><path fill="#111" d="M120.94 18.13L120.93 18.12L120.97 18.15Q119.06 20.78 116.39 26.41L116.32 26.34L114.43 30.69L114.31 30.57Q113.62 32.66 112.28 34.90L112.22 34.84L112.26 34.88Q112.69 34.85 111.01 34.89L110.95 34.83L111.03 34.90Q110.93 34.81 109.68 34.81L109.72 34.85L109.81 34.94Q109.03 33.40 106.10 26.25L106.09 26.24L106.09 26.24Q103.98 20.93 101.89 17.92L101.75 17.78L101.86 17.89Q102.64 20.99 102.64 24.15L102.49 24.01L102.60 24.11Q102.53 30.56 99.56 36.12L99.50 36.05L99.53 36.08Q98.27 36.49 95.91 37.22L95.93 37.24L95.99 37.30Q99.68 31.63 99.68 24.39L99.57 24.28L99.58 24.30Q99.65 15.42 94.24 8.45L94.13 8.34L94.17 8.37Q95.90 9.19 98.26 9.88L98.20 9.81L98.25 9.87Q105.25 16.56 111.34 29.88L111.35 29.90L111.32 29.87Q114.91 22.95 117.12 19.45L117.02 19.35L117.06 19.39Q120.63 13.59 124.59 10.12L124.47 10.01L124.54 10.08Q125.82 9.88 128.18 9.12L128.26 9.19L128.16 9.09Q123.15 15.69 123.15 24.30L123.15 24.30L123.25 24.40Q123.13 30.94 126.56 36.46L126.54 36.45L126.60 36.51Q125.31 36.24 122.57 35.64L122.59 35.65L122.56 35.63Q120.25 30.88 120.25 24.90L120.18 24.83L120.25 24.89Q120.18 21.41 120.87 18.05ZM122.32 35.95L122.43 36.07L122.45 36.08Q123.04 36.10 124.49 36.37L124.54 36.42L124.51 36.39Q124.98 37.17 125.94 38.66L125.84 38.56L125.86 38.58Q128.11 39.12 131.57 40.33L131.54 40.30L131.53 40.29Q125.23 33.91 125.23 24.09L125.23 24.09L125.27 24.13Q125.29 16.42 129.66 10.29L129.68 10.31L127.41 10.93L127.34 10.86Q128.42 9.39 129.07 8.52L129.14 8.59L129.07 8.52Q127.27 9.23 124.64 9.76L124.51 9.63L124.59 9.70Q117.79 15.77 111.73 28.37L111.73 28.37L111.79 28.43Q106.50 17.35 101.55 12.10L101.51 12.06L101.68 12.23Q101.25 12.10 100.68 11.99L100.63 11.94L99.46 10.69L99.49 10.72Q98.90 10.06 98.22 9.45L98.23 9.47L98.15 9.38Q95.16 8.45 93.37 7.72L93.31 7.67L93.33 7.69Q99.36 14.93 99.36 24.34L99.37 24.35L99.34 24.31Q99.36 31.95 95.21 37.81L95.23 37.83L95.16 37.76Q95.94 37.63 97.23 37.21L97.07 37.05L97.20 37.18Q96.98 37.34 95.57 39.43L95.73 39.59L95.63 39.50Q97.34 38.92 100.85 38.16L100.98 38.29L100.99 38.30Q104.66 31.20 104.47 23.44L104.43 23.39L104.39 23.35Q106.05 27.49 109.51 35.37L109.53 35.39L109.38 35.23Q109.69 35.23 109.91 35.23L109.96 35.28L110.50 35.28L110.49 35.28Q110.84 35.86 111.64 37.15L111.71 37.22L111.77 37.28Q113.23 37.11 113.23 37.11L113.26 37.14L113.36 37.23Q114.29 37.14 114.94 37.21L114.93 37.21L114.93 37.20Q116.63 33.31 119.98 25.31L119.95 25.28L119.81 25.15Q119.82 30.71 122.41 36.04Z"/><path fill="#444" d="M47.06 10.91L47.03 10.87L47.09 10.94Q48.87 15.68 49.44 20.86L49.50 20.92L49.55 20.98Q53.22 16.80 59.12 11.97L59.18 12.03L59.08 11.93Q62.18 11.53 64.81 10.73L64.83 10.75L58.42 16.52L58.35 16.45Q55.03 19.49 52.18 22.35L51.99 22.16L52.02 22.19Q60.03 31.38 65.10 36.10L65.02 36.02L65.11 36.12Q62.04 35.21 59.72 35.06L59.60 34.95L59.60 34.94Q53.95 29.67 49.65 23.85L49.67 23.87L49.53 23.73Q49.70 30.41 47.84 35.74L47.95 35.86L47.93 35.84Q47.68 35.85 47.18 36.04L47.22 36.08L47.17 36.22L47.06 36.11Q46.96 36.24 44.41 37.15L44.34 37.09L44.26 37.00Q47.23 30.45 46.89 22.99L46.91 23.02L46.88 22.99Q46.61 15.71 43.07 9.20L43.10 9.23L43.68 9.54L43.95 9.71L44.09 9.81L44.08 9.79Q44.83 10.20 47.04 10.88ZM47.34 10.62L47.26 10.54L47.32 10.59Q45.00 9.99 42.37 8.46L42.37 8.46L42.43 8.52Q46.70 15.80 46.70 24.75L46.66 24.71L46.57 24.62Q46.67 31.73 43.71 37.78L43.80 37.88L45.74 36.92L45.62 36.80Q45.40 37.99 44.72 39.29L44.68 39.25L44.63 39.20Q46.81 38.33 48.75 37.91L48.79 37.96L48.83 37.77L48.90 37.83Q49.25 37.88 49.82 37.73L49.82 37.73L49.74 37.65Q51.32 31.65 51.43 26.85L51.51 26.93L51.51 26.93Q53.63 29.47 55.46 31.34L55.39 31.27L55.51 31.39Q56.65 32.45 59.65 35.42L59.63 35.39L59.68 35.45L59.57 35.33Q60.73 36.30 62.60 37.90L62.53 37.83L62.48 37.79Q66.35 38.50 69.82 40.21L69.95 40.35L69.94 40.33Q60.56 31.68 54.31 24.25L54.23 24.17L54.31 24.25Q58.77 20.02 67.52 11.42L67.52 11.42L67.49 11.39Q64.88 12.47 62.86 12.85L62.95 12.94L62.93 12.92Q64.22 12.00 66.54 9.98L66.42 9.86L66.44 9.89Q62.40 11.36 59.05 11.55L59.09 11.60L58.94 11.44Q56.08 13.72 51.21 18.40L51.19 18.39L51.20 18.40Q50.88 15.87 50.31 13.32L50.25 13.26L50.28 13.29Q49.07 13.11 48.08 12.77L48.05 12.74L48.12 12.81Q47.90 12.05 47.33 10.61Z"/><path fill="#222" d="M175.35 35.31L175.41 35.37L175.50 35.45Q172.56 31.60 169.93 22.96L169.86 22.89L169.84 22.86Q169.17 20.71 168.37 18.58L168.44 18.65L165.50 27.36L165.46 27.32Q163.70 32.29 161.30 35.53L161.34 35.57L161.21 35.44Q160.49 35.64 158.86 35.79L158.77 35.71L158.71 35.64Q158.89 34.53 158.89 33.27L158.89 33.27L158.92 33.31Q159.00 27.37 156.26 21.24L156.21 21.19L156.16 21.14Q153.03 14.24 147.16 9.25L147.11 9.20L147.14 9.23Q149.22 9.86 151.58 10.40L151.66 10.47L151.67 10.48Q160.44 19.03 161.74 29.99L161.64 29.89L161.55 29.81Q163.20 26.51 164.65 21.14L164.77 21.27L164.65 21.14Q166.75 13.76 167.25 12.35L167.13 12.24L169.53 12.39L169.40 12.26Q170.21 14.40 170.86 16.73L170.74 16.60L172.12 21.19L171.99 21.06Q173.63 26.59 175.04 29.82L175.04 29.82L174.98 29.75Q176.65 18.14 184.57 10.79L184.61 10.84L184.55 10.78Q186.03 10.40 189.00 9.75L189.15 9.90L189.19 9.93Q183.67 14.05 180.63 20.18L180.71 20.26L180.77 20.32Q177.67 26.55 177.67 33.33L177.69 33.34L177.57 33.23Q177.70 34.46 177.78 35.60L177.80 35.62L176.47 35.33L176.64 35.49Q175.97 35.36 175.40 35.36ZM181.76 38.36L181.70 38.30L181.69 38.30Q180.45 34.73 180.56 30.85L180.56 30.85L180.55 30.84Q180.85 19.26 190.22 11.00L190.27 11.05L190.32 11.10Q189.35 11.31 187.41 11.84L187.28 11.72L187.32 11.76Q188.21 10.86 190.12 9.07L190.14 9.10L190.27 9.22Q187.46 9.84 184.53 10.33L184.56 10.37L184.67 10.48Q177.17 17.60 175.27 27.08L175.12 26.93L175.20 27.01Q174.54 25.28 171.69 13.82L171.75 13.89L171.81 13.95Q171.32 13.95 170.37 13.95L170.40 13.99L170.05 12.88L170.13 12.96Q170.01 12.42 169.78 11.92L169.66 11.80L166.91 11.94L166.93 11.97Q166.01 14.31 164.73 19.43L164.74 19.45L164.84 19.54Q163.48 24.58 162.49 27.06L162.41 26.98L162.46 27.02Q160.91 19.15 155.35 12.83L155.28 12.76L155.43 12.91Q154.94 12.84 153.99 12.65L153.86 12.52L153.96 12.62Q153.17 11.71 151.61 10.08L151.56 10.03L151.54 10.01Q148.17 9.23 146.00 8.43L146.11 8.54L146.02 8.45Q151.67 13.11 154.95 19.32L155.01 19.38L154.99 19.37Q158.55 26.08 158.55 33.08L158.51 33.05L158.50 33.04Q158.39 34.48 158.20 36.08L158.24 36.13L158.22 36.11Q158.51 36.17 158.97 36.08L158.98 36.09L159.00 36.10Q159.39 35.95 159.62 35.95L159.72 36.04L159.68 37.03L159.71 37.06Q159.75 37.56 159.83 38.10L159.66 37.93L159.83 38.10Q160.97 38.02 163.26 37.87L163.09 37.70L163.12 37.74Q166.85 32.43 169.59 23.03L169.62 23.06L169.58 23.02Q172.31 31.77 175.28 35.73L175.24 35.69L175.33 35.78Q175.67 35.67 176.51 35.78L176.63 35.90L176.63 35.90Q177.48 36.94 178.54 38.00L178.54 38.00L178.50 37.96Q179.17 37.91 181.57 38.17Z"/><path fill="#222" d="M135.26 35.38L135.26 35.38L135.18 35.30Q133.89 35.49 132.33 35.07L132.16 34.90L132.34 35.08Q131.02 34.07 130.87 32.43L130.81 32.38L130.94 32.50Q130.80 32.21 130.99 29.58L131.01 29.60L131.00 29.60Q132.09 29.47 134.11 29.09L134.02 29.00L133.95 29.88L133.93 29.86Q133.66 31.61 135.07 32.18L135.11 32.22L135.04 32.15Q135.76 32.42 137.85 32.42L137.99 32.55L137.95 32.51Q139.62 32.42 139.81 32.35L139.75 32.30L139.74 32.29Q140.69 32.16 141.41 31.67L141.34 31.60L141.39 31.65Q142.75 30.65 142.56 28.55L142.58 28.57L142.53 28.53Q142.43 26.18 140.70 24.62L140.57 24.49L140.73 24.65Q138.90 22.99 136.42 22.99L136.53 23.10L136.44 22.78L136.36 22.70Q136.75 22.66 137.62 22.59L137.70 22.67L137.62 22.59Q139.67 22.62 141.04 21.38L141.02 21.36L141.05 21.39Q142.29 20.02 142.44 18.15L142.44 18.15L142.59 18.31Q142.53 17.82 142.53 17.48L142.60 17.56L142.52 17.48Q142.48 15.91 141.11 14.99L141.16 15.05L141.11 15.00Q139.91 14.22 138.32 14.34L138.38 14.40L138.47 14.49Q137.16 14.32 135.94 14.74L135.87 14.67L135.81 14.61Q134.49 15.27 134.18 16.41L134.16 16.39L134.07 16.30Q133.84 17.02 133.91 17.78L133.96 17.82L134.01 17.88Q132.99 17.65 130.93 16.92L130.83 16.83L130.88 16.87Q130.71 15.26 130.75 14.42L130.68 14.35L130.67 14.35Q130.78 12.82 131.85 12.13L131.91 12.19L131.91 12.20Q133.39 11.66 134.99 11.66L134.98 11.65L134.86 11.53Q138.11 11.58 141.27 11.84L141.32 11.89L141.25 11.83Q146.34 12.27 146.03 16.04L146.07 16.07L146.01 16.01Q145.85 17.42 145.36 18.98L145.44 19.06L145.40 19.02Q144.52 22.14 142.16 23.06L142.16 23.05L142.14 23.04Q144.71 23.51 145.32 26.86L145.41 26.95L145.31 26.85Q145.68 28.13 145.75 30.15L145.66 30.06L145.62 30.02Q145.87 34.57 141.27 35.03L141.15 34.91L141.26 35.02Q140.49 35.05 135.19 35.31ZM140.41 37.56L140.44 37.59L140.52 37.67Q141.04 37.62 143.90 37.70L143.93 37.73L143.82 37.61Q145.70 37.83 147.34 37.18L147.25 37.09L147.23 37.07Q148.45 36.16 148.26 34.40L148.36 34.50L148.35 34.50Q148.11 33.04 147.81 31.29L147.84 31.32L147.89 31.37Q147.10 26.81 145.16 25.18L145.28 25.29L145.06 24.89L145.00 24.79L145.04 24.83Q146.77 23.36 147.53 18.98L147.57 19.02L147.49 18.94Q147.42 18.38 147.54 17.43L147.56 17.45L147.60 17.50Q147.72 16.78 147.65 16.09L147.69 16.14L147.62 16.07Q147.39 14.32 146.10 13.63L146.23 13.76L146.17 13.78L146.15 13.76Q145.75 12.67 144.61 12.14L144.72 12.26L144.66 12.19Q143.21 11.58 138.07 11.27L137.93 11.13L138.03 11.23Q136.42 11.23 134.82 11.23L134.72 11.13L134.66 11.07Q133.12 11.12 131.60 11.77L131.56 11.73L131.57 11.74Q130.30 12.45 130.30 14.21L130.38 14.28L130.39 14.29Q130.32 13.80 130.59 17.15L130.65 17.22L130.75 17.32Q130.98 17.32 132.62 17.93L132.54 17.85L132.53 17.84Q132.65 18.49 132.61 18.99L132.52 18.90L132.59 18.97Q132.51 19.39 132.55 19.92L132.69 20.05L132.64 20.01Q134.44 20.40 136.46 20.51L136.45 20.50L136.42 20.47Q136.23 18.34 137.33 17.50L137.37 17.54L137.48 17.65Q138.33 17.02 140.35 16.79L140.21 16.65L140.35 16.79Q141.45 16.75 142.02 16.94L141.93 16.85L141.93 16.85Q142.10 17.10 142.14 17.21L142.12 17.19L142.01 17.27L142.20 17.92L142.29 18.00Q142.16 18.06 142.12 18.22L142.10 18.20L142.09 18.19Q142.00 19.88 140.47 21.06L140.60 21.19L140.55 21.14Q139.56 21.97 137.54 22.16L137.58 22.20L137.66 22.29Q136.80 22.30 135.93 22.30L135.92 22.30L136.11 22.48Q135.98 22.66 136.13 23.34L136.15 23.36L136.30 23.52Q137.97 23.43 139.41 24.15L139.40 24.14L139.24 24.09L137.76 24.36L137.78 24.39Q137.83 24.74 137.95 25.35L137.95 25.36L137.81 25.21Q140.08 25.27 141.79 26.60L141.81 26.62L141.65 26.47Q142.00 26.97 142.30 28.60L142.33 28.63L142.27 28.57Q142.56 31.60 139.62 32.02L139.44 31.83L139.52 31.91Q137.36 32.11 136.78 32.07L136.82 32.10L136.80 32.08Q136.41 32.04 135.88 31.96L135.80 31.88L135.78 31.40L136.05 31.11L135.98 30.62L136.09 30.38L136.01 30.30Q135.20 30.52 134.40 30.71L134.32 30.63L134.39 30.70Q134.31 30.43 134.31 30.24L134.24 30.17L134.27 30.20Q134.35 30.05 134.35 29.82L134.32 29.79L134.26 29.74Q134.40 29.41 134.55 28.69L134.57 28.72L134.40 28.54Q132.54 28.78 130.68 29.12L130.78 29.23L130.82 29.26Q130.73 29.67 130.61 30.79L130.63 30.80L130.62 30.80Q130.59 32.01 130.59 32.62L130.59 32.62L130.63 32.65Q130.66 34.66 132.03 35.42L132.02 35.41L131.90 35.29Q133.57 37.76 138.29 37.57L138.27 37.55L138.18 37.46Q138.83 37.35 140.35 37.50Z"/><path d="M13 20 C116 11,103 3,185 26" stroke="#666" fill="none"/></svg>