<svg xmlns="http://www.w3.org/2000/svg" width="200" height="40" viewBox="0,0,200,40"><path fill="#111" d="M25.43 14.63L25.48 14.68L23.87 14.74L23.96 14.83Q21.61 14.85 21.38 16.87L21.40 16.89L21.49 16.97Q21.38 17.66 21.41 18.65L21.42 18.66L21.45 18.68Q21.39 20.52 22.64 21.86L22.75 21.96L22.71 21.92Q23.87 23.16 25.78 23.01L25.72 22.96L25.89 23.12Q27.79 22.81 28.55 21.90L28.66 22.01L28.58 21.93Q29.70 21.07 29.96 18.82L30.03 18.89L30.03 18.89Q30.17 16.52 28.91 15.68L28.90 15.66L28.93 15.70Q28.09 14.93 25.42 14.62ZM31.44 23.84L31.38 23.78L30.25 26.23L30.25 26.23Q27.40 30.87 23.63 34.95L23.77 35.09L23.67 34.99Q22.15 35.25 19.44 36.05L19.34 35.95L19.30 35.91Q24.66 29.67 27.82 24.87L27.97 25.01L27.89 24.93Q26.87 25.59 25.23 25.67L25.21 25.65L25.19 25.63Q22.15 25.74 20.63 23.76L20.74 23.88L20.70 23.84Q19.54 22.30 18.44 17.73L18.44 17.73L18.29 17.58Q18.32 17.15 18.16 16.22L18.19 16.24L18.30 16.35Q18.05 15.32 18.05 14.86L18.10 14.92L18.00 14.81Q18.07 13.10 19.13 12.49L19.05 12.40L19.18 12.53Q20.27 11.64 22.13 11.64L22.17 11.67L22.22 11.72Q25.46 11.77 25.46 11.77L25.31 11.62L25.48 11.79Q27.52 11.70 28.78 11.89L28.77 11.88L28.79 11.90Q30.99 12.24 31.91 12.73L31.84 12.67L31.94 12.77Q33.14 13.36 33.33 15.11L33.37 15.15L33.52 15.29Q33.38 15.38 33.18 18.05L33.21 18.07L33.15 18.02Q32.83 20.21 32.60 21.04L32.59 21.03L32.53 20.97Q32.20 22.43 31.44 23.84ZM33.40 26.30L33.39 26.28L33.42 26.31Q34.39 24.08 34.92 19.78L34.88 19.74L34.83 19.69Q35.24 17.63 35.20 16.75L35.07 16.62L35.14 16.69Q35.12 14.84 33.94 13.93L33.87 13.86L33.63 13.81L33.57 13.75Q33.29 12.98 32.38 12.33L32.36 12.31L32.46 12.41Q30.10 11.35 25.31 11.20L25.32 11.21L25.35 11.24Q24.32 11.16 21.88 11.16L22.00 11.28L21.95 11.23Q20.23 11.26 18.74 11.94L18.71 11.91L18.64 11.84Q17.61 12.75 17.68 14.58L17.69 14.58L17.59 14.49Q17.76 15.38 17.95 17.40L18.04 17.48L17.97 17.41Q18.69 20.15 18.96 20.99L18.99 21.02L18.97 21.00Q19.51 22.83 20.46 24.13L20.51 24.18L20.54 24.20Q20.72 24.46 21.10 24.85L21.07 24.81L21.00 24.74Q21.41 25.34 22.06 26.26L21.99 26.19L22.05 26.25Q23.48 27.57 25.42 27.76L25.37 27.70L25.51 27.85Q23.56 30.46 22.00 32.36L22.05 32.41L18.41 36.78L18.26 36.62Q20.65 36.00 22.28 35.66L22.18 35.55L22.16 35.54Q21.54 36.55 19.98 38.27L19.83 38.11L19.89 38.18Q22.91 37.20 26.03 37.16L26.20 37.33L26.14 37.27Q28.48 34.70 32.82 27.46L32.81 27.46L32.70 27.42L32.71 27.43Q33.03 26.77 33.38 26.27ZM27.28 16.94L27.37 17.02L27.39 17.05Q28.03 16.97 28.49 17.08L28.38 16.98L28.36 16.95Q29.17 17.23 29.55 17.34L29.50 17.30L29.52 17.31Q29.65 17.71 29.72 18.13L29.62 18.02L29.65 18.06Q29.66 18.41 29.55 18.79L29.52 18.76L29.60 18.84Q29.61 20.60 28.43 21.70L28.39 21.66L28.41 21.68Q27.41 22.66 25.77 22.62L25.75 22.60L25.90 22.75Q25.43 22.70 23.90 22.39L23.78 22.27L23.91 22.40Q23.74 21.58 23.74 20.86L23.60 20.72L23.55 20.67Q23.48 20.41 23.48 20.18L23.55 20.26L23.48 20.18Q23.55 18.04 25.83 17.24L25.92 17.33L25.92 17.33Q26.61 17.11 27.45 17.11Z"/><path fill="#111" d="M102.11 34.02L102.09 34.00L102.04 33.95Q103.80 31.44 108.56 24.17L108.57 24.18L108.56 24.17Q112.74 18.12 115.60 14.84L115.55 14.79L115.64 14.88Q113.58 15.23 111.49 15.23L111.44 15.17L111.30 15.04Q106.08 15.06 102.08 13.28L102.16 13.35L102.05 13.25Q101.51 11.45 100.82 9.89L100.76 9.82L100.73 9.80Q105.39 12.06 111.06 12.17L111.07 12.18L111.02 12.13Q116.19 12.23 121.36 10.33L121.42 10.39L121.38 10.35Q120.85 11.03 120.55 11.83L120.58 11.86L120.03 13.49L120.01 13.46Q117.04 17.19 113.04 23.02L113.00 22.98L109.73 27.86L109.71 27.84Q108.07 30.31 106.24 32.59L106.26 32.61L106.18 32.52Q109.51 31.94 112.82 32.01L112.84 32.03L112.79 31.98Q116.23 32.19 119.39 33.10L119.38 33.09L119.87 34.69L119.82 34.64Q120.02 35.41 120.36 36.24L120.46 36.34L120.43 36.31Q115.60 34.56 110.46 34.75L110.60 34.90L110.60 34.89Q105.54 35.16 101.05 37.18L100.98 37.11L100.97 37.10Q101.32 36.01 102.05 33.95ZM100.29 37.72L100.41 37.83L100.33 37.76Q101.61 37.21 102.41 36.94L102.30 36.83L102.40 36.93Q102.20 37.76 101.51 39.28L101.45 39.22L101.45 39.22Q107.23 37.15 113.20 37.38L113.01 37.18L113.15 37.33Q119.48 37.57 124.50 40.35L124.52 40.36L124.42 40.26Q123.03 37.88 122.23 35.71L122.14 35.62L122.18 35.66Q121.66 35.41 120.13 34.83L120.13 34.83L120.21 34.91Q119.94 34.07 119.52 32.58L119.70 32.77L119.71 32.77Q115.55 31.58 110.45 31.77L110.32 31.64L110.40 31.73Q112.58 29.03 116.12 23.47L116.13 23.48L115.96 23.31Q119.78 17.76 121.68 15.21L121.54 15.07L121.58 15.11Q122.16 13.79 123.19 11.09L123.16 11.06L123.05 10.95Q122.48 11.40 121.03 12.01L120.91 11.89L121.04 12.02Q121.43 11.27 122.15 9.74L121.99 9.58L122.06 9.66Q116.82 11.88 111.11 11.80L110.94 11.63L111.07 11.76Q105.12 11.68 100.17 9.16L100.06 9.05L100.07 9.06Q101.17 11.38 101.89 13.62L101.89 13.62L101.97 13.70Q102.96 14.12 103.76 14.35L103.76 14.35L103.82 14.41Q104.04 15.05 104.31 16.49L104.43 16.62L104.47 16.65Q108.04 17.56 112.91 17.37L112.94 17.40L113.06 17.52Q110.64 20.70 107.33 25.68L107.23 25.59L101.72 33.93L101.74 33.95Q101.38 35.23 100.36 37.78Z"/><path d="M10 18 C109 10,101 12,196 35" stroke="#333" fill="none"/><path fill="#111" d="M164.05 14.36L163.98 14.28L164.00 14.30Q164.84 18.53 164.99 22.11L165.14 22.26L165.10 22.22Q166.07 22.16 167.14 22.16L167.29 22.31L169.40 22.21L169.37 22.19Q170.37 22.12 171.25 20.71L171.34 20.81L171.27 20.74Q172.07 19.63 172.18 18.45L172.20 18.47L172.09 18.36Q172.46 15.34 168.24 14.85L168.29 14.90L168.41 15.02Q166.71 14.96 164.08 14.39ZM165.11 24.97L165.12 24.98L165.10 24.96Q165.02 31.16 163.88 35.58L163.87 35.57L163.90 35.60Q162.37 35.93 160.04 37.00L160.10 37.05L160.06 37.01Q162.46 30.39 162.19 23.11L162.21 23.14L162.14 23.07Q161.92 15.76 159.14 9.33L159.13 9.32L159.05 9.24Q163.27 12.09 169.52 12.09L169.51 12.09L169.58 12.16Q175.64 12.16 175.79 15.62L175.62 15.46L175.79 15.63Q175.80 18.00 174.81 20.66L174.74 20.59L174.83 20.68Q174.41 21.78 173.46 23.00L173.46 23.01L173.39 22.93Q172.10 24.57 169.55 24.84L169.50 24.80L169.65 24.94Q167.33 24.90 165.08 24.94ZM171.24 27.22L171.15 27.13L171.12 27.10Q175.37 27.43 176.63 22.63L176.59 22.59L176.54 22.54Q177.57 18.97 177.42 16.95L177.49 17.02L177.34 16.87Q177.25 15.37 176.49 14.38L176.65 14.54L176.63 14.53Q176.23 14.12 175.74 13.90L175.71 13.87L175.78 13.95Q175.79 13.80 175.18 13.04L175.11 12.96L175.06 12.91Q173.61 11.69 169.65 11.69L169.54 11.59L169.62 11.67Q162.69 11.62 158.46 8.46L158.42 8.42L158.49 8.49Q161.62 15.54 161.88 23.00L161.95 23.07L161.85 22.96Q162.25 30.75 159.59 37.83L159.55 37.80L159.57 37.81Q160.68 37.21 161.67 36.83L161.49 36.65L161.13 37.81L161.20 37.89Q160.93 38.38 160.66 38.95L160.71 39.00L160.69 38.97Q163.22 38.04 166.11 37.50L166.13 37.53L166.02 37.41Q166.88 31.92 166.95 27.20L167.02 27.26L166.92 27.16Q168.01 27.07 169.00 27.07L169.12 27.19L169.11 27.18Q170.42 27.16 171.22 27.20ZM170.33 17.32L170.20 17.19L170.22 17.21Q170.82 17.31 171.81 17.54L171.68 17.42L171.71 17.44Q171.83 17.68 171.87 17.98L171.95 18.07L171.97 18.08Q171.86 18.20 171.78 18.47L171.84 18.53L171.77 18.46Q171.79 19.82 171.07 20.69L170.94 20.56L171.06 20.68Q170.49 21.75 169.46 21.94L169.35 21.82L169.37 21.84Q168.58 21.78 166.94 21.78L166.95 21.79L167.04 21.88Q166.91 19.50 166.68 17.14L166.69 17.15L168.54 17.32L168.48 17.26Q169.45 17.39 170.32 17.31Z"/><path d="M20 18 C97 30,103 11,196 9" stroke="#777" fill="none"/><path fill="#222" d="M138.55 14.61L138.58 14.64L136.99 14.73L137.06 14.79Q134.85 14.94 134.62 16.96L134.50 16.85L134.56 16.90Q134.40 17.54 134.43 18.53L134.53 18.62L134.45 18.54Q134.62 20.61 135.88 21.95L135.75 21.83L135.71 21.78Q137.02 23.17 138.93 23.02L138.99 23.09L138.92 23.02Q140.91 22.80 141.68 21.88L141.84 22.05L141.87 22.08Q142.76 20.99 143.02 18.74L143.06 18.78L143.01 18.72Q143.37 16.58 142.12 15.74L142.17 15.79L142.10 15.73Q141.32 15.02 138.65 14.71ZM144.63 23.88L144.57 23.83L143.43 26.26L143.36 26.19Q140.61 30.95 136.84 35.02L136.89 35.07L136.85 35.03Q135.29 35.25 132.58 36.05L132.60 36.07L132.46 35.93Q137.87 29.73 141.03 24.93L140.93 24.83L141.00 24.90Q139.90 25.47 138.26 25.55L138.35 25.64L138.42 25.71Q135.31 25.76 133.79 23.78L133.90 23.89L133.89 23.88Q132.69 22.30 131.58 17.73L131.52 17.67L131.51 17.66Q131.43 17.12 131.28 16.19L131.31 16.22L131.31 16.22Q131.10 15.23 131.10 14.77L131.13 14.80L131.16 14.83Q131.29 13.17 132.35 12.56L132.15 12.36L132.20 12.40Q133.41 11.64 135.27 11.64L135.25 11.61L135.31 11.67Q138.49 11.66 138.49 11.66L138.63 11.79L138.57 11.74Q140.79 11.83 142.05 12.02L141.93 11.90L141.90 11.87Q144.19 12.29 145.10 12.78L144.98 12.66L145.11 12.79Q146.32 13.40 146.51 15.15L146.63 15.26L146.47 15.11Q146.49 15.35 146.30 18.02L146.38 18.10L146.40 18.12Q146.03 20.26 145.80 21.09L145.84 21.14L145.75 21.04Q145.40 22.48 144.63 23.89ZM146.49 26.24L146.43 26.19L146.44 26.20Q147.49 24.05 148.02 19.74L147.99 19.71L148.03 19.75Q148.40 17.65 148.36 16.77L148.28 16.68L148.28 16.69Q148.15 14.73 146.97 13.81L147.09 13.93L146.72 13.75L146.66 13.70Q146.40 12.94 145.49 12.30L145.59 12.40L145.63 12.44Q143.37 11.47 138.57 11.32L138.53 11.27L138.50 11.25Q137.52 11.22 135.09 11.22L135.04 11.17L135.12 11.25Q133.35 11.23 131.86 11.92L131.84 11.90L131.92 11.98Q130.75 12.75 130.83 14.57L130.77 14.52L130.71 14.46Q130.95 15.43 131.14 17.44L131.25 17.55L131.25 17.54Q131.78 20.10 132.05 20.94L132.15 21.04L132.16 21.05Q132.55 22.73 133.50 24.03L133.61 24.13L133.57 24.09Q133.81 24.41 134.19 24.79L134.22 24.82L134.21 24.81Q134.50 25.29 135.15 26.20L135.08 26.14L135.06 26.12Q136.61 27.55 138.55 27.74L138.55 27.74L138.59 27.79Q136.75 30.51 135.19 32.41L135.17 32.39L131.56 36.78L131.59 36.81Q133.66 35.88 135.30 35.53L135.44 35.67L135.34 35.57Q134.65 36.52 133.09 38.23L133.14 38.28L133.10 38.25Q136.22 37.36 139.34 37.33L139.33 37.31L139.35 37.33Q141.60 34.67 145.94 27.44L145.86 27.36L145.87 27.45L145.93 27.51Q146.27 26.86 146.62 26.37ZM140.43 16.94L140.60 17.11L140.53 17.04Q141.15 16.95 141.61 17.06L141.56 17.01L141.59 17.04Q142.24 17.16 142.62 17.27L142.55 17.20L142.56 17.21Q142.79 17.70 142.86 18.12L142.87 18.12L142.88 18.14Q142.87 18.48 142.76 18.86L142.79 18.89L142.77 18.86Q142.62 20.47 141.44 21.58L141.64 21.77L141.59 21.73Q140.66 22.78 139.03 22.74L139.01 22.72L138.99 22.71Q138.54 22.67 137.02 22.37L137.08 22.42L137.07 22.41Q136.86 21.57 136.86 20.84L136.78 20.75L136.81 20.79Q136.73 20.52 136.73 20.29L136.67 20.22L136.61 20.17Q136.71 18.06 138.99 17.26L139.06 17.33L139.01 17.28Q139.78 17.13 140.61 17.13Z"/><path fill="#444" d="M79.25 35.33L79.35 35.43L79.30 35.38Q75.27 35.65 74.28 33.33L74.28 33.33L74.25 33.30Q75.03 32.37 76.59 30.58L76.53 30.52L76.59 30.58Q77.10 32.61 80.11 32.72L80.12 32.74L80.07 32.69Q83.46 32.76 85.09 31.43L85.11 31.45L85.07 31.41Q86.41 29.74 86.34 27.04L86.32 27.02L86.49 27.19Q86.22 22.01 81.42 22.24L81.46 22.27L81.50 22.31Q78.72 22.50 76.97 23.76L76.89 23.68L76.52 23.46L76.45 23.47L76.36 23.38Q76.64 20.16 76.53 17.42L76.53 17.43L76.59 17.48Q76.50 14.88 76.16 11.57L76.20 11.61L76.18 11.59Q79.88 12.59 83.69 12.47L83.60 12.38L83.65 12.43Q87.41 12.31 90.99 11.05L91.07 11.13L90.37 12.53L90.38 12.54Q90.16 13.39 89.97 14.23L89.93 14.19L89.88 14.14Q86.83 15.23 82.95 15.23L82.99 15.27L82.92 15.21Q81.49 15.22 80.01 15.07L79.96 15.02L79.98 15.04Q79.83 15.66 79.49 20.12L79.50 20.12L79.65 20.28Q80.45 19.78 82.50 19.63L82.49 19.61L82.42 19.54Q86.17 19.79 87.62 21.46L87.69 21.54L87.54 21.39Q88.98 22.98 89.25 26.83L89.36 26.94L89.35 26.93Q89.46 30.96 88.24 32.97L88.34 33.08L88.40 33.14Q86.27 34.93 82.96 35.16L82.92 35.12L83.07 35.27Q81.88 35.14 79.21 35.29ZM85.40 37.71L85.31 37.62L85.32 37.63Q88.73 37.70 90.64 36.59L90.65 36.61L90.73 36.68Q91.57 35.01 91.57 32.92L91.68 33.03L91.61 32.95Q91.61 29.87 90.65 25.76L90.62 25.73L90.65 25.76Q90.44 24.17 89.22 22.76L89.22 22.76L89.24 22.83L89.01 22.52L88.68 22.33L88.65 22.31Q88.33 21.57 87.68 20.88L87.71 20.91L87.64 20.88L87.68 20.92Q86.17 19.26 82.48 19.26L82.51 19.29L82.16 19.21L82.15 19.20Q82.22 18.62 82.41 17.51L82.39 17.49L82.38 17.49Q87.46 17.69 91.50 16.06L91.45 16.01L91.36 15.92Q91.89 14.62 92.84 11.81L92.75 11.72L90.70 12.71L90.81 12.82Q91.14 11.63 91.63 10.48L91.69 10.54L91.63 10.48Q87.69 11.83 83.58 11.91L83.57 11.90L83.63 11.96Q79.55 12.11 75.60 11.00L75.51 10.92L75.55 10.96Q76.22 15.36 76.22 19.78L76.25 19.81L76.29 19.84Q76.32 21.78 76.21 23.68L76.05 23.53L76.08 23.56Q76.45 23.86 77.03 24.16L76.92 24.06L76.97 24.10Q77.41 23.97 78.06 23.63L77.98 23.56L78.04 23.62Q77.92 24.29 77.69 25.81L77.78 25.90L77.74 25.86Q78.06 25.95 78.48 26.18L78.62 26.32L78.63 26.33Q81.39 24.57 83.26 24.57L83.27 24.58L83.18 24.49Q84.50 24.48 85.68 25.12L85.78 25.22L85.60 25.05Q86.01 26.14 86.05 27.09L86.04 27.09L86.00 27.05Q86.11 29.66 85.08 30.77L85.20 30.89L85.21 30.89Q83.68 31.96 81.44 32.19L81.45 32.20L81.59 32.34Q80.61 32.39 79.93 32.31L79.88 32.27L79.80 32.19Q79.09 32.20 78.33 31.86L78.23 31.76L78.28 31.62L78.16 31.73L78.17 31.74Q77.23 31.10 76.70 29.77L76.69 29.76L76.75 29.82Q75.50 31.32 73.83 33.45L73.72 33.34L73.75 33.38Q74.04 34.00 74.87 34.95L74.95 35.03L74.97 35.05Q76.07 36.91 78.89 37.40L78.83 37.35L78.76 37.28Q80.08 37.65 85.45 37.76Z"/><path fill="#222" d="M50.91 35.28L51.09 35.45L51.01 35.37Q47.02 35.69 46.03 33.37L46.02 33.36L46.04 33.38Q46.65 32.27 48.21 30.48L48.37 30.64L48.27 30.54Q48.69 32.48 51.70 32.60L51.84 32.74L51.86 32.76Q55.15 32.75 56.79 31.41L56.86 31.48L56.79 31.41Q58.13 29.75 58.06 27.04L58.14 27.13L58.06 27.05Q58.04 22.11 53.24 22.34L53.16 22.26L53.13 22.24Q50.31 22.38 48.56 23.64L48.69 23.77L48.30 23.53L48.12 23.42L47.99 23.29Q48.41 20.21 48.30 17.47L48.35 17.52L48.38 17.56Q48.29 14.96 47.95 11.65L47.84 11.53L47.94 11.63Q51.54 12.53 55.35 12.42L55.22 12.29L55.40 12.47Q59.20 12.38 62.77 11.13L62.79 11.14L62.06 12.51L62.18 12.63Q61.86 13.38 61.67 14.21L61.71 14.25L61.63 14.17Q58.44 15.13 54.56 15.13L54.61 15.18L54.70 15.27Q53.27 15.29 51.78 15.14L51.63 14.98L51.66 15.02Q51.58 15.69 51.23 20.14L51.37 20.28L51.23 20.14Q52.04 19.66 54.10 19.51L54.22 19.63L54.23 19.63Q57.82 19.72 59.26 21.40L59.27 21.40L59.44 21.57Q60.78 23.06 61.04 26.91L60.99 26.85L61.04 26.90Q61.26 31.04 60.04 33.06L59.94 32.96L60.13 33.15Q58.11 35.05 54.80 35.28L54.68 35.17L54.73 35.21Q53.78 35.33 51.11 35.48ZM57.07 37.67L57.05 37.64L57.06 37.66Q60.45 37.70 62.35 36.59L62.39 36.63L62.43 36.67Q63.46 35.19 63.46 33.10L63.40 33.04L63.33 32.96Q63.34 29.89 62.39 25.78L62.49 25.88L62.40 25.79Q62.15 24.17 60.93 22.76L60.74 22.57L60.91 22.78L60.69 22.48L60.36 22.31L60.34 22.29Q59.91 21.44 59.26 20.75L59.34 20.83L59.36 20.89L59.29 20.81Q57.80 19.18 54.11 19.18L54.10 19.17L53.87 19.21L53.82 19.16Q53.94 18.62 54.13 17.52L54.19 17.58L54.04 17.43Q59.12 17.64 63.16 16.01L63.12 15.97L63.07 15.91Q63.51 14.53 64.46 11.71L64.48 11.73L62.44 12.74L62.40 12.69Q62.73 11.50 63.23 10.36L63.39 10.53L63.31 10.45Q59.37 11.80 55.26 11.87L55.31 11.92L55.37 11.98Q51.27 12.11 47.32 11.01L47.29 10.99L47.32 11.02Q48.05 15.48 48.05 19.90L47.90 19.74L47.89 19.74Q47.95 21.69 47.83 23.60L47.79 23.55L47.94 23.70Q48.09 23.77 48.66 24.08L48.60 24.02L48.59 24.01Q49.06 23.91 49.71 23.57L49.73 23.59L49.69 23.55Q49.60 24.26 49.37 25.78L49.45 25.87L49.42 25.83Q49.90 26.08 50.32 26.31L50.31 26.30L50.15 26.14Q53.05 24.52 54.92 24.52L54.81 24.40L54.83 24.42Q56.20 24.46 57.38 25.11L57.35 25.08L57.34 25.07Q57.78 26.19 57.82 27.15L57.86 27.19L57.82 27.15Q57.83 29.67 56.80 30.78L56.82 30.79L56.86 30.83Q55.50 32.07 53.26 32.29L53.30 32.34L53.21 32.25Q52.22 32.29 51.54 32.21L51.53 32.20L51.55 32.22Q50.78 32.18 50.02 31.84L50.04 31.85L49.98 31.60L49.79 31.65L49.83 31.68Q49.05 31.21 48.52 29.88L48.57 29.93L48.50 29.86Q47.10 31.20 45.42 33.33L45.47 33.38L45.40 33.31Q45.78 34.03 46.61 34.98L46.59 34.95L46.66 35.02Q47.62 36.74 50.43 37.24L50.47 37.27L50.52 37.32Q51.67 37.52 57.03 37.63Z"/></svg>