<svg xmlns="http://www.w3.org/2000/svg" width="200" height="40" viewBox="0,0,200,40"><path d="M1 36 C109 35,86 23,182 20" stroke="#555" fill="none"/><path d="M16 10 C84 14,100 17,198 9" stroke="#111" fill="none"/><path fill="#333" d="M25.49 35.17L25.45 35.13L23.19 28.42L23.02 28.24Q18.67 15.68 12.73 9.28L12.76 9.31L12.85 9.40Q14.76 10.35 17.35 10.96L17.33 10.94L17.37 10.99Q22.52 17.28 26.86 30.03L26.81 29.98L26.97 30.15Q29.90 21.92 30.59 20.32L30.59 20.32L30.60 20.33Q33.06 14.80 35.88 11.49L35.73 11.34L35.91 11.52Q37.81 10.98 40.43 10.11L40.51 10.18L40.55 10.22Q35.95 14.80 32.91 22.03L32.88 22.01L32.87 21.99Q31.49 25.68 27.80 35.20L27.75 35.15L27.77 35.17Q27.27 35.24 26.70 35.21L26.62 35.12L26.60 35.10Q25.99 35.07 25.42 35.10ZM30.58 37.67L30.63 37.72L30.44 37.54Q33.23 27.53 34.79 23.50L34.88 23.59L34.89 23.59Q37.85 15.86 42.27 10.99L42.36 11.08L42.29 11.01Q41.22 11.35 39.12 12.07L39.18 12.13L40.26 10.73L40.40 10.87Q40.91 10.13 41.52 9.48L41.45 9.41L41.42 9.38Q38.68 10.45 35.67 11.02L35.59 10.94L35.60 10.95Q31.32 16.37 27.43 27.83L27.35 27.74L27.50 27.90Q23.68 17.60 20.48 13.22L20.61 13.35L20.51 13.25Q20.15 13.20 19.28 13.05L19.26 13.03L19.35 13.12Q19.08 12.70 17.48 10.65L17.49 10.65L17.41 10.57Q14.45 9.86 11.75 8.45L11.84 8.54L11.84 8.54Q18.50 15.66 22.88 28.45L22.85 28.42L22.83 28.40Q24.01 32.02 25.19 35.60L25.18 35.59L25.20 35.61Q25.50 35.60 26.33 35.48L26.33 35.48L26.43 35.58Q26.84 36.34 27.53 37.67L27.37 37.51L27.51 37.65Q28.34 37.56 29.06 37.64L29.06 37.64L29.04 37.62Q29.70 37.55 30.46 37.55Z"/><path fill="#333" d="M60.32 23.73L60.23 23.64L54.48 23.86L54.39 23.77Q51.42 23.77 48.48 23.70L48.54 23.75L48.48 23.69Q48.58 30.38 46.52 35.90L46.50 35.87L46.62 35.99Q44.81 36.51 43.06 37.20L43.02 37.16L43.01 37.14Q45.70 31.34 45.70 24.68L45.87 24.85L45.71 24.69Q45.72 16.21 41.61 9.17L41.74 9.30L41.70 9.26Q43.16 10.00 45.64 10.80L45.67 10.83L45.60 10.77Q47.87 15.96 48.40 20.83L48.23 20.67L48.29 20.72Q51.55 21.21 54.41 21.17L54.30 21.06L54.32 21.08Q56.96 21.05 60.27 20.79L60.27 20.78L60.36 20.88Q60.89 16.53 62.64 11.43L62.53 11.32L62.58 11.37Q64.51 10.94 66.75 10.10L66.80 10.15L66.82 10.17Q63.14 16.84 63.14 24.80L63.08 24.74L63.19 24.85Q63.06 30.93 65.43 36.26L65.56 36.39L65.47 36.30Q63.80 35.63 61.75 35.32L61.76 35.33L61.82 35.40Q60.16 30.38 60.27 23.68ZM61.60 35.79L61.58 35.76L61.68 35.86Q62.70 36.01 63.81 36.28L63.71 36.18L63.61 36.08Q64.08 36.93 64.73 38.42L64.65 38.34L64.71 38.39Q68.07 39.36 69.86 40.28L69.86 40.27L69.78 40.19Q65.36 34.06 65.05 25.80L64.98 25.73L65.17 25.91Q64.74 17.75 68.39 10.94L68.36 10.90L67.34 11.41L67.37 11.44Q66.94 11.73 66.33 11.88L66.16 11.72L66.19 11.74Q66.64 10.97 67.47 9.41L67.57 9.50L67.48 9.42Q64.90 10.53 62.27 11.02L62.13 10.88L62.16 10.91Q60.64 15.90 60.18 20.59L60.09 20.49L60.04 20.44Q57.69 20.79 55.25 20.79L55.27 20.81L55.10 20.64Q52.82 20.76 50.31 20.61L50.21 20.51L50.32 20.62Q50.09 17.34 48.98 13.27L48.87 13.16L49.02 13.30Q48.33 13.19 46.89 12.81L46.91 12.83L46.72 12.64Q46.49 11.58 46.04 10.55L46.06 10.58L45.95 10.46Q43.22 9.71 40.94 8.46L41.02 8.54L40.97 8.49Q45.52 15.89 45.52 24.69L45.50 24.67L45.48 24.65Q45.53 31.66 42.41 37.79L42.40 37.78L42.38 37.77Q43.19 37.58 44.52 37.01L44.39 36.89L44.51 37.01Q44.10 37.77 43.30 39.29L43.27 39.26L43.29 39.29Q46.04 38.23 48.29 37.81L48.35 37.87L48.27 37.80Q50.15 32.26 50.34 26.09L50.41 26.16L50.51 26.26Q52.08 26.14 55.27 26.11L55.19 26.02L55.25 26.08Q58.04 25.98 59.95 26.06L60.04 26.15L60.01 26.12Q60.17 31.77 61.51 35.69Z"/><path fill="#333" d="M164.07 14.37L164.06 14.37L163.97 14.27Q164.95 18.64 165.10 22.22L165.12 22.24L165.04 22.15Q166.12 22.21 167.19 22.21L167.30 22.33L169.42 22.23L169.37 22.19Q170.45 22.20 171.32 20.79L171.36 20.83L171.25 20.72Q172.14 19.71 172.26 18.53L172.11 18.38L172.12 18.39Q172.45 15.33 168.23 14.84L168.39 15.00L168.30 14.92Q166.76 15.01 164.14 14.44ZM165.19 25.05L165.12 24.98L165.08 24.94Q164.91 31.06 163.77 35.47L163.84 35.54L163.81 35.51Q162.40 35.97 160.08 37.04L160.04 37.00L160.01 36.97Q162.39 30.32 162.12 23.05L162.24 23.17L162.21 23.14Q161.88 15.73 159.10 9.29L159.11 9.30L159.03 9.22Q163.20 12.02 169.44 12.02L169.44 12.02L169.49 12.07Q175.47 11.99 175.62 15.46L175.69 15.52L175.71 15.54Q175.77 17.96 174.78 20.63L174.76 20.61L174.90 20.75Q174.34 21.71 173.39 22.93L173.34 22.88L173.43 22.97Q172.18 24.65 169.63 24.92L169.64 24.93L169.66 24.95Q167.31 24.89 165.07 24.93ZM171.12 27.10L171.14 27.12L171.27 27.25Q175.32 27.37 176.57 22.58L176.63 22.63L176.66 22.66Q177.49 18.88 177.34 16.87L177.35 16.88L177.43 16.96Q177.22 15.34 176.45 14.35L176.64 14.53L176.56 14.45Q176.13 14.03 175.64 13.80L175.72 13.88L175.79 13.95Q175.62 13.63 175.01 12.87L175.11 12.96L175.13 12.99Q173.54 11.63 169.58 11.63L169.61 11.66L169.51 11.55Q162.73 11.67 158.51 8.51L158.47 8.47L158.53 8.53Q161.72 15.65 161.99 23.11L161.94 23.06L161.91 23.03Q162.17 30.67 159.50 37.75L159.61 37.86L159.52 37.77Q160.63 37.17 161.62 36.79L161.50 36.67L161.12 37.81L161.12 37.80Q161.11 38.56 160.84 39.13L160.72 39.00L160.81 39.10Q163.22 38.04 166.11 37.51L166.06 37.46L166.09 37.48Q166.95 31.99 167.03 27.27L167.02 27.27L167.01 27.25Q168.17 27.23 169.16 27.23L169.13 27.20L169.18 27.25Q170.45 27.19 171.25 27.22ZM170.33 17.32L170.35 17.35L170.22 17.22Q170.74 17.24 171.73 17.47L171.81 17.54L171.71 17.44Q171.81 17.66 171.85 17.97L171.93 18.05L172.00 18.12Q172.02 18.36 171.94 18.63L171.88 18.56L171.80 18.49Q171.80 19.82 171.08 20.70L171.06 20.68L171.01 20.63Q170.50 21.76 169.48 21.95L169.52 22.00L169.49 21.96Q168.63 21.83 166.99 21.83L167.03 21.86L167.06 21.90Q166.92 19.50 166.69 17.14L166.86 17.32L168.43 17.21L168.53 17.32Q169.42 17.37 170.30 17.29Z"/><path fill="#222" d="M78.00 27.93L77.98 27.91L78.10 28.03Q81.19 27.66 84.39 27.77L84.25 27.63L84.35 27.73Q84.25 25.12 84.25 22.72L84.32 22.79L84.27 22.75Q84.35 20.35 84.54 17.80L84.56 17.81L84.39 17.65Q83.17 19.36 77.95 27.88ZM87.86 35.25L88.01 35.39L88.00 35.38Q86.30 35.05 84.51 34.98L84.43 34.90L84.41 34.87Q84.26 32.55 84.14 30.08L84.15 30.08L84.14 30.07Q78.74 29.81 74.02 31.22L74.05 31.25L74.13 31.34Q74.27 30.86 74.46 29.87L74.36 29.78L74.32 29.74Q76.23 26.69 79.80 20.41L79.72 20.32L79.73 20.33Q82.61 15.45 86.03 11.56L86.16 11.69L86.07 11.60Q87.07 11.53 88.74 11.27L88.64 11.16L88.61 11.13Q86.65 17.51 86.65 24.55L86.70 24.60L86.77 24.67Q86.67 26.06 86.75 27.54L86.79 27.59L88.03 27.64L88.10 27.72Q88.81 27.85 89.42 27.97L89.42 27.97L89.34 27.89Q89.48 28.91 89.75 30.85L89.62 30.72L89.67 30.77Q88.46 30.51 86.98 30.32L87.00 30.34L87.09 30.44Q87.23 32.37 87.92 35.30ZM89.59 27.49L89.55 27.45L89.63 27.53Q89.43 27.44 89.24 27.44L89.21 27.42L88.81 27.40L88.85 27.44Q88.71 25.93 88.71 24.52L88.70 24.51L88.72 24.52Q88.67 18.08 90.72 12.07L90.72 12.06L90.74 12.08Q90.08 12.45 88.63 12.83L88.57 12.77L88.50 12.70Q88.72 11.93 89.18 10.52L89.31 10.66L89.30 10.64Q87.87 10.89 85.82 11.12L85.85 11.15L85.81 11.12Q82.08 15.64 76.87 25.01L76.73 24.87L78.84 21.24L78.93 21.32Q78.41 22.26 78.15 22.83L78.13 22.81L73.71 31.87L73.74 31.89Q74.42 31.78 75.56 31.40L75.53 31.36L75.40 31.62L75.27 31.49Q75.31 32.32 75.01 33.58L74.87 33.44L74.93 33.51Q78.98 32.11 83.81 32.30L83.96 32.45L83.94 32.42Q84.00 33.40 84.19 35.38L84.09 35.28L84.15 35.34Q85.27 35.39 86.34 35.51L86.32 35.49L86.19 35.36Q86.38 36.09 86.65 37.46L86.71 37.52L86.61 37.42Q88.54 37.68 91.55 38.59L91.59 38.63L91.62 38.66Q90.66 36.56 89.75 33.29L89.59 33.13L91.06 33.61L91.10 33.64Q91.89 33.98 92.57 34.32L92.54 34.29L92.57 34.32Q91.76 31.79 91.61 30.12L91.51 30.02L91.44 29.96Q90.90 29.83 89.75 29.60L89.83 29.68L89.90 29.75Q89.53 28.31 89.53 27.43ZM81.58 27.32L81.57 27.32L81.54 27.28Q82.33 26.02 83.89 23.47L84.01 23.59L83.90 23.47Q83.86 24.39 83.82 25.34L83.88 25.40L83.81 25.33Q83.95 26.46 83.99 27.41L83.87 27.29L83.93 27.35Q83.41 27.37 82.84 27.37L82.73 27.26L82.72 27.24Q82.27 27.41 81.66 27.41Z"/><path fill="#111" d="M107.49 14.36L107.49 14.37L107.58 14.46Q108.28 18.54 108.43 22.12L108.49 22.18L108.57 22.26Q109.59 22.25 110.65 22.25L110.67 22.26L112.85 22.24L112.91 22.30Q113.97 22.30 114.85 20.89L114.83 20.87L114.79 20.83Q115.46 19.60 115.58 18.42L115.60 18.44L115.62 18.46Q115.89 15.34 111.66 14.84L111.79 14.97L111.67 14.85Q110.18 15.00 107.55 14.43ZM108.48 24.91L108.45 24.88L108.42 24.86Q108.50 31.21 107.36 35.63L107.20 35.47L107.22 35.49Q105.77 35.90 103.45 36.97L103.58 37.10L103.46 36.98Q105.92 30.43 105.66 23.16L105.61 23.11L105.55 23.05Q105.30 15.71 102.52 9.28L102.60 9.36L102.47 9.24Q106.63 12.02 112.87 12.02L112.88 12.03L112.93 12.07Q119.03 12.12 119.18 15.58L119.04 15.45L119.17 15.57Q119.21 17.97 118.22 20.64L118.17 20.59L118.31 20.73Q117.85 21.80 116.90 23.02L116.88 22.99L116.76 22.87Q115.51 24.55 112.96 24.82L112.93 24.79L113.09 24.95Q110.67 24.82 108.43 24.86ZM114.57 27.12L114.66 27.21L114.70 27.25Q118.88 27.51 120.14 22.71L120.01 22.59L120.05 22.63Q121.10 19.07 120.95 17.05L120.79 16.90L120.81 16.91Q120.67 15.36 119.90 14.37L119.98 14.44L120.06 14.52Q119.63 14.09 119.13 13.86L119.07 13.81L119.05 13.79Q119.13 13.70 118.52 12.94L118.58 13.00L118.44 12.87Q116.90 11.55 112.94 11.55L113.08 11.70L113.01 11.63Q106.20 11.70 101.97 8.54L101.91 8.48L101.82 8.39Q105.00 15.50 105.27 22.96L105.41 23.10L105.38 23.07Q105.69 30.76 103.02 37.84L102.95 37.76L102.96 37.78Q104.05 37.16 105.04 36.78L104.99 36.72L104.63 37.89L104.70 37.96Q104.35 38.37 104.08 38.94L104.09 38.95L104.25 39.11Q106.64 38.03 109.53 37.50L109.47 37.44L109.52 37.48Q110.35 31.96 110.43 27.24L110.37 27.18L110.39 27.21Q111.52 27.16 112.51 27.16L112.44 27.08L112.47 27.12Q113.79 27.10 114.59 27.14ZM113.62 17.18L113.69 17.25L113.77 17.33Q114.19 17.25 115.18 17.48L115.20 17.51L115.16 17.47Q115.21 17.64 115.25 17.94L115.29 17.97L115.26 17.95Q115.44 18.36 115.37 18.63L115.27 18.53L115.34 18.59Q115.15 19.74 114.43 20.62L114.37 20.57L114.36 20.55Q113.86 21.68 112.83 21.88L112.81 21.85L112.90 21.95Q112.02 21.79 110.39 21.79L110.56 21.96L110.36 21.77Q110.46 19.62 110.23 17.26L110.21 17.24L111.92 17.27L112.04 17.39Q112.86 17.38 113.74 17.30Z"/><path fill="#222" d="M135.29 35.41L135.25 35.37L135.19 35.31Q133.79 35.40 132.23 34.98L132.34 35.08L132.33 35.08Q130.94 33.99 130.79 32.35L130.98 32.55L130.90 32.47Q130.90 32.32 131.10 29.69L130.95 29.55L131.05 29.65Q132.01 29.39 134.03 29.01L134.03 29.01L133.98 29.91L133.99 29.92Q133.55 31.50 134.96 32.07L134.97 32.08L135.04 32.15Q135.85 32.51 137.95 32.51L137.87 32.43L137.93 32.49Q139.45 32.26 139.64 32.19L139.69 32.24L139.69 32.24Q140.62 32.10 141.34 31.60L141.26 31.52L141.30 31.56Q142.82 30.72 142.63 28.63L142.62 28.61L142.57 28.56Q142.33 26.08 140.60 24.52L140.66 24.58L140.60 24.52Q138.94 23.03 136.46 23.03L136.51 23.07L136.47 22.81L136.36 22.69Q136.76 22.67 137.63 22.60L137.74 22.70L137.74 22.70Q139.51 22.46 140.88 21.22L141.06 21.40L140.92 21.26Q142.35 20.08 142.50 18.22L142.41 18.13L142.55 18.26Q142.53 17.82 142.53 17.48L142.53 17.49L142.66 17.61Q142.52 15.95 141.15 15.03L141.15 15.04L141.13 15.01Q140.07 14.38 138.47 14.49L138.29 14.31L138.41 14.43Q137.09 14.26 135.87 14.67L135.90 14.70L135.80 14.60Q134.35 15.13 134.05 16.27L134.12 16.34L134.18 16.41Q134.00 17.18 134.08 17.94L133.92 17.79L134.00 17.87Q132.88 17.55 130.83 16.82L130.95 16.95L130.90 16.89Q130.66 15.21 130.70 14.37L130.67 14.34L130.68 14.35Q130.80 12.83 131.86 12.15L131.92 12.21L131.96 12.24Q133.37 11.63 134.96 11.63L135.00 11.67L134.96 11.63Q137.98 11.45 141.14 11.72L141.32 11.90L141.21 11.79Q146.37 12.30 146.07 16.07L146.08 16.09L146.04 16.05Q146.00 17.57 145.51 19.13L145.35 18.97L145.39 19.02Q144.45 22.07 142.09 22.98L142.17 23.06L142.23 23.12Q144.71 23.51 145.32 26.86L145.41 26.95L145.35 26.89Q145.60 28.05 145.67 30.07L145.69 30.09L145.66 30.06Q145.94 34.63 141.33 35.09L141.31 35.07L141.24 35.00Q140.55 35.11 135.26 35.37ZM140.37 37.52L140.48 37.63L140.44 37.59Q141.14 37.72 144.00 37.80L143.90 37.70L144.00 37.80Q145.63 37.75 147.26 37.10L147.25 37.09L147.38 37.22Q148.41 36.12 148.22 34.37L148.32 34.47L148.19 34.34Q148.07 33.00 147.77 31.25L147.92 31.40L147.83 31.31Q147.18 26.89 145.24 25.25L145.12 25.13L145.06 24.89L144.93 24.72L144.88 24.67Q146.71 23.30 147.47 18.93L147.45 18.90L147.51 18.96Q147.43 18.39 147.55 17.44L147.72 17.61L147.66 17.55Q147.67 16.73 147.60 16.04L147.71 16.16L147.72 16.16Q147.43 14.35 146.13 13.66L146.10 13.63L146.01 13.62L146.20 13.80Q145.87 12.79 144.72 12.25L144.75 12.28L144.69 12.22Q143.23 11.60 138.09 11.30L138.06 11.27L137.92 11.12Q136.36 11.16 134.76 11.16L134.73 11.13L134.78 11.19Q133.07 11.07 131.55 11.72L131.61 11.78L131.71 11.88Q130.45 12.60 130.45 14.35L130.45 14.36L130.32 14.22Q130.31 13.80 130.58 17.15L130.58 17.15L130.63 17.19Q130.89 17.23 132.53 17.84L132.67 17.98L132.50 17.81Q132.51 18.36 132.48 18.85L132.61 18.98L132.47 18.84Q132.53 19.41 132.57 19.94L132.50 19.86L132.63 20.00Q134.32 20.28 136.34 20.40L136.33 20.38L136.31 20.37Q136.28 18.39 137.38 17.55L137.40 17.57L137.45 17.62Q138.18 16.87 140.20 16.64L140.34 16.78L140.38 16.82Q141.51 16.80 142.08 16.99L142.07 16.99L142.08 17.00Q142.13 17.12 142.17 17.24L142.13 17.19L142.08 17.34L142.23 17.94L142.26 17.97Q142.21 18.11 142.17 18.27L142.19 18.29L142.10 18.20Q141.99 19.88 140.47 21.06L140.61 21.20L140.63 21.22Q139.66 22.08 137.65 22.27L137.55 22.18L137.62 22.24Q136.88 22.38 136.01 22.38L135.93 22.30L135.96 22.34Q136.13 22.81 136.28 23.50L136.14 23.35L136.21 23.42Q137.89 23.35 139.34 24.07L139.33 24.07L139.24 24.09L137.73 24.34L137.77 24.37Q137.81 24.72 137.92 25.33L137.81 25.21L137.87 25.28Q140.10 25.30 141.81 26.63L141.81 26.62L141.68 26.49Q141.94 26.90 142.24 28.54L142.19 28.49L142.23 28.53Q142.37 31.41 139.43 31.82L139.61 32.00L139.53 31.92Q137.41 32.16 136.84 32.12L136.91 32.20L136.81 32.10Q136.42 32.04 135.88 31.97L135.85 31.93L135.89 31.52L136.02 31.08L136.00 30.63L136.07 30.37L136.10 30.39Q135.14 30.46 134.34 30.65L134.29 30.60L134.33 30.64Q134.34 30.46 134.34 30.27L134.27 30.20L134.37 30.30Q134.37 30.07 134.37 29.84L134.22 29.69L134.22 29.70Q134.31 29.33 134.46 28.60L134.59 28.73L134.45 28.59Q132.64 28.88 130.78 29.22L130.80 29.25L130.77 29.22Q130.76 29.70 130.65 30.82L130.70 30.88L130.73 30.90Q130.54 31.96 130.54 32.57L130.45 32.47L130.60 32.62Q130.69 34.69 132.06 35.45L131.90 35.29L131.98 35.37Q133.52 37.72 138.25 37.53L138.19 37.47L138.20 37.49Q138.83 37.35 140.36 37.51Z"/></svg>