<svg xmlns="http://www.w3.org/2000/svg" width="200" height="40" viewBox="0,0,200,40"><path fill="#222" d="M50.33 35.31L50.36 35.33L50.31 35.29Q48.97 35.43 47.41 35.01L47.47 35.07L47.35 34.96Q46.17 34.07 46.01 32.44L46.07 32.49L46.00 32.42Q45.97 32.24 46.16 29.62L46.13 29.58L46.19 29.64Q47.29 29.52 49.30 29.14L49.15 28.98L49.11 29.90L49.01 29.80Q48.69 31.50 50.10 32.07L50.12 32.08L50.21 32.18Q50.96 32.47 53.05 32.47L53.12 32.54L52.97 32.39Q54.63 32.30 54.82 32.22L54.90 32.30L54.92 32.32Q55.74 32.08 56.47 31.58L56.58 31.69L56.52 31.63Q57.98 30.73 57.79 28.64L57.63 28.49L57.62 28.47Q57.42 26.03 55.69 24.47L55.71 24.49L55.81 24.59Q54.10 23.05 51.62 23.05L51.52 22.94L51.56 22.75L51.53 22.72Q52.04 22.81 52.91 22.74L52.74 22.57L52.76 22.58Q54.75 22.55 56.12 21.32L56.09 21.29L56.11 21.31Q57.49 20.08 57.64 18.22L57.56 18.14L57.70 18.27Q57.62 17.78 57.62 17.44L57.79 17.60L57.76 17.58Q57.65 15.94 56.28 15.02L56.36 15.11L56.31 15.05Q55.07 14.24 53.47 14.35L53.60 14.48L53.56 14.44Q52.24 14.26 51.02 14.68L51.02 14.68L51.09 14.74Q49.56 15.20 49.26 16.34L49.24 16.32L49.25 16.34Q49.05 17.09 49.13 17.85L49.18 17.90L49.13 17.85Q48.15 17.66 46.09 16.94L45.97 16.83L45.99 16.84Q45.81 15.21 45.85 14.38L45.94 14.47L45.94 14.47Q45.90 12.80 46.97 12.11L47.03 12.17L46.96 12.10Q48.56 11.68 50.16 11.68L50.12 11.64L50.02 11.55Q53.29 11.62 56.45 11.89L56.34 11.78L56.34 11.78Q61.45 12.24 61.14 16.00L61.18 16.04L61.10 15.97Q61.01 17.44 60.52 19.00L60.64 19.12L60.55 19.03Q59.64 22.12 57.28 23.03L57.22 22.97L57.29 23.04Q59.98 23.63 60.59 26.98L60.49 26.88L60.43 26.83Q60.69 28.00 60.76 30.02L60.89 30.14L60.87 30.12Q61.02 34.58 56.41 35.03L56.33 34.95L56.35 34.96Q55.73 35.15 50.44 35.41ZM55.52 37.53L55.52 37.52L55.58 37.59Q56.18 37.61 59.03 37.69L59.05 37.71L59.13 37.79Q60.87 37.85 62.50 37.20L62.42 37.12L62.51 37.21Q63.64 36.20 63.45 34.45L63.40 34.41L63.51 34.51Q63.22 33.01 62.92 31.25L62.99 31.33L62.93 31.27Q62.26 26.83 60.32 25.20L60.39 25.26L60.18 24.86L60.04 24.69L60.20 24.84Q61.96 23.41 62.72 19.03L62.65 18.96L62.56 18.87Q62.71 18.53 62.83 17.58L62.74 17.49L62.78 17.53Q62.77 16.68 62.69 15.99L62.75 16.06L62.78 16.08Q62.60 14.37 61.30 13.69L61.42 13.81L61.35 13.82L61.18 13.64Q61.04 12.82 59.90 12.29L59.74 12.13L59.74 12.13Q58.37 11.59 53.23 11.29L53.18 11.24L53.22 11.29Q51.39 11.05 49.79 11.05L49.79 11.05L49.78 11.04Q48.17 11.03 46.65 11.68L46.80 11.82L46.68 11.71Q45.51 12.51 45.51 14.26L45.58 14.34L45.49 14.24Q45.50 13.84 45.77 17.19L45.88 17.30L45.71 17.13Q46.11 17.30 47.75 17.91L47.78 17.95L47.70 17.87Q47.77 18.47 47.73 18.97L47.72 18.96L47.67 18.91Q47.69 19.42 47.73 19.95L47.72 19.94L47.65 19.87Q49.44 20.25 51.46 20.37L51.59 20.50L51.59 20.50Q51.51 18.48 52.62 17.65L52.55 17.58L52.65 17.68Q53.41 16.96 55.43 16.73L55.34 16.64L55.35 16.64Q56.48 16.64 57.06 16.83L57.15 16.93L57.19 16.96Q57.25 17.10 57.29 17.21L57.15 17.08L57.29 17.41L57.29 17.86L57.38 17.96Q57.34 18.10 57.30 18.25L57.22 18.17L57.37 18.32Q57.13 19.87 55.60 21.05L55.69 21.14L55.64 21.08Q54.71 21.98 52.69 22.17L52.73 22.21L52.68 22.16Q52.06 22.42 51.19 22.42L51.15 22.38L51.15 22.38Q51.23 22.76 51.38 23.45L51.37 23.44L51.42 23.49Q53.12 23.43 54.56 24.16L54.53 24.13L54.49 24.20L52.82 24.28L52.81 24.27Q52.93 24.69 53.04 25.30L52.95 25.21L53.08 25.34Q55.16 25.21 56.87 26.54L56.93 26.61L56.95 26.62Q57.15 26.98 57.46 28.61L57.32 28.47L57.34 28.50Q57.62 31.51 54.68 31.93L54.57 31.82L54.63 31.88Q52.66 32.27 52.09 32.23L51.97 32.11L52.06 32.20Q51.45 31.93 50.91 31.85L51.08 32.02L50.92 31.40L51.17 31.08L51.24 30.74L51.22 30.37L51.20 30.35Q50.30 30.48 49.50 30.67L49.39 30.56L49.49 30.66Q49.40 30.38 49.40 30.19L49.40 30.19L49.51 30.30Q49.39 29.95 49.39 29.72L49.46 29.79L49.48 29.81Q49.43 29.30 49.58 28.58L49.56 28.55L49.66 28.66Q47.81 28.90 45.94 29.24L45.92 29.22L45.95 29.25Q45.86 29.66 45.75 30.78L45.72 30.76L45.82 30.85Q45.75 32.02 45.75 32.63L45.66 32.54L45.73 32.61Q45.85 34.71 47.22 35.47L47.11 35.36L47.21 35.46Q48.67 37.72 53.39 37.53L53.35 37.49L53.43 37.57Q54.07 37.44 55.59 37.60Z"/><path fill="#222" d="M166.87 35.12L166.88 35.13L164.44 28.24L164.44 28.24Q160.15 15.72 154.21 9.33L154.26 9.38L154.26 9.38Q156.23 10.39 158.81 11.00L158.85 11.04L158.85 11.04Q163.91 17.24 168.25 29.99L168.26 30.01L168.35 30.10Q171.40 21.99 172.08 20.39L172.10 20.40L172.05 20.35Q174.37 14.69 177.19 11.37L177.20 11.39L177.25 11.43Q179.21 10.96 181.84 10.08L181.92 10.17L181.93 10.18Q177.36 14.78 174.32 22.01L174.25 21.95L174.41 22.11Q172.88 25.64 169.19 35.16L169.29 35.26L169.15 35.12Q168.68 35.22 168.11 35.18L168.03 35.11L168.16 35.24Q167.44 35.09 166.87 35.12ZM171.93 37.60L171.94 37.60L171.98 37.64Q174.69 27.56 176.25 23.53L176.36 23.64L176.21 23.49Q179.32 15.90 183.74 11.03L183.71 11.01L183.72 11.02Q182.77 11.47 180.68 12.20L180.52 12.03L181.71 10.76L181.72 10.76Q182.40 10.18 183.00 9.54L182.86 9.39L183.01 9.54Q180.12 10.46 177.12 11.03L177.17 11.08L177.07 10.99Q172.82 16.44 168.94 27.90L168.83 27.80L168.83 27.80Q165.09 17.59 161.90 13.21L162.06 13.37L161.95 13.27Q161.51 13.13 160.64 12.98L160.75 13.09L160.66 13.00Q160.50 12.69 158.90 10.64L158.87 10.60L158.83 10.56Q155.84 9.82 153.14 8.41L153.18 8.45L153.28 8.55Q159.83 15.56 164.21 28.35L164.17 28.31L164.32 28.46Q165.37 31.95 166.55 35.52L166.67 35.65L166.65 35.63Q166.95 35.62 167.78 35.51L167.92 35.65L167.76 35.48Q168.17 36.23 168.86 37.57L168.90 37.61L168.89 37.60Q169.71 37.51 170.44 37.59L170.46 37.61L170.53 37.68Q171.17 37.60 171.93 37.60Z"/><path d="M11 35 C108 20,109 39,198 16" stroke="#111" fill="none"/><path d="M8 18 C89 32,105 9,198 1" stroke="#222" fill="none"/><path fill="#222" d="M107.76 24.74L107.64 24.63L107.57 24.55Q107.66 28.91 106.94 33.06L106.85 32.97L106.93 33.05Q109.24 32.54 112.32 32.43L112.19 32.29L112.30 32.40Q113.63 32.59 114.70 31.58L114.64 31.53L114.71 31.60Q115.76 30.57 115.76 29.24L115.81 29.30L115.72 29.20Q115.63 28.81 115.59 28.54L115.78 28.73L115.75 28.69Q115.50 25.67 113.26 24.83L113.20 24.77L113.29 24.87Q112.56 24.60 111.88 24.67L111.88 24.67L111.80 24.60Q110.77 24.55 109.74 24.59L109.78 24.63L109.78 24.63Q108.67 24.62 107.64 24.62ZM106.53 14.30L106.40 14.17L106.51 14.28Q107.34 17.55 107.61 21.93L107.53 21.85L107.53 21.85Q108.96 21.95 111.63 21.99L111.60 21.96L111.73 22.09Q114.57 22.04 114.91 18.50L114.91 18.50L114.89 18.48Q115.25 16.70 113.84 15.86L113.83 15.85L113.82 15.84Q112.82 15.22 108.40 14.57L108.50 14.67L108.45 14.62Q107.40 14.49 106.49 14.26ZM102.79 37.10L102.85 37.15L102.71 37.01Q105.28 30.45 105.02 23.07L104.97 23.02L104.92 22.97Q104.68 15.72 101.74 9.25L101.79 9.30L101.72 9.23Q105.50 11.75 111.73 12.00L111.78 12.06L111.70 11.97Q118.10 12.39 118.44 15.29L118.40 15.24L118.44 15.28Q118.78 18.07 117.38 20.73L117.33 20.69L117.37 20.72Q116.53 22.13 114.93 22.81L114.88 22.77L114.97 22.86Q118.52 23.44 118.75 28.80L118.88 28.93L118.87 28.93Q118.99 30.07 118.91 31.48L118.79 31.35L118.80 31.37Q118.74 32.68 117.81 33.62L117.91 33.71L117.88 33.68Q116.93 34.60 115.60 34.75L115.67 34.82L115.53 34.69Q114.11 34.82 113.04 34.82L113.13 34.91L113.02 34.80Q107.28 34.77 102.75 37.06ZM115.65 37.47L115.62 37.44L115.48 37.30Q116.60 37.54 118.47 37.66L118.30 37.49L118.41 37.61Q119.73 37.55 120.83 36.68L120.81 36.65L120.97 36.81Q121.70 35.82 121.58 34.26L121.55 34.23L121.69 34.37Q121.50 33.30 120.77 29.84L120.83 29.89L120.79 29.85Q120.09 26.60 118.22 25.12L118.19 25.09L117.84 24.32L117.87 24.35Q119.41 22.80 119.98 19.04L120.07 19.12L119.99 19.04Q120.17 17.93 120.10 16.52L120.24 16.66L120.07 16.49Q120.13 15.30 119.03 14.46L118.92 14.36L118.97 14.41Q118.63 14.18 118.52 14.14L118.53 14.16L118.47 14.10Q118.25 13.61 117.42 12.81L117.41 12.81L117.44 12.84Q115.86 11.72 111.64 11.53L111.64 11.53L111.67 11.56Q105.15 11.40 101.15 8.50L101.16 8.51L101.18 8.53Q104.30 15.39 104.61 22.92L104.70 23.02L104.75 23.07Q104.97 30.79 102.16 37.72L102.13 37.69L104.24 36.80L104.34 36.90Q103.98 38.06 103.49 39.20L103.32 39.03L103.47 39.18Q107.72 37.26 112.74 37.26L112.74 37.27L112.70 37.22Q114.22 37.33 115.67 37.49ZM113.44 26.84L113.46 26.86L113.38 26.78Q114.15 26.75 115.06 27.21L114.99 27.14L115.05 27.20Q115.18 27.56 115.33 28.62L115.29 28.58L115.41 28.70Q115.45 29.92 114.52 30.97L114.66 31.11L114.65 31.10Q113.73 32.16 112.32 32.04L112.27 32.00L110.78 32.10L110.87 32.19Q109.96 32.08 109.23 32.19L109.23 32.19L109.37 32.33Q109.65 30.47 109.72 27.01L109.60 26.88L109.72 27.00Q110.42 26.98 111.68 26.95L111.54 26.81L111.53 26.80Q112.79 26.76 113.40 26.80ZM112.34 17.18L112.40 17.23L112.76 17.22L112.76 17.22Q113.10 17.33 113.29 17.37L113.17 17.25L113.59 17.29L113.98 17.49L114.52 17.49L114.59 17.57Q114.66 17.78 114.66 18.09L114.68 18.11L114.72 18.68L114.58 18.55Q114.69 19.91 113.81 20.84L113.77 20.80L113.66 20.69Q112.92 21.76 111.70 21.76L111.66 21.72L111.61 21.67Q110.58 21.66 110.58 21.66L110.66 21.74L110.70 21.78Q109.26 21.64 109.60 21.64L109.56 21.60L109.54 21.58Q109.61 20.16 109.30 17.11L109.31 17.12L109.35 17.16Q110.80 17.16 112.32 17.16Z"/><path fill="#222" d="M17.23 34.00L17.13 33.89L17.12 33.88Q19.13 31.63 23.89 24.36L23.70 24.17L23.79 24.26Q27.82 18.05 30.68 14.78L30.69 14.79L30.75 14.85Q28.68 15.18 26.59 15.18L26.57 15.16L26.59 15.18Q21.29 15.14 17.29 13.35L17.37 13.42L17.22 13.28Q16.61 11.41 15.92 9.85L15.93 9.86L15.82 9.75Q20.52 12.04 26.19 12.15L26.19 12.15L26.08 12.05Q31.28 12.18 36.46 10.28L36.53 10.36L36.49 10.32Q36.07 11.11 35.77 11.91L35.87 12.02L35.16 13.47L35.23 13.54Q32.15 17.17 28.16 22.99L28.14 22.98L24.79 27.77L24.83 27.81Q23.16 30.26 21.34 32.54L21.29 32.50L21.36 32.57Q24.55 31.84 27.87 31.91L27.91 31.96L27.99 32.04Q31.32 32.13 34.48 33.05L34.49 33.06L34.99 34.66L34.93 34.60Q35.20 35.44 35.54 36.28L35.51 36.24L35.42 36.16Q30.78 34.60 25.64 34.79L25.69 34.84L25.60 34.75Q20.61 35.09 16.12 37.11L16.01 37.00L16.09 37.08Q16.51 36.05 17.24 34.00ZM15.57 37.85L15.43 37.71L15.51 37.80Q16.73 37.19 17.53 36.92L17.60 37.00L17.56 36.95Q17.23 37.65 16.55 39.17L16.49 39.12L16.57 39.20Q22.33 37.11 28.31 37.34L28.18 37.22L28.34 37.37Q34.66 37.60 39.68 40.38L39.52 40.22L39.57 40.27Q38.24 37.95 37.44 35.78L37.32 35.65L37.47 35.81Q36.83 35.43 35.30 34.86L35.46 35.02L35.36 34.92Q35.25 34.24 34.83 32.75L34.72 32.64L34.78 32.70Q30.51 31.40 25.41 31.59L25.58 31.76L25.45 31.63Q27.56 28.87 31.10 23.31L31.11 23.32L31.24 23.45Q34.81 17.65 36.71 15.10L36.74 15.13L36.79 15.18Q37.33 13.82 38.36 11.11L38.25 11.01L38.35 11.10Q37.55 11.33 36.10 11.94L36.05 11.89L36.17 12.01Q36.52 11.22 37.24 9.69L37.24 9.69L37.14 9.59Q31.84 11.75 26.13 11.68L26.15 11.70L26.10 11.64Q20.13 11.54 15.18 9.03L15.19 9.03L15.22 9.07Q16.39 11.46 17.12 13.70L17.14 13.73L17.13 13.72Q18.27 14.28 19.07 14.51L18.94 14.38L19.06 14.50Q19.19 15.05 19.46 16.50L19.49 16.54L19.60 16.64Q23.24 17.62 28.12 17.43L28.18 17.50L28.08 17.40Q25.68 20.59 22.37 25.58L22.40 25.61L16.83 33.90L16.92 33.98Q16.43 35.13 15.40 37.68Z"/><path fill="#444" d="M79.92 21.88L79.87 21.83L79.88 21.84Q81.64 21.96 83.47 21.96L83.53 22.02L83.51 22.00Q85.24 21.95 87.07 21.79L87.04 21.76L87.12 21.84Q86.91 22.40 86.91 23.12L86.91 23.12L87.07 24.61L87.02 24.56Q84.57 24.47 79.81 24.58L79.92 24.70L79.88 24.65Q79.90 30.61 78.76 35.60L78.73 35.57L78.74 35.58Q76.49 36.23 75.01 37.03L75.11 37.13L75.08 37.10Q77.39 30.27 77.12 23.15L77.13 23.16L76.99 23.02Q76.92 16.06 74.26 9.40L74.25 9.39L74.20 9.35Q77.79 11.79 82.54 12.01L82.54 12.01L82.69 12.16Q87.17 12.15 91.32 10.40L91.41 10.49L91.49 10.57Q91.18 11.36 90.95 12.16L90.98 12.19L90.34 13.64L90.32 13.62Q87.78 14.89 84.81 15.04L84.83 15.07L84.67 14.90Q81.85 15.17 79.00 14.44L78.87 14.31L78.87 14.32Q79.67 17.82 79.86 21.82ZM92.09 9.84L92.06 9.80L92.00 9.74Q87.50 11.98 82.63 11.68L82.60 11.65L82.60 11.65Q77.16 11.23 73.43 8.38L73.53 8.48L73.56 8.51Q76.41 15.44 76.72 23.05L76.69 23.03L76.72 23.05Q77.07 31.02 74.56 37.80L74.46 37.69L74.55 37.79Q75.16 37.33 76.53 36.68L76.53 36.69L76.49 36.65Q76.43 37.53 75.86 39.06L75.88 39.08L75.78 38.98Q78.12 37.93 81.01 37.44L81.08 37.51L81.08 37.51Q81.71 32.65 81.90 26.94L81.83 26.87L81.75 26.79Q83.55 26.76 85.38 26.76L85.49 26.87L85.40 26.78Q87.24 26.83 89.07 27.03L89.14 27.10L89.02 26.98Q88.92 26.04 88.92 25.13L88.96 25.17L88.95 23.25L88.86 23.16Q88.08 23.26 87.24 23.26L87.34 23.35L87.28 23.30Q87.34 22.48 87.42 21.46L87.33 21.37L87.34 21.38Q86.04 21.64 84.63 21.64L84.64 21.65L84.70 21.70Q83.14 21.56 81.77 21.52L81.80 21.55L81.77 19.38L81.69 19.31Q81.82 18.37 81.71 17.31L81.56 17.16L81.71 17.31Q82.66 17.34 83.65 17.34L83.57 17.27L83.59 17.29Q88.28 17.22 91.90 15.32L91.93 15.35L92.04 15.46Q92.50 13.60 93.41 10.97L93.31 10.87L93.46 11.02Q92.19 11.88 91.39 12.22L91.30 12.13L91.33 12.16Q91.49 11.29 91.98 9.73Z"/><path fill="#111" d="M149.19 18.09L149.14 18.05L149.10 18.01Q147.33 20.76 144.66 26.39L144.57 26.30L142.67 30.64L142.72 30.70Q141.80 32.55 140.47 34.80L140.42 34.76L140.43 34.76Q140.93 34.81 139.26 34.85L139.19 34.78L139.24 34.83Q139.26 34.85 138.00 34.85L138.00 34.84L137.95 34.79Q137.38 33.46 134.44 26.30L134.40 26.26L134.39 26.25Q132.25 20.91 130.15 17.90L130.02 17.77L130.16 17.91Q130.79 20.86 130.79 24.02L130.82 24.05L130.78 24.01Q130.93 30.67 127.96 36.22L127.95 36.21L127.96 36.22Q126.53 36.47 124.17 37.19L124.13 37.15L124.09 37.11Q127.97 31.63 127.97 24.40L127.95 24.37L127.79 24.21Q127.95 15.43 122.54 8.46L122.46 8.38L122.51 8.43Q124.18 9.19 126.54 9.87L126.48 9.81L126.54 9.87Q133.46 16.49 139.55 29.81L139.54 29.80L139.58 29.84Q143.18 22.94 145.39 19.43L145.26 19.30L145.32 19.36Q148.95 13.63 152.91 10.16L152.93 10.18L152.86 10.11Q154.07 9.84 156.43 9.08L156.47 9.12L156.42 9.07Q151.57 15.83 151.57 24.44L151.40 24.26L151.39 24.25Q151.50 31.02 154.92 36.54L154.85 36.47L154.95 36.57Q153.54 36.19 150.80 35.58L150.82 35.59L150.76 35.54Q148.54 30.88 148.54 24.91L148.53 24.89L148.53 24.89Q148.49 21.43 149.18 18.08ZM150.59 35.94L150.57 35.91L150.60 35.95Q151.25 36.02 152.69 36.29L152.87 36.47L152.81 36.41Q153.26 37.17 154.22 38.65L154.26 38.69L154.17 38.60Q156.23 38.95 159.70 40.17L159.76 40.24L159.74 40.21Q153.44 33.84 153.44 24.02L153.49 24.07L153.46 24.04Q153.51 16.36 157.89 10.23L157.92 10.26L155.67 10.90L155.68 10.92Q156.71 9.39 157.35 8.52L157.39 8.55L157.27 8.43Q155.48 9.16 152.85 9.69L152.80 9.63L152.80 9.63Q146.16 15.86 140.10 28.46L139.99 28.34L140.05 28.41Q134.93 17.50 129.98 12.25L129.81 12.07L129.95 12.22Q129.53 12.10 128.96 11.99L128.84 11.87L127.65 10.59L127.77 10.72Q127.13 10.00 126.44 9.39L126.55 9.50L126.47 9.42Q123.33 8.33 121.54 7.61L121.71 7.79L121.70 7.78Q127.56 14.84 127.56 24.25L127.69 24.38L127.56 24.25Q127.55 31.86 123.40 37.72L123.45 37.77L123.54 37.86Q124.23 37.64 125.53 37.22L125.39 37.08L125.45 37.14Q125.37 37.44 123.96 39.53L123.85 39.42L123.85 39.42Q125.62 38.91 129.12 38.15L129.16 38.18L129.25 38.28Q132.94 31.19 132.75 23.43L132.78 23.45L132.76 23.44Q134.23 27.39 137.70 35.27L137.77 35.34L137.68 35.25Q137.88 35.14 138.11 35.14L138.17 35.21L138.64 35.15L138.63 35.13Q139.20 35.93 139.99 37.22L139.95 37.18L140.00 37.22Q141.62 37.21 141.62 37.21L141.60 37.18L141.61 37.20Q142.51 37.08 143.16 37.15L143.19 37.18L143.22 37.21Q144.83 33.23 148.18 25.23L148.23 25.28L148.08 25.13Q148.00 30.61 150.59 35.94Z"/></svg>