<svg xmlns="http://www.w3.org/2000/svg" width="200" height="40" viewBox="0,0,200,40"><path d="M7 26 C98 30,120 37,181 13" stroke="#333" fill="none"/><path d="M13 34 C112 36,111 34,198 15" stroke="#666" fill="none"/><path fill="#222" d="M169.16 27.08L160.02 17.18L160.02 17.18Q160.76 20.77 160.76 24.50L160.79 24.54L160.89 24.63Q160.92 30.64 158.86 36.20L158.79 36.12L158.85 36.19Q157.76 36.42 155.51 37.19L155.38 37.06L155.36 37.04Q158.34 31.41 158.34 24.71L158.36 24.73L158.24 24.61Q158.35 16.08 153.86 8.66L153.86 8.66L153.71 8.51Q154.28 8.81 154.97 9.23L154.85 9.11L154.83 9.09Q167.03 20.41 174.87 29.67L174.74 29.53L174.93 29.72Q174.55 27.22 174.55 24.78L174.52 24.75L174.47 24.70Q174.50 17.49 177.01 11.29L177.06 11.33L177.02 11.29Q179.29 10.71 180.89 10.03L180.86 10.00L180.88 10.02Q177.60 16.22 177.30 23.38L177.40 23.48L177.44 23.52Q177.14 30.87 180.11 37.04L180.04 36.97L180.00 36.93Q179.46 36.88 179.04 36.69L178.97 36.62L179.03 36.68Q174.53 32.79 169.32 27.24L169.16 27.08ZM182.54 40.04L182.56 40.06L182.57 40.07Q183.05 40.25 183.47 40.44L183.61 40.58L184.39 40.86L184.45 40.93Q179.17 33.86 179.17 24.49L179.18 24.50L179.25 24.56Q179.24 17.32 182.55 11.08L182.50 11.03L182.60 11.13Q181.90 11.30 180.49 11.91L180.49 11.91L180.40 11.83Q180.90 11.10 181.74 9.54L181.76 9.57L181.59 9.39Q179.30 10.46 176.87 11.03L176.81 10.97L176.85 11.01Q174.12 17.38 174.12 24.80L174.21 24.90L174.22 24.91Q174.12 26.67 174.31 28.65L174.36 28.70L174.28 28.62Q169.78 23.09 165.02 18.49L164.99 18.45L154.84 8.69L154.87 8.71Q154.33 8.44 153.11 7.87L153.02 7.78L153.02 7.78Q157.97 15.59 157.97 24.69L157.95 24.66L157.84 24.55Q157.94 31.77 154.85 37.78L154.83 37.76L154.93 37.86Q155.17 37.68 156.80 37.07L156.77 37.04L156.74 37.00Q156.45 37.82 155.61 39.30L155.56 39.25L155.58 39.27Q156.89 38.71 160.35 37.91L160.47 38.03L160.53 38.09Q162.72 31.83 162.72 24.64L162.69 24.61L162.86 24.78Q162.67 22.49 162.44 20.36L162.57 20.48L162.53 20.45Q173.95 33.20 182.55 40.05Z"/><path fill="#222" d="M113.12 34.80L113.21 34.89L113.20 34.88Q111.26 34.85 109.24 35.04L109.26 35.05L109.13 34.93Q109.89 29.79 109.89 24.95L109.84 24.90L109.80 24.86Q109.80 19.95 109.15 14.74L109.24 14.83L109.23 14.81Q104.72 14.49 101.52 12.81L101.43 12.72L100.80 11.07L100.65 10.92Q100.42 10.38 99.81 9.17L100.00 9.35L99.98 9.33Q104.88 11.84 110.90 12.03L111.03 12.16L111.00 12.13Q116.89 12.31 122.33 10.25L122.33 10.25L122.30 10.22Q121.65 11.70 121.00 13.53L121.00 13.53L120.90 13.42Q117.31 14.75 113.05 14.94L113.04 14.93L113.15 15.04Q112.79 19.89 112.79 24.84L112.87 24.93L112.77 24.83Q112.80 29.80 113.10 34.79ZM122.92 9.47L122.99 9.54L122.89 9.44Q117.11 11.76 110.90 11.57L110.92 11.60L111.03 11.71Q104.38 11.52 99.28 8.55L99.26 8.54L99.16 8.43Q99.98 9.79 101.28 13.06L101.24 13.03L101.22 13.01Q101.91 13.36 103.17 13.93L103.08 13.84L103.21 13.97Q103.38 14.60 103.72 16.12L103.68 16.08L103.79 16.19Q106.08 17.03 109.13 17.26L109.15 17.29L109.12 17.26Q109.53 20.98 109.53 24.75L109.49 24.70L109.47 24.68Q109.53 30.11 108.73 35.48L108.65 35.39L108.68 35.43Q110.38 35.34 110.91 35.34L110.88 35.31L110.83 35.25Q110.85 35.58 110.79 36.24L110.75 36.20L110.75 36.21Q110.74 36.92 110.74 37.26L110.71 37.23L110.85 37.37Q111.99 37.26 113.52 37.33L113.41 37.23L113.55 37.37Q114.28 37.22 116.11 37.38L116.28 37.54L116.29 37.56Q115.02 32.60 114.91 27.42L114.83 27.34L114.80 27.31Q114.63 21.96 115.16 17.05L115.31 17.20L115.28 17.17Q119.27 16.67 122.43 15.45L122.47 15.49L122.40 15.42Q123.15 13.08 124.17 11.02L124.13 10.98L124.07 10.92Q122.76 11.63 121.96 11.94L121.97 11.94L121.97 11.94Q122.43 10.69 123.00 9.55Z"/><path fill="#222" d="M25.11 35.23L25.19 35.31L25.14 35.26Q21.58 35.28 19.95 34.75L19.96 34.76L19.95 34.76Q18.04 34.18 17.74 30.79L17.71 30.76L19.11 29.65L19.26 29.80Q19.81 29.09 20.57 28.60L20.61 28.64L20.74 28.77Q20.32 30.52 21.92 31.74L21.92 31.74L22.01 31.83Q23.35 32.90 25.48 32.71L25.48 32.71L25.47 32.70Q29.71 32.14 29.52 28.60L29.55 28.63L29.57 28.65Q29.45 26.44 26.82 25.22L26.88 25.27L26.81 25.21Q24.06 24.24 21.70 23.03L21.63 22.95L21.51 22.84Q19.01 21.56 18.02 16.88L18.09 16.94L18.07 16.92Q17.94 16.45 17.82 15.68L17.76 15.62L17.87 15.74Q17.84 15.02 17.92 14.45L17.75 14.28L17.79 14.32Q17.91 12.69 19.17 12.23L19.27 12.33L19.15 12.21Q21.55 11.35 25.55 11.54L25.68 11.67L25.56 11.54Q27.41 11.68 28.21 11.75L28.23 11.78L28.34 11.89Q29.84 12.10 30.91 12.55L30.81 12.45L30.80 12.45Q32.94 12.95 33.17 15.42L33.23 15.48L33.17 15.42Q32.11 16.11 29.90 17.45L29.83 17.38L29.84 17.38Q29.52 14.47 25.14 14.47L25.10 14.43L25.16 14.50Q23.11 14.35 22.12 15.03L22.16 15.07L22.13 15.05Q21.07 15.66 21.30 17.45L21.33 17.47L21.23 17.38Q21.62 19.71 24.59 21.24L24.56 21.21L24.55 21.20Q25.08 21.42 29.57 23.05L29.61 23.10L29.48 22.97Q32.20 24.54 32.62 28.92L32.56 28.86L32.56 28.86Q32.55 29.00 32.62 30.26L32.59 30.22L32.73 30.37Q32.66 32.99 31.10 34.10L31.24 34.24L31.19 34.19Q29.32 35.14 25.14 35.26ZM27.50 37.69L27.44 37.64L27.51 37.70Q28.97 37.80 30.95 37.80L30.77 37.62L30.76 37.60Q32.98 37.74 34.24 37.32L34.29 37.37L34.30 37.37Q35.35 36.38 35.28 34.59L35.41 34.72L35.27 34.58Q35.31 33.67 34.93 31.61L34.85 31.53L34.91 31.60Q34.04 26.95 31.95 25.09L31.88 25.02L31.84 24.98Q31.18 23.52 29.85 22.80L29.84 22.79L24.46 20.65L24.44 20.62Q24.12 20.46 23.66 20.23L23.78 20.35L23.54 19.84L23.52 19.48L23.58 19.54Q23.41 18.11 24.55 17.51L24.50 17.45L24.53 17.48Q25.24 16.86 26.95 16.67L26.96 16.67L26.98 16.70Q28.28 16.74 29.42 17.20L29.31 17.09L29.39 17.16Q29.39 17.20 29.58 18.04L29.63 18.09L29.56 18.02Q29.87 17.99 30.37 17.76L30.36 17.76L30.32 17.72Q31.09 18.68 31.21 19.82L31.05 19.66L31.17 19.78Q31.13 19.62 34.78 17.04L34.77 17.03L34.85 17.10Q34.51 14.40 33.06 13.72L33.05 13.70L33.05 13.71Q32.49 12.46 31.05 11.93L31.17 12.06L31.17 12.05Q28.80 11.17 25.60 11.17L25.66 11.23L25.74 11.30Q20.72 11.20 18.86 11.88L18.80 11.82L18.86 11.89Q17.45 12.27 17.34 13.94L17.38 13.99L17.42 14.03Q17.47 14.65 17.89 16.86L17.86 16.83L17.86 16.83Q18.51 20.56 20.68 22.81L20.62 22.75L20.57 22.70Q21.43 24.47 22.93 25.15L23.02 25.24L22.88 25.10Q24.38 25.78 28.30 27.34L28.35 27.39L28.42 27.50L29.07 27.85L29.12 27.93L29.02 27.83Q29.27 28.35 29.31 28.69L29.21 28.60L29.17 28.56Q29.28 32.06 25.36 32.21L25.38 32.22L25.35 32.20Q24.23 32.26 22.94 31.88L22.94 31.89L22.94 31.88Q22.68 31.13 22.68 30.41L22.70 30.42L22.64 30.36Q22.54 30.00 22.58 29.73L22.65 29.80L22.69 29.84Q22.19 29.99 21.39 30.48L21.41 30.50L21.36 30.45Q20.97 29.45 21.12 28.08L21.17 28.13L21.03 27.99Q18.97 29.20 17.37 30.61L17.43 30.68L17.38 30.63Q17.48 31.48 17.55 32.51L17.51 32.47L17.44 32.39Q17.91 34.28 19.21 35.04L19.17 35.01L19.20 35.04Q20.45 36.89 23.00 37.27L22.96 37.23L22.87 37.14Q24.40 37.34 27.33 37.53Z"/><path fill="#222" d="M140.89 27.10L131.68 17.13L131.71 17.15Q132.49 20.79 132.49 24.52L132.54 24.57L132.49 24.51Q132.48 30.48 130.42 36.04L130.48 36.10L130.58 36.20Q129.47 36.42 127.22 37.18L127.12 37.08L127.15 37.11Q129.90 31.25 129.90 24.55L130.09 24.74L130.00 24.66Q130.06 16.07 125.57 8.65L125.60 8.68L125.59 8.67Q125.95 8.77 126.64 9.19L126.63 9.18L126.58 9.13Q138.62 20.29 146.46 29.54L146.57 29.66L146.47 29.55Q146.30 27.25 146.30 24.81L146.33 24.84L146.32 24.83Q146.26 17.54 148.77 11.34L148.75 11.31L148.73 11.29Q150.99 10.70 152.59 10.01L152.69 10.11L152.70 10.12Q149.32 16.22 149.01 23.38L149.12 23.48L149.09 23.46Q148.76 30.78 151.73 36.95L151.64 36.85L151.75 36.97Q151.11 36.81 150.69 36.62L150.80 36.74L150.70 36.64Q146.24 32.79 141.03 27.23L141.04 27.24ZM154.37 40.15L154.40 40.18L154.38 40.16Q154.85 40.34 155.27 40.53L155.21 40.46L156.02 40.78L156.12 40.88Q150.90 33.87 150.90 24.51L151.01 24.61L150.86 24.46Q150.93 17.30 154.24 11.06L154.26 11.07L154.26 11.08Q153.68 11.38 152.28 11.98L152.14 11.84L152.24 11.95Q152.56 11.05 153.39 9.48L153.49 9.58L153.37 9.46Q150.98 10.43 148.55 11.00L148.43 10.88L148.58 11.03Q145.82 17.37 145.82 24.79L145.86 24.83L145.84 24.81Q145.77 26.60 145.96 28.58L146.09 28.72L146.15 28.77Q141.34 22.94 136.58 18.33L136.67 18.42L126.49 8.62L126.63 8.76Q126.06 8.46 124.84 7.89L124.69 7.74L124.80 7.85Q129.68 15.58 129.68 24.68L129.68 24.68L129.67 24.67Q129.55 31.67 126.47 37.68L126.50 37.71L126.46 37.68Q126.80 37.60 128.44 36.99L128.53 37.08L128.44 36.99Q128.17 37.82 127.33 39.31L127.43 39.41L127.29 39.26Q128.63 38.74 132.09 37.94L132.22 38.07L132.19 38.04Q134.41 31.81 134.41 24.61L134.55 24.75L134.39 24.59Q134.44 22.55 134.21 20.42L134.22 20.43L134.29 20.50Q145.77 33.30 154.37 40.16Z"/><path fill="#333" d="M55.80 15.04L55.97 15.22L55.89 15.13Q51.62 15.16 47.93 14.17L47.77 14.02L47.94 14.19Q49.44 18.73 49.63 23.57L49.53 23.47L49.59 23.53Q49.85 28.39 48.63 33.00L48.52 32.89L48.62 32.98Q51.30 32.24 54.80 32.08L54.90 32.18L54.87 32.15Q58.80 31.98 60.59 29.54L60.59 29.54L60.64 29.59Q62.15 27.52 62.34 23.41L62.21 23.28L62.31 23.38Q62.39 21.63 61.93 19.92L62.00 19.98L61.83 19.82Q60.69 15.21 55.97 15.21ZM44.01 37.17L43.88 37.04L44.04 37.20Q46.84 31.44 46.84 24.74L46.88 24.78L46.78 24.67Q46.89 16.26 42.59 9.25L42.56 9.23L42.58 9.25Q47.73 11.80 55.99 11.99L56.13 12.14L56.14 12.14Q64.94 12.26 65.28 19.42L65.38 19.52L65.36 19.50Q65.37 22.10 65.34 23.55L65.36 23.57L65.33 23.54Q65.34 28.31 64.51 30.48L64.35 30.33L64.53 30.51Q64.08 31.58 63.32 32.42L63.19 32.29L63.29 32.39Q61.80 33.80 59.18 34.29L59.20 34.32L59.22 34.34Q57.68 34.67 54.68 34.89L54.78 35.00L54.80 35.02Q48.67 35.48 44.07 37.23ZM61.83 36.94L61.80 36.92L61.94 37.06Q64.73 36.76 66.37 35.28L66.32 35.23L66.34 35.25Q67.37 33.31 67.33 30.57L67.39 30.62L67.32 30.56Q67.44 29.31 67.29 25.81L67.24 25.76L66.94 21.27L66.99 21.32Q66.75 18.99 65.80 16.89L65.80 16.89L65.69 16.78Q65.28 15.95 64.59 15.31L64.60 15.31L64.55 15.11L64.53 15.09Q62.96 12.27 58.54 11.88L58.45 11.79L58.52 11.86Q55.71 11.60 48.71 10.88L48.85 11.02L48.75 10.93Q45.51 10.50 41.82 8.48L41.88 8.54L41.83 8.50Q46.58 15.79 46.58 24.55L46.69 24.67L46.69 24.66Q46.59 31.57 43.24 37.73L43.29 37.78L43.37 37.86Q44.03 37.57 45.36 37.08L45.32 37.04L45.33 37.04Q44.87 37.76 43.99 39.25L44.15 39.40L44.00 39.25Q47.11 38.26 50.46 37.76L50.53 37.83L50.50 37.80Q52.63 37.53 56.29 37.42L56.25 37.38L56.23 37.37Q60.15 37.29 61.98 37.10ZM61.92 23.37L61.89 23.34L61.93 23.38Q61.50 31.32 54.80 31.70L54.93 31.84L54.81 31.72Q52.92 31.88 50.86 32.14L50.83 32.11L50.84 32.12Q51.61 28.33 51.61 24.67L51.64 24.70L51.61 24.67Q51.57 20.94 50.85 17.09L50.87 17.12L50.78 17.02Q53.21 17.55 57.89 17.55L57.73 17.39L57.83 17.49Q59.09 17.22 60.72 18.17L60.79 18.24L60.72 18.17Q62.03 20.47 61.88 23.33Z"/><path fill="#333" d="M82.04 14.67L81.92 14.55L80.35 14.66L80.51 14.82Q78.13 14.79 77.90 16.81L78.05 16.96L77.93 16.84Q77.81 17.53 77.85 18.51L77.86 18.53L77.88 18.55Q77.90 20.47 79.16 21.80L79.29 21.93L79.15 21.79Q80.41 23.13 82.32 22.98L82.39 23.06L82.31 22.97Q84.45 22.90 85.21 21.99L85.28 22.06L85.16 21.94Q86.24 21.04 86.50 18.79L86.60 18.88L86.55 18.83Q86.74 16.51 85.48 15.67L85.50 15.69L85.49 15.68Q84.71 14.98 82.05 14.68ZM88.06 23.88L88.10 23.92L86.80 26.21L86.72 26.13Q83.97 30.87 80.20 34.95L80.38 35.13L80.27 35.02Q78.65 35.19 75.95 35.99L75.98 36.02L75.98 36.02Q81.36 29.79 84.52 24.99L84.36 24.83L84.45 24.93Q83.44 25.59 81.80 25.66L81.69 25.55L81.75 25.61Q78.74 25.76 77.22 23.78L77.21 23.78L77.34 23.90Q76.05 22.24 74.95 17.67L74.90 17.62L74.87 17.59Q74.86 17.12 74.71 16.19L74.87 16.35L74.68 16.17Q74.57 15.27 74.57 14.81L74.55 14.80L74.64 14.88Q74.52 12.98 75.59 12.37L75.70 12.48L75.67 12.45Q76.87 11.68 78.74 11.68L78.82 11.75L78.82 11.76Q81.94 11.68 81.94 11.68L81.86 11.60L82.02 11.76Q84.23 11.83 85.48 12.02L85.29 11.83L85.39 11.92Q87.58 12.26 88.50 12.75L88.37 12.63L88.45 12.71Q89.76 13.40 89.95 15.15L89.98 15.18L90.04 15.25Q89.91 15.34 89.72 18.01L89.74 18.03L89.78 18.07Q89.34 20.14 89.11 20.98L89.11 20.98L89.16 21.03Q88.76 22.41 87.99 23.82ZM89.89 26.21L90.05 26.37L89.88 26.20Q90.86 23.99 91.39 19.68L91.38 19.67L91.56 19.85Q91.78 17.60 91.74 16.72L91.66 16.63L91.70 16.68Q91.67 14.82 90.49 13.91L90.52 13.94L90.16 13.77L90.11 13.71Q89.86 12.97 88.95 12.33L88.97 12.35L88.99 12.37Q86.80 11.47 82.00 11.32L81.94 11.26L81.94 11.26Q81.07 11.34 78.63 11.34L78.48 11.18L78.54 11.25Q76.86 11.32 75.38 12.01L75.36 11.99L75.36 11.99Q74.20 12.77 74.27 14.59L74.18 14.50L74.14 14.46Q74.37 15.41 74.56 17.43L74.59 17.46L74.60 17.47Q75.19 20.08 75.46 20.92L75.41 20.87L75.51 20.97Q76.06 22.81 77.01 24.11L77.02 24.12L76.96 24.06Q77.28 24.45 77.66 24.83L77.64 24.81L77.64 24.82Q77.93 25.30 78.58 26.21L78.57 26.20L78.59 26.22Q80.10 27.62 82.04 27.81L81.96 27.72L81.94 27.71Q80.06 30.39 78.50 32.30L78.61 32.40L74.84 36.63L74.98 36.77Q77.19 35.98 78.83 35.64L78.89 35.70L78.80 35.60Q78.13 36.58 76.57 38.29L76.52 38.23L76.43 38.14Q79.48 37.20 82.60 37.16L82.71 37.27L82.70 37.25Q85.04 34.69 89.38 27.46L89.44 27.51L89.31 27.46L89.34 27.49Q89.71 26.87 90.05 26.37ZM83.96 17.05L83.99 17.08L83.90 16.98Q84.49 16.85 84.95 16.97L85.04 17.06L85.10 17.12Q85.64 17.13 86.02 17.24L85.96 17.18L86.01 17.24Q86.09 17.58 86.16 17.99L86.27 18.10L86.22 18.05Q86.27 18.44 86.15 18.82L86.24 18.91L86.26 18.92Q86.17 20.59 84.99 21.69L84.98 21.68L84.96 21.66Q83.96 22.65 82.33 22.61L82.42 22.70L82.38 22.66Q82.04 22.74 80.51 22.43L80.48 22.40L80.44 22.36Q80.16 21.44 80.16 20.71L80.27 20.82L80.13 20.68Q80.04 20.40 80.04 20.17L80.22 20.35L80.19 20.32Q80.20 18.12 82.48 17.32L82.38 17.22L82.52 17.36Q83.15 17.07 83.98 17.07Z"/></svg>