<svg xmlns="http://www.w3.org/2000/svg" width="200" height="40" viewBox="0,0,200,40"><path d="M15 37 C111 18,81 4,198 20" stroke="#777" fill="none"/><path d="M16 12 C88 13,112 23,184 34" stroke="#111" fill="none"/><path fill="#444" d="M81.99 35.11L82.11 35.22L79.68 28.34L79.77 28.43Q75.25 15.69 69.31 9.29L69.27 9.24L69.38 9.36Q71.47 10.49 74.06 11.10L73.91 10.96L73.97 11.01Q79.20 17.38 83.54 30.14L83.52 30.13L83.40 30.00Q86.45 21.89 87.13 20.30L87.20 20.36L87.28 20.44Q89.54 14.71 92.36 11.40L92.43 11.47L92.46 11.50Q94.41 11.01 97.04 10.14L97.05 10.15L96.98 10.08Q92.41 14.69 89.37 21.92L89.45 22.01L89.39 21.95Q88.07 25.69 84.38 35.20L84.46 35.29L84.35 35.18Q83.77 35.17 83.20 35.13L83.26 35.19L83.22 35.15Q82.72 35.23 82.15 35.26ZM87.16 37.68L87.14 37.67L87.17 37.69Q89.87 27.60 91.43 23.56L91.51 23.65L91.52 23.65Q94.51 15.95 98.92 11.07L98.89 11.04L98.87 11.02Q97.78 11.34 95.69 12.06L95.84 12.21L96.83 10.73L96.84 10.74Q97.36 10.01 97.97 9.36L98.12 9.51L97.97 9.36Q95.18 10.38 92.18 10.95L92.30 11.08L92.19 10.96Q87.77 16.25 83.88 27.71L83.89 27.72L83.90 27.72Q80.36 17.71 77.17 13.34L77.09 13.27L77.04 13.22Q76.75 13.23 75.88 13.08L75.88 13.07L75.88 13.07Q75.64 12.68 74.04 10.63L74.01 10.60L74.00 10.59Q71.15 9.98 68.45 8.58L68.32 8.45L68.36 8.49Q74.99 15.58 79.37 28.37L79.44 28.44L79.38 28.38Q80.55 31.99 81.73 35.57L81.76 35.59L81.87 35.70Q82.15 35.68 82.99 35.57L83.02 35.60L82.96 35.54Q83.27 36.19 83.95 37.52L84.11 37.68L84.05 37.62Q84.89 37.55 85.62 37.62L85.54 37.55L85.49 37.50Q86.41 37.69 87.17 37.69Z"/><path fill="#333" d="M22.00 35.26L22.01 35.27L22.16 35.42Q20.69 35.43 19.12 35.01L19.07 34.96L19.03 34.92Q17.89 34.09 17.74 32.45L17.66 32.37L17.77 32.48Q17.65 32.20 17.84 29.58L17.86 29.60L17.92 29.66Q18.91 29.44 20.93 29.05L20.93 29.05L20.84 29.92L20.83 29.90Q20.56 31.65 21.97 32.22L21.81 32.06L21.87 32.12Q22.69 32.48 24.78 32.48L24.83 32.54L24.82 32.52Q26.33 32.28 26.52 32.20L26.50 32.19L26.49 32.18Q27.42 32.04 28.14 31.54L28.17 31.58L28.15 31.55Q29.59 30.63 29.40 28.54L29.44 28.58L29.52 28.65Q29.16 26.05 27.43 24.49L27.43 24.50L27.43 24.50Q25.69 22.92 23.21 22.92L23.31 23.02L23.33 22.81L23.40 22.88Q23.77 22.83 24.65 22.76L24.49 22.60L24.62 22.73Q26.54 22.63 27.91 21.39L27.84 21.33L27.88 21.36Q29.25 20.13 29.40 18.26L29.31 18.16L29.43 18.29Q29.47 17.91 29.47 17.57L29.48 17.58L29.46 17.56Q29.34 15.92 27.97 15.00L28.06 15.10L27.98 15.02Q26.92 14.37 25.32 14.49L25.21 14.37L25.27 14.44Q24.04 14.35 22.82 14.77L22.67 14.61L22.65 14.59Q21.18 15.10 20.88 16.25L21.05 16.42L21.06 16.43Q20.86 17.18 20.94 17.94L20.90 17.91L20.82 17.83Q19.82 17.63 17.77 16.90L17.71 16.84L17.72 16.86Q17.45 15.14 17.49 14.30L17.67 14.49L17.52 14.34Q17.70 12.88 18.77 12.20L18.83 12.25L18.84 12.26Q20.20 11.61 21.80 11.61L21.76 11.57L21.76 11.57Q25.03 11.64 28.19 11.91L28.08 11.80L28.14 11.86Q33.12 12.20 32.82 15.96L32.80 15.94L32.77 15.92Q32.85 17.56 32.36 19.12L32.36 19.13L32.27 19.04Q31.42 22.19 29.06 23.10L29.00 23.03L28.98 23.01Q31.70 23.64 32.30 26.99L32.33 27.02L32.24 26.92Q32.42 28.02 32.50 30.04L32.50 30.04L32.58 30.12Q32.63 34.47 28.02 34.93L28.05 34.95L28.02 34.93Q27.33 35.03 22.03 35.30ZM27.25 37.54L27.28 37.58L27.36 37.66Q27.87 37.59 30.72 37.66L30.67 37.62L30.83 37.77Q32.54 37.81 34.18 37.16L34.24 37.23L34.17 37.15Q35.34 36.19 35.15 34.44L35.15 34.44L35.21 34.50Q35.10 33.17 34.80 31.42L34.66 31.28L34.68 31.30Q34.02 26.87 32.08 25.24L32.09 25.26L31.78 24.75L31.78 24.71L31.86 24.79Q33.50 23.23 34.26 18.85L34.32 18.91L34.29 18.89Q34.43 18.53 34.54 17.58L34.41 17.45L34.52 17.55Q34.66 16.85 34.58 16.17L34.52 16.11L34.45 16.04Q34.42 14.49 33.13 13.80L33.03 13.70L32.95 13.70L32.92 13.67Q32.69 12.75 31.55 12.22L31.54 12.21L31.50 12.17Q30.06 11.58 24.93 11.27L24.80 11.14L24.81 11.15Q23.25 11.19 21.65 11.19L21.58 11.13L21.61 11.15Q19.97 11.11 18.45 11.76L18.44 11.76L18.51 11.82Q17.30 12.59 17.30 14.34L17.21 14.25L17.22 14.26Q17.25 13.88 17.52 17.23L17.49 17.19L17.45 17.16Q17.80 17.28 19.44 17.89L19.42 17.88L19.44 17.90Q19.53 18.51 19.49 19.01L19.46 18.98L19.51 19.03Q19.50 19.51 19.54 20.04L19.47 19.98L19.51 20.02Q21.31 20.41 23.33 20.52L23.35 20.54L23.22 20.42Q23.13 18.39 24.24 17.55L24.36 17.67L24.31 17.62Q25.14 16.97 27.16 16.74L27.23 16.82L27.20 16.78Q28.33 16.77 28.90 16.96L28.83 16.89L28.83 16.89Q28.95 17.09 28.99 17.20L28.84 17.05L29.03 17.43L29.02 17.88L29.10 17.96Q29.11 18.16 29.08 18.32L28.95 18.19L29.01 18.25Q29.00 20.03 27.48 21.21L27.48 21.21L27.36 21.10Q26.43 21.99 24.42 22.18L24.58 22.34L24.57 22.34Q23.82 22.47 22.95 22.47L22.82 22.33L22.82 22.34Q22.91 22.73 23.06 23.42L23.03 23.39L23.16 23.52Q24.82 23.42 26.27 24.15L26.20 24.08L26.10 24.09L24.53 24.28L24.58 24.32Q24.62 24.67 24.73 25.28L24.69 25.24L24.71 25.26Q26.89 25.23 28.60 26.56L28.66 26.61L28.64 26.60Q28.83 26.94 29.13 28.57L29.17 28.62L29.17 28.61Q29.35 31.54 26.42 31.96L26.37 31.91L26.31 31.85Q24.34 32.23 23.77 32.20L23.81 32.24L23.68 32.11Q23.33 32.10 22.80 32.03L22.65 31.88L22.71 31.48L22.80 31.00L22.88 30.66L22.91 30.35L22.97 30.41Q21.96 30.43 21.16 30.62L21.16 30.61L21.15 30.60Q21.22 30.48 21.22 30.29L21.04 30.11L21.09 30.17Q21.26 30.11 21.26 29.88L21.12 29.74L21.18 29.80Q21.25 29.41 21.40 28.69L21.27 28.55L21.43 28.72Q19.55 28.93 17.68 29.27L17.67 29.26L17.61 29.19Q17.53 29.61 17.41 30.73L17.59 30.91L17.58 30.90Q17.45 32.01 17.45 32.62L17.32 32.49L17.44 32.61Q17.52 34.67 18.89 35.43L18.83 35.37L18.92 35.46Q20.32 37.66 25.04 37.47L25.09 37.51L25.08 37.51Q25.83 37.49 27.35 37.64Z"/><path fill="#333" d="M160.14 10.84L160.23 10.94L160.25 10.96Q162.01 15.69 162.59 20.87L162.57 20.85L162.56 20.84Q166.36 16.80 172.26 11.96L172.27 11.98L172.17 11.87Q175.37 11.57 178.00 10.77L178.06 10.84L171.44 16.39L171.41 16.37Q168.11 19.42 165.25 22.28L165.23 22.26L165.15 22.17Q173.09 31.29 178.15 36.01L178.22 36.08L178.31 36.17Q175.06 35.09 172.74 34.94L172.82 35.02L172.86 35.06Q167.03 29.62 162.73 23.79L162.72 23.78L162.68 23.74Q162.88 30.45 161.01 35.78L161.04 35.81L161.02 35.78Q160.69 35.72 160.19 35.91L160.22 35.94L160.25 36.16L160.30 36.21Q160.13 36.27 157.58 37.18L157.41 37.01L157.53 37.13Q160.42 30.51 160.08 23.04L160.17 23.13L160.11 23.07Q159.88 15.83 156.34 9.32L156.28 9.26L156.75 9.47L157.22 9.83L157.16 9.73L157.31 9.88Q157.86 10.08 160.07 10.77ZM160.34 10.47L160.37 10.50L160.50 10.63Q158.18 10.03 155.55 8.50L155.51 8.46L155.61 8.56Q159.76 15.72 159.76 24.66L159.79 24.69L159.87 24.77Q159.85 31.76 156.88 37.81L156.85 37.78L158.95 36.99L158.96 37.00Q158.41 37.86 157.72 39.15L157.87 39.29L157.88 39.31Q160.11 38.49 162.05 38.07L161.97 37.99L162.10 37.90L162.05 37.84Q162.34 37.83 162.92 37.68L162.87 37.64L162.86 37.63Q164.54 31.73 164.66 26.93L164.65 26.93L164.68 26.96Q166.68 29.38 168.51 31.24L168.67 31.41L168.53 31.26Q169.81 32.46 172.81 35.43L172.70 35.33L172.74 35.36L172.74 35.36Q173.80 36.23 175.67 37.83L175.74 37.90L175.56 37.72Q179.56 38.56 183.02 40.27L183.06 40.32L182.95 40.20Q173.69 31.66 167.44 24.24L167.54 24.33L167.40 24.19Q171.80 19.91 180.55 11.31L180.63 11.38L180.64 11.40Q178.00 12.45 175.99 12.83L176.03 12.88L176.09 12.94Q177.20 11.83 179.52 9.82L179.51 9.81L179.67 9.97Q175.47 11.29 172.12 11.48L172.14 11.50L172.06 11.42Q169.18 13.68 164.31 18.36L164.43 18.49L164.34 18.39Q163.89 15.74 163.32 13.19L163.37 13.23L163.41 13.27Q162.25 13.15 161.26 12.80L161.27 12.81L161.19 12.73Q161.07 12.08 160.50 10.63Z"/><path fill="#222" d="M62.33 35.43L62.37 35.46L62.22 35.31Q59.40 31.58 56.77 22.94L56.61 22.78L56.71 22.88Q55.91 20.59 55.11 18.46L55.16 18.51L52.36 27.37L52.27 27.27Q50.57 32.31 48.17 35.55L48.19 35.56L48.08 35.46Q47.37 35.66 45.73 35.81L45.64 35.72L45.56 35.63Q45.69 34.47 45.69 33.22L45.74 33.26L45.67 33.20Q45.77 27.28 43.03 21.15L43.02 21.14L43.10 21.23Q39.82 14.18 33.96 9.19L33.96 9.19L33.95 9.18Q36.15 9.93 38.51 10.47L38.51 10.46L38.53 10.48Q47.20 18.93 48.50 29.89L48.52 29.92L48.50 29.90Q50.18 26.63 51.63 21.26L51.54 21.17L51.51 21.14Q53.49 13.64 53.98 12.24L54.10 12.35L56.30 12.30L56.32 12.33Q57.12 14.46 57.77 16.78L57.61 16.62L58.84 21.05L58.93 21.15Q60.45 26.55 61.86 29.78L61.87 29.79L61.92 29.84Q63.51 18.15 71.43 10.80L71.37 10.73L71.52 10.89Q73.00 10.50 75.97 9.85L75.98 9.87L76.05 9.93Q70.59 14.11 67.55 20.24L67.64 20.33L67.64 20.33Q64.41 26.43 64.41 33.20L64.46 33.26L64.46 33.25Q64.55 34.45 64.63 35.59L64.47 35.43L63.37 35.36L63.46 35.46Q62.76 35.29 62.19 35.29ZM68.44 38.19L68.53 38.28L68.52 38.27Q67.20 34.63 67.31 30.74L67.44 30.87L67.42 30.85Q67.74 19.29 77.10 11.03L77.08 11.01L77.10 11.03Q76.16 11.27 74.22 11.80L74.17 11.75L74.13 11.71Q75.11 10.90 77.01 9.11L77.02 9.12L77.09 9.19Q74.44 9.97 71.51 10.46L71.47 10.42L71.40 10.35Q63.98 17.55 62.07 27.03L62.07 27.02L62.05 27.00Q61.48 25.36 58.62 13.90L58.69 13.97L58.66 13.94Q58.25 14.03 57.30 14.03L57.16 13.89L56.87 12.84L57.04 13.01Q56.92 12.46 56.69 11.97L56.62 11.90L53.77 11.95L53.66 11.84Q52.78 14.23 51.51 19.35L51.69 19.54L51.67 19.52Q50.27 24.51 49.28 26.98L49.26 26.96L49.39 27.10Q47.83 19.22 42.27 12.90L42.21 12.83L42.14 12.76Q41.80 12.85 40.85 12.66L40.76 12.56L40.84 12.65Q39.97 11.66 38.41 10.03L38.58 10.20L38.45 10.06Q35.15 9.35 32.98 8.55L32.86 8.44L32.87 8.44Q38.54 13.13 41.82 19.33L41.83 19.34L41.79 19.30Q45.42 26.09 45.42 33.09L45.40 33.08L45.39 33.07Q45.29 34.53 45.10 36.13L45.19 36.22L45.17 36.20Q45.43 36.23 45.89 36.14L45.81 36.06L45.92 36.17Q46.34 36.04 46.57 36.04L46.43 35.90L46.49 36.99L46.44 36.94Q46.49 37.45 46.57 37.98L46.51 37.92L46.67 38.08Q47.71 37.90 49.99 37.75L50.03 37.78L50.10 37.86Q53.71 32.44 56.45 23.04L56.34 22.93L56.29 22.87Q59.08 31.68 62.05 35.64L62.10 35.69L62.20 35.80Q62.56 35.70 63.40 35.81L63.46 35.87L63.51 35.92Q64.24 36.85 65.31 37.91L65.34 37.94L65.44 38.04Q66.12 38.00 68.52 38.27Z"/><path fill="#111" d="M135.80 14.39L135.69 14.28L135.83 14.42Q136.53 18.51 136.68 22.09L136.78 22.18L136.80 22.20Q137.84 22.21 138.90 22.21L138.92 22.23L141.22 22.32L141.15 22.25Q142.17 22.21 143.05 20.80L143.14 20.89L142.95 20.70Q143.81 19.66 143.93 18.48L143.84 18.39L143.89 18.45Q144.25 15.42 140.03 14.92L139.94 14.84L140.07 14.97Q138.33 14.86 135.70 14.29ZM136.89 25.03L136.74 24.89L136.77 24.92Q136.64 31.07 135.50 35.48L135.61 35.59L135.52 35.51Q134.11 35.96 131.79 37.03L131.87 37.11L131.89 37.13Q134.11 30.33 133.84 23.06L133.92 23.13L133.85 23.06Q133.69 15.82 130.91 9.39L130.79 9.26L130.91 9.38Q135.04 12.15 141.28 12.15L141.14 12.00L141.27 12.13Q147.19 12.00 147.34 15.46L147.45 15.57L147.39 15.51Q147.43 17.92 146.44 20.58L146.44 20.57L146.44 20.58Q146.01 21.67 145.06 22.89L145.04 22.87L145.08 22.91Q143.85 24.61 141.30 24.88L141.20 24.77L141.34 24.91Q138.99 24.85 136.74 24.89ZM143.00 27.26L142.95 27.22L142.84 27.10Q147.08 27.42 148.33 22.62L148.42 22.71L148.25 22.54Q149.29 18.97 149.13 16.95L149.10 16.92L149.14 16.96Q149.05 15.46 148.29 14.47L148.24 14.42L148.20 14.38Q147.98 14.16 147.48 13.93L147.43 13.88L147.37 13.82Q147.51 13.80 146.90 13.04L146.88 13.02L146.84 12.98Q145.24 11.61 141.28 11.61L141.22 11.55L141.22 11.55Q134.50 11.72 130.28 8.56L130.19 8.48L130.28 8.56Q133.35 15.56 133.62 23.02L133.59 22.99L133.63 23.04Q134.00 30.79 131.34 37.87L131.28 37.81L131.21 37.74Q132.40 37.22 133.39 36.84L133.22 36.67L132.91 37.88L133.02 37.99Q132.72 38.46 132.46 39.03L132.51 39.09L132.37 38.94Q134.81 37.91 137.70 37.38L137.73 37.41L137.81 37.49Q138.53 31.86 138.61 27.14L138.63 27.16L138.63 27.15Q139.84 27.19 140.83 27.19L140.75 27.11L140.89 27.25Q142.08 27.10 142.88 27.14ZM142.05 17.33L141.95 17.23L142.00 17.28Q142.47 17.26 143.46 17.49L143.54 17.56L143.45 17.47Q143.48 17.62 143.52 17.92L143.63 18.03L143.52 17.92Q143.56 18.19 143.49 18.46L143.67 18.65L143.55 18.52Q143.47 19.78 142.75 20.66L142.83 20.73L142.65 20.55Q142.21 21.75 141.18 21.94L141.16 21.92L141.15 21.91Q140.36 21.85 138.73 21.85L138.71 21.83L138.78 21.90Q138.74 19.62 138.52 17.26L138.56 17.30L140.32 17.39L140.13 17.20Q141.12 17.35 141.99 17.27Z"/><path fill="#333" d="M110.13 24.09L110.11 24.06L110.19 24.15Q108.36 24.03 107.12 25.46L107.04 25.37L107.08 25.42Q105.82 26.82 105.63 28.73L105.75 28.85L105.76 28.85Q105.36 30.74 106.45 31.71L106.50 31.77L106.49 31.75Q107.70 32.85 109.79 32.73L109.70 32.64L109.74 32.68Q111.87 32.57 112.98 31.88L112.89 31.79L112.91 31.82Q114.02 30.68 114.02 29.12L114.13 29.22L114.09 29.19Q113.99 28.70 113.91 28.32L113.89 28.31L113.86 28.28Q114.06 26.72 112.95 25.37L112.96 25.38L112.91 25.33Q111.78 23.95 110.11 24.06ZM109.65 35.15L109.73 35.22L109.80 35.29Q105.42 35.29 104.01 34.53L103.92 34.44L103.88 34.39Q102.87 33.66 102.68 31.94L102.67 31.93L102.82 32.08Q102.64 31.25 102.68 30.53L102.75 30.60L102.69 30.54Q102.81 29.56 102.81 29.11L102.86 29.15L102.85 29.14Q103.25 26.23 103.41 25.55L103.53 25.67L103.49 25.63Q103.86 23.61 104.70 22.20L104.84 22.34L104.71 22.21Q107.49 17.94 113.43 11.59L113.43 11.59L113.40 11.56Q115.98 11.17 118.19 10.37L118.19 10.38L118.28 10.47Q111.45 17.95 108.26 22.18L108.16 22.08L108.12 22.04Q109.09 21.52 110.38 21.52L110.47 21.61L110.43 21.57Q113.75 21.58 115.28 23.52L115.38 23.62L115.24 23.49Q116.57 25.12 116.91 28.66L116.94 28.69L117.06 28.81Q117.02 29.41 117.02 30.02L116.95 29.96L117.03 30.04Q117.03 33.16 114.82 34.22L114.77 34.17L114.75 34.15Q113.59 34.82 109.70 35.20ZM111.95 37.56L111.95 37.56L112.08 37.68Q113.41 37.69 115.39 37.76L115.35 37.72L115.31 37.68Q116.98 37.79 118.54 37.07L118.49 37.02L118.52 37.04Q119.50 36.12 119.50 34.33L119.69 34.53L119.51 34.35Q119.67 34.01 119.50 33.02L119.48 33.00L119.34 32.86Q119.23 31.93 119.23 31.47L119.33 31.57L119.23 31.48Q118.36 26.76 116.76 24.86L116.78 24.87L116.68 24.78Q116.72 24.78 116.57 24.55L116.63 24.61L116.35 24.40L116.08 24.17L116.25 24.34Q115.79 23.73 115.18 22.78L115.31 22.91L115.18 22.78Q114.23 21.80 112.26 21.34L112.35 21.43L112.25 21.34Q113.46 19.72 116.43 16.03L116.52 16.12L120.75 10.84L120.79 10.88Q119.16 11.69 116.77 12.45L116.81 12.49L116.87 12.55Q117.67 11.45 119.46 9.47L119.41 9.42L119.55 9.56Q117.00 10.47 113.11 11.04L113.12 11.05L113.16 11.09Q107.58 17.12 104.61 22.07L104.42 21.88L104.43 21.89Q102.95 24.45 102.38 30.69L102.51 30.82L102.33 30.64Q102.40 31.36 102.47 32.31L102.38 32.22L102.42 32.26Q102.41 33.91 103.51 34.83L103.63 34.95L103.67 34.99Q103.99 35.08 103.95 35.12L103.86 35.02L103.99 35.16Q104.42 36.12 105.22 36.53L105.03 36.35L105.12 36.43Q106.55 37.10 108.49 37.29L108.46 37.27L108.48 37.29Q108.59 37.40 112.10 37.70ZM111.71 26.32L111.85 26.45L111.84 26.44Q112.39 26.31 113.34 26.80L113.23 26.69L113.37 26.83Q113.60 27.68 113.60 28.32L113.69 28.40L113.67 28.39Q113.80 30.19 112.85 31.18L112.90 31.24L112.94 31.28Q111.86 31.98 109.76 32.28L109.81 32.33L109.83 32.35Q108.28 32.24 107.74 31.98L107.70 31.94L107.85 32.08Q107.51 31.47 107.51 31.17L107.52 31.19L107.66 31.32Q107.31 27.93 110.24 26.63L110.28 26.68L110.34 26.73Q111.08 26.37 111.84 26.45Z"/></svg>